<svg version="1.1" id="skype" xmlns="http://www.w3.org/2000/svg" xmlns:xlink="http://www.w3.org/1999/xlink" x="0px" y="0px"
	 viewBox="0 0 31 31" style="enable-background:new 0 0 31 31;" xml:space="preserve">
<path class="st0" d="M21.9,31c-1.4,0-2.7-0.3-3.9-0.9c-0.9,0.1-1.6,0.2-2.3,0.2c-8.2,0-14.9-6.6-14.9-14.7c0-0.8,0.1-1.6,0.2-2.5
	C0.4,11.9,0,10.5,0,9c0-5,4.1-9,9.1-9c1.6,0,3.1,0.4,4.4,1.1C14.2,1.1,14.9,1,15.7,1c4,0,7.7,1.5,10.5,4.3c2.8,2.8,4.3,6.4,4.3,10.3
	c0,1-0.1,1.9-0.2,2.7c0.5,1.1,0.8,2.4,0.8,3.6C31,27,26.9,31,21.9,31z M18.3,27.6l0.4,0.2c1,0.5,2.1,0.8,3.2,0.8
	c3.7,0,6.7-3,6.7-6.6c0-1-0.2-2-0.7-2.9l-0.2-0.4l0.1-0.4c0.2-0.8,0.2-1.6,0.2-2.6c0-6.7-5.6-12.2-12.4-12.2c-0.9,0-1.5,0-2.1,0.1
	l-0.5,0.1l-0.4-0.2c-1.1-0.7-2.3-1-3.6-1c-3.7,0-6.7,3-6.7,6.6c0,1.2,0.3,2.3,0.9,3.3l0.2,0.4l-0.1,0.5c-0.2,0.9-0.3,1.7-0.3,2.5
	c0,6.8,5.6,12.3,12.4,12.3c0.7,0,1.4-0.1,2.3-0.2L18.3,27.6z M23.3,18.8c0-0.9-0.2-1.6-0.5-2.2c-0.3-0.6-0.8-1.1-1.4-1.5
	c-0.6-0.4-1.3-0.7-2.2-1c-0.8-0.3-1.8-0.5-2.8-0.7c-0.8-0.2-1.4-0.3-1.8-0.4c-0.3-0.1-0.7-0.2-1-0.4c-0.3-0.2-0.6-0.4-0.8-0.6
	c-0.2-0.2-0.3-0.4-0.3-0.7c0-0.5,0.3-0.9,0.8-1.2c0.5-0.4,1.3-0.5,2.2-0.5c1,0,1.7,0.1,2.1,0.5c0.4,0.3,0.8,0.8,1.1,1.4
	c0.3,0.5,0.5,0.8,0.8,1c0.3,0.2,0.6,0.3,1.1,0.3c0.5,0,1-0.2,1.3-0.5c0.3-0.4,0.6-0.8,0.6-1.2c0-0.5-0.2-1-0.5-1.4
	c-0.3-0.5-0.7-0.9-1.2-1.4c-0.6-0.4-1.3-0.8-2.1-1c-0.8-0.3-1.8-0.4-3-0.4c-1.4,0-2.7,0.2-3.7,0.6C11,7.7,10.2,8.3,9.6,9
	c-0.6,0.7-0.9,1.6-0.9,2.6c0,1,0.3,1.9,0.9,2.5c0.5,0.7,1.3,1.2,2.2,1.6c0.9,0.4,2,0.7,3.3,1c1,0.2,1.8,0.4,2.3,0.6
	c0.6,0.2,1,0.4,1.4,0.7c0.3,0.3,0.5,0.7,0.5,1.2c0,0.6-0.3,1.1-1,1.6c-0.6,0.4-1.5,0.6-2.6,0.6c-0.8,0-1.4-0.1-1.8-0.3
	c-0.5-0.2-0.8-0.5-1.1-0.8c-0.3-0.3-0.5-0.8-0.7-1.3c-0.2-0.5-0.5-0.8-0.7-1.1c-0.3-0.3-0.7-0.4-1.1-0.4c-0.5,0-1,0.2-1.3,0.5
	c-0.4,0.3-0.5,0.7-0.5,1.2c0,0.7,0.3,1.5,0.8,2.3c0.5,0.8,1.2,1.4,2.1,1.8c1.2,0.6,2.7,0.9,4.5,0.9c1.5,0,2.9-0.2,4-0.7
	c1.1-0.5,2-1.1,2.6-1.9C23,20.8,23.3,19.9,23.3,18.8z"/>
</svg>
