<svg xmlns="http://www.w3.org/2000/svg" width="874.285" height="491.793" viewBox="0 0 874.285 491.793">
    <g id="Сгруппировать_14" data-name="Сгруппировать 14" transform="translate(-0.425)">
        <path id="Контур_1" data-name="Контур 1" d="M487.536,475.29a.313.313,0,0,0-.411-.269,13.5,13.5,0,0,1-4.786.949c0-.048.012-.091.013-.139.014-.4-.6-.349-.615.044-.2,5.725-7.567,8.566-11.858,10.21-1.867.715-4.325,1.23-5.9,2.5a2.633,2.633,0,0,0-1.264,2.919.313.313,0,0,0,.33.285c7.308-.485,25.175-2.782,25.386-3.006.557-.594.359-2.009.368-2.748A56.4,56.4,0,0,0,487.536,475.29Z" fill="#2f2f2f"/>
        <path id="Контур_2" data-name="Контур 2" d="M.564,15.193,9.182,50.939A7.472,7.472,0,0,0,16.5,56.972h99.963a7.458,7.458,0,0,0,7.321-8.884l-8.619-35.746a7.472,7.472,0,0,0-7.321-6.033H7.884a7.457,7.457,0,0,0-7.32,8.884Z" fill="#b1ebe7"/>
        <path id="Контур_3" data-name="Контур 3" d="M134.429,426.384H575.623L518.035,130.769H76.841Z" fill="#222"/>
        <path id="Контур_4" data-name="Контур 4" d="M562.924,407.2,140.989,408.9l-52.5-269.49,76.49-.306,80.906-.324,264.539-1.064,37.869,194.406,5.8,29.746Z" fill="#dbdbdb"/>
        <path id="Контур_5" data-name="Контур 5" d="M547.11,326.068c-53.875-34.012-301.309-159.889-301.285-166.6q.036-10.346.06-20.692.045-12.518.078-25.042.072-24.657.151-49.3l-85.767.162a8.116,8.116,0,0,0-7.961,9.6L164.979,139.1l18.055,93.072,3.449,17.76,20.541,105.882H552.908Z" fill="#bababa"/>
        <path id="Контур_6" data-name="Контур 6" d="M356.2,388.031H183.01a7.584,7.584,0,0,1-7.442-6.123L154.514,272.952a8.116,8.116,0,0,1,7.961-9.6l85.766-.162q-.072,24.648-.15,49.3c-.048,15.243,112.755,29.043,112.707,44.286-.01,2.524.456,8.406,2.878,22.369A7.586,7.586,0,0,1,356.2,388.031Z" fill="#444"/>
        <path id="Контур_7" data-name="Контур 7" d="M283.785,249.9l-97.3.036-3.449-17.76,92.748-.018.1.733A56.971,56.971,0,0,0,283.785,249.9Z" fill="#69b8b3"/>
        <path id="Контур_8" data-name="Контур 8" d="M737.082,439.779H136.675L130.9,405.641H731.3Z" fill="#222"/>
        <path id="Контур_9" data-name="Контур 9" d="M351.376,439.779h-214.7L130.9,405.641H345.6Z" fill="#494949"/>
        <path id="Контур_10" data-name="Контур 10" d="M687.8,336.03h-466.2l-14.414-73.978-.1-.547L164.006,40.416h466.2l9.733,49.964,14.624,75.072,1.79,9.18.114.6Z" fill="#6bc1b9"/>
        <path id="Контур_11" data-name="Контур 11" d="M541.716,206.075l24.29,129.955h64.612a15.043,15.043,0,0,0,.871-1.983c2.277-6.29,2.83-13.464,3.244-20.091.469-7.522.4-15.074.421-22.609q.072-22.863.138-45.734.072-24.657.15-49.3l-85.767.162A8.113,8.113,0,0,0,541.716,206.075Z" fill="#7b7b7b"/>
        <path id="Контур_12" data-name="Контур 12" d="M600.484,360.587H857.319a17.385,17.385,0,0,0,17.064-20.709l-32.067-164.61H550.057L583.42,346.526A17.384,17.384,0,0,0,600.484,360.587Z" fill="#ededed"/>
        <path id="Контур_13" data-name="Контур 13" d="M626.645,213.141H615.256l1.407,7.222h11.389Z" fill="#69b8b3"/>
        <path id="Контур_14" data-name="Контур 14" d="M630.8,232.886H619.412l1.407,7.222h11.389Z" fill="#69b8b3"/>
        <path id="Контур_15" data-name="Контур 15" d="M635.094,252.881H623.705l1.407,7.222H636.5Z" fill="#69b8b3"/>
        <path id="Контур_16" data-name="Контур 16" d="M639.1,272.69H627.712l1.407,7.222h11.389Z" fill="#69b8b3"/>
        <path id="Контур_17" data-name="Контур 17" d="M643.507,294.62H632.118l1.407,7.222h11.389Z" fill="#69b8b3"/>
        <g id="Сгруппировать_1" data-name="Сгруппировать 1">
            <path id="Контур_18" data-name="Контур 18" d="M288.057,83.039H277.321l1.326,6.808h10.736Z" fill="#fff"/>
            <path id="Контур_19" data-name="Контур 19" d="M293.093,109.036H282.357l1.326,6.808h10.736Z" fill="#fff"/>
            <path id="Контур_20" data-name="Контур 20" d="M298.049,134.728H287.313l1.326,6.808h10.736Z" fill="#fff"/>
            <path id="Контур_21" data-name="Контур 21" d="M303.04,159.524H292.3l1.326,6.808h10.736Z" fill="#fff"/>
            <path id="Контур_22" data-name="Контур 22" d="M308.138,185.749H297.4l1.326,6.808h10.736Z" fill="#fff"/>
            <path id="Контур_23" data-name="Контур 23" d="M312.858,210.544H302.122l1.326,6.808h10.736Z" fill="#fff"/>
            <path id="Контур_24" data-name="Контур 24" d="M317.988,236.236H307.253l1.326,6.808h10.736Z" fill="#fff"/>
        </g>
        <path id="Контур_25" data-name="Контур 25" d="M301.521,336.03h-.607L245.663,40.416h.607Z" fill="#69b8b3"/>
        <path id="Контур_26" data-name="Контур 26" d="M232.219,68.053l-44.732.135,1.326,6.808,44.731-.135Z" fill="#fff"/>
        <path id="Контур_27" data-name="Контур 27" d="M230.981,120.436l-32.816.212,1.326,6.808,32.816-.212Z" fill="#fff"/>
        <path id="Контур_28" data-name="Контур 28" d="M235.314,84.611l-44.732.135,1.326,6.808,44.731-.135Z" fill="#fff"/>
        <path id="Контур_29" data-name="Контур 29" d="M211.57,102.483l-17.893-.1L195,109.195l17.893.1Z" fill="#fff"/>
        <path id="Контур_30" data-name="Контур 30" d="M241.511,140.585l-17.893-.1,1.326,6.808,17.893.1Z" fill="#fff"/>
        <path id="Контур_31" data-name="Контур 31" d="M245.116,159.21l-17.893-.1,1.326,6.808,17.893.1Z" fill="#fff"/>
        <path id="Контур_32" data-name="Контур 32" d="M249.522,179.838l-17.893-.1,1.326,6.808,17.893.1Z" fill="#fff"/>
        <path id="Контур_33" data-name="Контур 33" d="M253.677,199.315l-17.893-.1,1.326,6.808,17.893.1Z" fill="#fff"/>
        <path id="Контур_34" data-name="Контур 34" d="M258.033,219.893l-17.893-.1,1.326,6.808,17.893.1Z" fill="#fff"/>
        <path id="Контур_35" data-name="Контур 35" d="M341.775,82.99l-43.437-.345,1.326,6.808L343.1,89.8Z" fill="#fff"/>
        <path id="Контур_36" data-name="Контур 36" d="M422.632,158.122l-17.893-.1,1.326,6.808,17.893.1Z" fill="#fff"/>
        <path id="Контур_37" data-name="Контур 37" d="M380.891,133.516,363,133.42l1.326,6.808,17.893.1Z" fill="#fff"/>
        <path id="Контур_38" data-name="Контур 38" d="M493.121,83.3l-17.893-.1,1.326,6.808,17.893.1Z" fill="#fff"/>
        <path id="Контур_39" data-name="Контур 39" d="M390.53,83.108,351.524,83l1.326,6.808,39.006.107Z" fill="#fff"/>
        <path id="Контур_40" data-name="Контур 40" d="M378.393,184.033,354,183.9l1.326,6.808,24.392.135Z" fill="#fff"/>
        <path id="Контур_41" data-name="Контур 41" d="M364.465,234.951l-24.393-.135,1.326,6.808,24.392.135Z" fill="#fff"/>
        <path id="Контур_42" data-name="Контур 42" d="M433.551,184.189l-43.029-.291,1.326,6.808,43.029.291Z" fill="#fff"/>
        <path id="Контур_43" data-name="Контур 43" d="M492.754,157.8l-58.747.1,1.326,6.808,58.747-.1Z" fill="#fff"/>
        <path id="Контур_44" data-name="Контур 44" d="M403.617,208.716l-74.368.1,1.326,6.808,74.368-.1Z" fill="#fff"/>
        <path id="Контур_45" data-name="Контур 45" d="M394.321,158.007l-39.006-.107,1.326,6.808,39.006.107Z" fill="#fff"/>
        <path id="Контур_46" data-name="Контур 46" d="M395.755,108.1l-39.006-.107,1.326,6.808,39.006.107Z" fill="#fff"/>
        <path id="Контур_47" data-name="Контур 47" d="M720.114,213.235l-68.4-.112,1.386,7.112,68.4.112Z" fill="#69b8b3"/>
        <path id="Контур_48" data-name="Контур 48" d="M700.551,252.283l-42.691-.112,1.386,7.112,42.691.112Z" fill="#69b8b3"/>
        <path id="Контур_49" data-name="Контур 49" d="M674.961,232.078l-20.865-.112,1.386,7.112,20.865.112Z" fill="#69b8b3"/>
        <path id="Контур_50" data-name="Контур 50" d="M752.287,212.821l-21.026.06,1.386,7.112,21.026-.06Z" fill="#69b8b3"/>
        <path id="Контур_51" data-name="Контур 51" d="M742.316,272.161l-81.007-.112,1.386,7.112,81.007.112Z" fill="#69b8b3"/>
        <path id="Контур_52" data-name="Контур 52" d="M774.489,271.747l-21.026.06,1.386,7.112,21.026-.06Z" fill="#69b8b3"/>
        <path id="Контур_53" data-name="Контур 53" d="M735.472,252.031l-21.026.06,1.386,7.112,21.026-.06Z" fill="#69b8b3"/>
        <path id="Контур_54" data-name="Контур 54" d="M710.164,293.84l-42.691-.112,1.386,7.112,42.691.112Z" fill="#69b8b3"/>
        <path id="Контур_55" data-name="Контур 55" d="M769.8,293.43l-45.744.217,1.386,7.112,45.744-.217Z" fill="#69b8b3"/>
        <path id="Контур_56" data-name="Контур 56" d="M707.619,231.5l-21.026.06,1.386,7.112,21.026-.06Z" fill="#69b8b3"/>
        <path id="Контур_57" data-name="Контур 57" d="M466.195,83.116l-64.067.117,1.326,6.808,64.067-.117Z" fill="#fff"/>
        <path id="Контур_58" data-name="Контур 58" d="M550.724,175.72l30.648,160.23h-.613l-30.7-160.488a.288.288,0,0,1,.163-.313h.012a.352.352,0,0,1,.192-.03l105.93-.475.114.6Z" fill="#f3edea"/>
        <path id="Контур_59" data-name="Контур 59" d="M367.887,373.1H202.3a14.02,14.02,0,0,1-13.762-11.339L168.1,256.838l-1.328-6.807-.006-.042H360.918l1.214,6.237L381.649,356.4A14.02,14.02,0,0,1,367.887,373.1Z" fill="#dbdbdb"/>
        <path id="Контур_60" data-name="Контур 60" d="M378.321,336.188h-.607l-16.832-86.319-156.08.066-.1-.547,156.225-.066a.414.414,0,0,1,.2.03h.012a.445.445,0,0,1,.294.283Z" fill="#f3edea"/>
        <g id="Сгруппировать_2" data-name="Сгруппировать 2">
            <path id="Контур_61" data-name="Контур 61" d="M616.006,64.894h6.627c2.285,0,3.742-1.485,3.3-3.728l-1-5.4a3.632,3.632,0,0,0-3.566-2.939l-6.2.045c-2.286,0-3.527,1.305-3.09,3.549l1.088,5.851C613.5,63.977,614.267,64.894,616.006,64.894Z" fill="#c4b4b4"/>
            <path id="Контур_62" data-name="Контур 62" d="M624.09,62.719l-4.039-4.055,3.034-3.688h-2.248l-2.017,2.452-2.467-2.477-2.4.05,3.759,3.774-3.265,3.97h2.248l2.249-2.734,2.748,2.759Z" fill="#e4dddd"/>
        </g>
        <g id="Сгруппировать_3" data-name="Сгруппировать 3">
            <path id="Контур_63" data-name="Контур 63" d="M596.976,65.423h5.635a3.634,3.634,0,0,0,3.567-4.329l-.929-4.8a3.633,3.633,0,0,0-3.566-2.939h-5.636a3.634,3.634,0,0,0-3.567,4.328l.929,4.8A3.634,3.634,0,0,0,596.976,65.423Z" fill="#c4b4b4"/>
            <path id="Контур_64" data-name="Контур 64" d="M603.793,63.316l.932-.034L603.382,55.3l-1.787.02,0,.013-7.222.118-.443,0v0h0v0l1.35,8.024,1.784-.034,0-.011,5.879-.1v.005l.266-.009.584-.01Zm-7.023-1.639-.755-4.49,5.879-.1.755,4.491Z" fill="#e4dddd"/>
        </g>
        <g id="Сгруппировать_4" data-name="Сгруппировать 4">
            <path id="Контур_65" data-name="Контур 65" d="M349.086,272.9h6.627c2.286,0,3.742-1.485,3.3-3.728l-1-5.4a3.634,3.634,0,0,0-3.567-2.939l-6.2.045c-2.286,0-3.527,1.3-3.09,3.548l1.089,5.851C346.582,271.982,347.347,272.9,349.086,272.9Z" fill="#c4b4b4"/>
            <path id="Контур_66" data-name="Контур 66" d="M357.17,270.724l-4.039-4.056,3.034-3.688h-2.248l-2.017,2.452-2.467-2.477-2.4.05,3.759,3.774-3.265,3.97h2.248l2.249-2.734,2.748,2.759Z" fill="#f3edea"/>
        </g>
        <g id="Сгруппировать_5" data-name="Сгруппировать 5">
            <path id="Контур_67" data-name="Контур 67" d="M330.056,273.428h5.635a3.634,3.634,0,0,0,3.567-4.329l-.928-4.8a3.634,3.634,0,0,0-3.567-2.939h-5.636a3.634,3.634,0,0,0-3.567,4.328l.929,4.8A3.634,3.634,0,0,0,330.056,273.428Z" fill="#c4b4b4"/>
            <path id="Контур_68" data-name="Контур 68" d="M336.873,271.321l.932-.034-1.343-7.986-1.786.021,0,.013-7.222.118-.443.005v0h0v0l1.35,8.024,1.784-.034,0-.011,5.879-.1v.005l.266-.01.585-.009Zm-7.023-1.639-.755-4.491,5.879-.1.755,4.49Z" fill="#f3edea"/>
        </g>
        <g id="Сгруппировать_6" data-name="Сгруппировать 6">
            <path id="Контур_69" data-name="Контур 69" d="M828.072,202.262H834.7c2.286,0,3.743-1.484,3.306-3.727l-1-5.4a3.634,3.634,0,0,0-3.567-2.939l-6.2.045c-2.286,0-3.527,1.3-3.09,3.548l1.089,5.851C825.568,201.346,826.333,202.262,828.072,202.262Z" fill="#c4b4b4"/>
            <path id="Контур_70" data-name="Контур 70" d="M836.156,200.088l-4.039-4.056,3.034-3.688H832.9l-2.017,2.452-2.467-2.477-2.4.05,3.759,3.774-3.265,3.97h2.248l2.249-2.734,2.748,2.759Z" fill="#f3edea"/>
        </g>
        <g id="Сгруппировать_7" data-name="Сгруппировать 7">
            <path id="Контур_71" data-name="Контур 71" d="M809.042,202.792h5.636a3.634,3.634,0,0,0,3.566-4.329l-.928-4.8a3.634,3.634,0,0,0-3.567-2.939h-5.636a3.634,3.634,0,0,0-3.566,4.329l.928,4.8A3.634,3.634,0,0,0,809.042,202.792Z" fill="#c4b4b4"/>
            <path id="Контур_72" data-name="Контур 72" d="M815.859,200.684l.932-.033-1.343-7.986-1.786.02,0,.013-7.221.119-.443.005v0h0v0l1.349,8.024,1.784-.034,0-.011,5.879-.1v0l.266-.01.585-.009Zm-7.023-1.639-.755-4.49,5.879-.1.755,4.49Z" fill="#f3edea"/>
        </g>
        <path id="Контур_73" data-name="Контур 73" d="M362.558,256.224h-.427l-132.918.421-61.115.192-1.328-6.807,13.206-.042,55.738-.174,125.523-.4Z" fill="#fff"/>
        <path id="Контур_74" data-name="Контур 74" d="M631.537,47.092h-.427l-266.186.09-199.507.072-1.328-6.807L177.3,40.4l195.92-.054,257-.066Z" fill="#4f4f4f"/>
        <path id="Контур_75" data-name="Контур 75" d="M843.649,182.065l-95.668-.024L616.469,182l-64.9-.018-1.328-6.807,13.206-.042,56.393.024,137.683.066,84.979.042Z" fill="gray"/>
        <g id="Сгруппировать_8" data-name="Сгруппировать 8">
            <path id="Контур_76" data-name="Контур 76" d="M214.31,288.143H202.921l1.407,7.222h11.389Z" fill="#fff"/>
            <path id="Контур_77" data-name="Контур 77" d="M218.366,306.986H206.977l1.407,7.222h11.389Z" fill="#fff"/>
            <path id="Контур_78" data-name="Контур 78" d="M222.459,325.179H211.07l1.407,7.222h11.389Z" fill="#fff"/>
            <path id="Контур_79" data-name="Контур 79" d="M307.779,288.237l-68.4-.112,1.386,7.112,68.4.112Z" fill="#fff"/>
            <path id="Контур_80" data-name="Контур 80" d="M311.347,324.582l-66.123-.112,1.386,7.112,66.122.112Z" fill="#fff"/>
            <path id="Контур_81" data-name="Контур 81" d="M289.362,306.178l-47.3-.112,1.386,7.112,47.3.112Z" fill="#fff"/>
            <path id="Контур_82" data-name="Контур 82" d="M339.952,287.823l-21.027.06,1.386,7.112,21.026-.06Z" fill="#fff"/>
            <path id="Контур_83" data-name="Контур 83" d="M346.269,324.329l-21.027.06,1.386,7.112,21.026-.06Z" fill="#fff"/>
            <path id="Контур_84" data-name="Контур 84" d="M322.02,305.6l-21.026.06,1.386,7.112,21.026-.06Z" fill="#fff"/>
        </g>
        <path id="Контур_85" data-name="Контур 85" d="M498.54,256.139a129.039,129.039,0,0,0-12.46-13.956c-4.1-4.122-9.566-8.124-11.614-13.765-1.707-4.705.462-10.821-3.076-14.852-2.169-2.476-5.846-3.707-8.724-5.119q-5.308-2.624-10.665-5.155a.3.3,0,0,0-.438.342c1.814,12.942,3.088,27.992-6.5,38.392a.308.308,0,0,0,.216.517l26.412,2.65c-11.3,6.8-25.282,4.674-36.6-1.058a58.207,58.207,0,0,1-15.29-10.766,33.219,33.219,0,0,1-5.438-7.312,46.268,46.268,0,0,0-4.32-7.246c-2.824-3.455-8.9-5.9-12.334-1.857-.247.289.174.715.426.421.048-.06.1-.108.156-.168,1.8,9.685,4,19.112,10.412,26.892,5.84,7.084,13.627,12.623,18.139,20.764,2.608,4.711,3.737,10.022,4.734,15.261a116.643,116.643,0,0,0,3.786,15.453,81.07,81.07,0,0,0,14.509,25.745c4.02,4.861,8.454,9.553,12.131,14.708h9.258c1.3-.054,2.59-.036,3.888,0,1.442.042,2.884.108,4.326.126a47.113,47.113,0,0,0,5.13-.126c3.623-.342,7.306-1.472,7.685-4.993.39-3.635.318-7.378.469-11.025q.234-5.641.462-11.289l.919-22.567c.151-3.647-.12-7.72,1.25-11.175,1.286-3.256,5.774-6.339,8.874-3.3a.307.307,0,0,0,.517-.211C504.5,265.765,501.881,260.664,498.54,256.139Z" fill="#4c7c77"/>
        <path id="Контур_86" data-name="Контур 86" d="M552.556,471.084a.312.312,0,0,0-.422-.25,13.479,13.479,0,0,1-4.739,1.159c0-.048.007-.092.007-.14,0-.4-.616-.322-.613.072.057,5.727-7.182,8.891-11.4,10.723-1.834.8-4.266,1.419-5.787,2.761a2.631,2.631,0,0,0-1.133,2.972.312.312,0,0,0,.342.27c7.279-.807,25.028-3.89,25.228-4.123.531-.618.271-2.023.247-2.761A56.421,56.421,0,0,0,552.556,471.084Z" fill="#2f2f2f"/>
        <path id="Контур_87" data-name="Контур 87" d="M554.338,473.485a.344.344,0,0,1-.324.378c-2.211.138-6.327.625-8.538.763a.412.412,0,0,1-.366-.264c-1.088-2.271-2.331-8.886-3.395-11.169-2.926-6.267-8.718-7.625-11.139-14.071-2.986-7.943-7.366-22.922-12.082-41.343-4.26-16.666-2.211-44.532-3.035-49.23-2.036,5.912-7.281,20.83-8.952,36.637-2.5,23.7-4.175,62.587-12.863,68.4-2.325,1.556-4.11,11.2-4.879,13.933a.346.346,0,0,1-.318.277,40.765,40.765,0,0,1-4.687.2c-.2-.006-.4-.006-.606-.018-.932-.03-1.863-.09-2.8-.186-.211-.018-.457-.2-.391-.445,1.556-5.479-.306-11.139-1.406-16.7-1.087-5.539-1.832-62.136-1.346-67.6,2.23-25.048,4.789-48.323,10.184-89.575,3.563-.066,7.048-.265,10.5-.529.2-.012.408-.03.612-.042,7.835-.619,15.513-1.568,23.594-2.091a43.118,43.118,0,0,1,7.8.138c4.963,6.8,11.259,20.68,12.335,26.917,3.641,21.185-1.166,49.4,2.259,78.118C547.146,428.207,554.585,451.315,554.338,473.485Z" fill="#69b8b3"/>
        <path id="Контур_88" data-name="Контур 88" d="M533.815,342.917a123.053,123.053,0,0,0-16.244,14.509c-.264.282.16.708.425.425a122.146,122.146,0,0,1,16.123-14.415C534.425,343.208,534.126,342.686,533.815,342.917Z" fill="#38605c"/>
        <path id="Контур_89" data-name="Контур 89" d="M498.5,302.9a.076.076,0,0,1-.006.036c-2.277,13.41-4.344,26.857-6.062,40.351a627,627,0,0,0-5.3,72.29c-.24,20.818.433,41.883-3.371,62.419-.2-.006-.4-.006-.606-.018a211.034,211.034,0,0,0,3.094-33.009c.312-11.728.12-23.468.378-35.2.259-12.016.938-24.014,1.953-35.989,2.007-23.738,5.329-47.356,9.313-70.836.006-.054.018-.1.024-.156C497.982,302.414,498.529,302.547,498.5,302.9Z" fill="#38605c"/>
        <path id="Контур_90" data-name="Контур 90" d="M424.723,235.907c-1.563-1.021-6.465-5.234-6.721-7.05.179-2.192.654-4.342-.073-6.552-1.1-3.355-2.424-6.654-3.638-9.971-.229-.627-.4-1.539-1.225-1.487-.836.054-.916.976-.9,1.632.031,1.708.5,3.4.618,5.11.057.8.082,1.6.1,2.4-.125-.591-.241-1.13-.349-1.63-.241,1.286-1.291,2-2.7,3.077-2.459,1.873-4.212,4.69-7.036,6.033a13.335,13.335,0,0,0,4.236,5c1.579,1.242,5.1,2.737,6.86,3.716,2,1.116,6.544,5.477,8.489,6.685a.281.281,0,0,0,.4-.175c.5-1.53,1.465-4.572,2-6.091a.29.29,0,0,0,.108-.316l.021-.062A.235.235,0,0,0,424.723,235.907Z" fill="#fff"/>
        <g id="Сгруппировать_9" data-name="Сгруппировать 9">
            <path id="Контур_91" data-name="Контур 91" d="M412.971,218.934a.316.316,0,0,0-.007-.342,51.825,51.825,0,0,1-4.956-10.234c-.251-.716-1.321-5.3-2.883-4.012-.683.56-.372,2.038-.255,2.758a21.368,21.368,0,0,0,1.677,4.881,59.616,59.616,0,0,0,4.778,9.439.361.361,0,0,0,.617-.014l1.326-.786C413.583,222.07,412.992,219.009,412.971,218.934Z" fill="#fff"/>
            <path id="Контур_92" data-name="Контур 92" d="M411.2,222.309a84.739,84.739,0,0,1-6.592-12.981c-.251-.715-1.321-5.295-2.884-4.012-.682.561-.371,2.039-.254,2.759a21.343,21.343,0,0,0,1.677,4.88,100.773,100.773,0,0,0,6.414,12.185.36.36,0,0,0,.617-.014l1.012-2.231a.354.354,0,0,0,.017-.244A.318.318,0,0,0,411.2,222.309Z" fill="#fff"/>
            <path id="Контур_93" data-name="Контур 93" d="M409.523,225.855a84.859,84.859,0,0,1-7.226-12.638c-.286-.7-1.581-5.224-3.078-3.864-.654.593-.271,2.054-.118,2.767a21.383,21.383,0,0,0,1.916,4.792,100.8,100.8,0,0,0,7.01,11.852.36.36,0,0,0,.615-.044l.9-2.278a.349.349,0,0,0,.005-.246A.314.314,0,0,0,409.523,225.855Z" fill="#fff"/>
            <path id="Контур_94" data-name="Контур 94" d="M398.062,214.64c-.654.593-.27,2.054-.118,2.767a21.383,21.383,0,0,0,1.916,4.792c.757,1.556,1.951,3.741,3.219,5.9a8.2,8.2,0,0,1,2.2-1.781,64.7,64.7,0,0,1-4.138-7.816C400.854,217.8,399.559,213.28,398.062,214.64Z" fill="#fff"/>
        </g>
        <path id="Контур_95" data-name="Контур 95" d="M478.788,217.71c-1.391-1.246-5.127-5.816-5.384-7.632-.344-2.417-.556-3.236-.784-4.33-.681-3.191-1.911-5.14-2.841-8.213-.062.659-.2,1.995-.292,2.652-.034-.6-.067-1.154-.1-1.665-.433,1.236.184-1.121-1.374-.271a71.929,71.929,0,0,1-10.73,4.843,32.288,32.288,0,0,0,4.53,8.54c1.373,1.466,4.631,3.478,6.218,4.712,1.809,1.405,5.64,6.4,7.38,7.892a.28.28,0,0,0,.426-.112c.73-1.436,2.14-4.3,2.9-5.718a.288.288,0,0,0,.154-.295l.031-.059A.235.235,0,0,0,478.788,217.71Z" fill="#fff"/>
        <g id="Сгруппировать_10" data-name="Сгруппировать 10">
            <path id="Контур_96" data-name="Контур 96" d="M468.026,201.1a.316.316,0,0,1-.241-.242,51.838,51.838,0,0,0-3.938-10.668c-.341-.677-2.9-4.624-.891-4.86.877-.1,1.726,1.146,2.164,1.73a21.368,21.368,0,0,1,2.354,4.592,59.582,59.582,0,0,1,3.487,9.988c.056.243-.174.529-.438.435l-1.486.411C469.861,203.716,468.066,201.167,468.026,201.1Z" fill="#fff"/>
            <path id="Контур_97" data-name="Контур 97" d="M464.894,202.185a84.892,84.892,0,0,0-5.487-13.486c-.376-.658-3.134-4.467-1.141-4.807.87-.148,1.783,1.055,2.251,1.616a21.441,21.441,0,0,1,2.588,4.464,101.1,101.1,0,0,1,5,12.83.361.361,0,0,1-.415.457l-2.349-.7a.345.345,0,0,1-.2-.147A.315.315,0,0,1,464.894,202.185Z" fill="#fff"/>
            <path id="Контур_98" data-name="Контур 98" d="M461.019,202.642a84.866,84.866,0,0,0-5.447-13.5c-.374-.66-3.122-4.477-1.127-4.811.87-.145,1.78,1.061,2.246,1.622a21.385,21.385,0,0,1,2.574,4.473,100.7,100.7,0,0,1,4.964,12.844.36.36,0,0,1-.416.455l-2.346-.7a.351.351,0,0,1-.2-.148A.313.313,0,0,1,461.019,202.642Z" fill="#fff"/>
            <path id="Контур_99" data-name="Контур 99" d="M451.789,188.741c.868-.16,1.8,1.031,2.272,1.584a21.384,21.384,0,0,1,2.648,4.43c.779,1.545,2.786,6.381,3.737,8.7a8.206,8.206,0,0,0-2.75.669,115.457,115.457,0,0,0-4.7-10.591C452.61,192.878,449.8,189.107,451.789,188.741Z" fill="#fff"/>
        </g>
        <path id="Контур_100" data-name="Контур 100" d="M512.231,242.235c-2.538-4.344-6.239-8-9.738-11.578-3.4-3.469-7.112-6.769-11.545-8.848-4.809-2.256-11.175-3.444-13.913-8.445a2.349,2.349,0,0,0-.87-1.012c-2.648,2.335-5.081,4.614-7.849,6.79,2.09,2.844,3.886,6.272,4.038,9.809.139,3.246.4,6.2,2.231,8.977a36.547,36.547,0,0,0,6.44,6.73l6.79,6.109c-.6.167-2.58.7-3.613.949a.344.344,0,0,0-.03-.246l-.066-.126a.363.363,0,0,0-.407-.155c-.337.087-.4.163-.512.49a.362.362,0,0,0,.174.4c.649.455,1.407.144,2.144-.01.987-.2,1.962-.461,2.93-.742l1.364,1.226a.36.36,0,0,0,.589-.361q-.2-.672-.407-1.345c2.305-.756,4.558-1.665,6.79-2.612,4.985-2.116,9.927-4.366,15.259-5.469A.361.361,0,0,0,512.231,242.235Z" fill="#1f1f1f"/>
        <path id="Контур_101" data-name="Контур 101" d="M499.145,172.44a24.115,24.115,0,0,1-3.044-3.814,7.09,7.09,0,0,0-1.634-2.242,11.722,11.722,0,0,1,4.076-4.81,13.944,13.944,0,0,1,8.6-2.277c3.011.118,5.58,1.275,8.264,2.441a53.476,53.476,0,0,1,7.308,3.685c4.045,2.553,7.677,6.321,8.771,11.361.567,2.614.51,5.72-1.318,7.982a8.907,8.907,0,0,0-1.926,3.151c-.369,1.25-.47,2.554-.888,3.792-.893,2.646-3.569,3.808-5.691,5.313-.9.636-2.037,2.043-3.473,4.959-.738,1.5-1.915-1.075-3.505-.645a27.542,27.542,0,0,0-1.722-7.79,31.993,31.993,0,0,0-8.1-11.807,77.618,77.618,0,0,1-6.093-6.076c-.213-.253-.423-.509-.634-.763A1.513,1.513,0,0,0,499.145,172.44Z" fill="#b55b2f"/>
        <path id="Контур_102" data-name="Контур 102" d="M491.353,190.912a.2.2,0,0,0,.307-.083,74.183,74.183,0,0,0,3.045-13.488.2.2,0,0,0-.277-.2c-.02-.145-.177-.266-.307-.138a94.245,94.245,0,0,0-7.4,8.133C484.827,188.023,489.393,189.737,491.353,190.912Z" fill="#fff"/>
        <path id="Контур_103" data-name="Контур 103" d="M522.56,185.039a8.456,8.456,0,0,0-2.41-4.373,42.1,42.1,0,0,0-4.074-3.908c-5.756-4.828-13.923-9.063-21.3-10.443-.086-.017-.149-.055-.207-.021a.344.344,0,0,0-.164.231c-.079.255-.477,1.9-1.026,4.3-.255,1.115-.549,2.392-.854,3.777-1.093,4.865-2.416,11.016-3.292,15.765-.016.078-.025.149-.042.22-.008.036-.016.079-.025.114-.212,1.145-.393,2.2-.541,3.129-.018.114-.035.221-.053.327-.063.449-.125.862-.172,1.239-.717,5.7.04,7.456,2.424,9.27,2.72,2.067,9.411,1.548,12.438.214,6.053-2.661,11.367-4.214,13.041-5.008a9.485,9.485,0,0,0,4.215-3.844,14.88,14.88,0,0,0,1.687-4.9A19.806,19.806,0,0,0,522.56,185.039Z" fill="#fff"/>
        <path id="Контур_104" data-name="Контур 104" d="M492.2,181.859c-.225,1.35.146,2.537.829,2.651s1.418-.889,1.642-2.24-.146-2.536-.829-2.65S492.422,180.509,492.2,181.859Z"/>
        <path id="Контур_105" data-name="Контур 105" d="M501.838,198.531c4.67-2.38,10.721-4.392,15.619-6.333.324,11.559,2.015,23.119,1.2,34.667-4.807.576-10.85,1.151-15.6,2.042C503.549,218.787,502.274,208.66,501.838,198.531Z" fill="#fff"/>
        <path id="Контур_106" data-name="Контур 106" d="M509.015,189.149s-3.005,5.368-5.9,4" fill="none" stroke="#000" stroke-linecap="round" stroke-linejoin="round" stroke-width="2"/>
        <path id="Контур_107" data-name="Контур 107" d="M494.864,165.788s.115-.112.118-.116c.1-.082.076-.082.148-.191a3.849,3.849,0,0,1,1.618-.256,20.552,20.552,0,0,0,3.658-.272,12.808,12.808,0,0,1,5.79-.026,19.085,19.085,0,0,1,5.408,2.9c1.668,1.155,3.354,2.247,5.095,3.29a24.086,24.086,0,0,1,4.8,3.479,12.6,12.6,0,0,1,2.961,4.94c1.25,3.7,1.808,7.848.1,11.483-1.806,3.846-5.131,6.828-6.369,10.964a.169.169,0,0,1-.255.069c-2.517-1.5-3.14-4.524-3.483-7.213a18.074,18.074,0,0,0-1.146-5.157,10.618,10.618,0,0,0-2.777-3.725c-2.079-1.778-5.4-2.325-6.547-5.052a16.535,16.535,0,0,1-.766-4.295,12.568,12.568,0,0,0-1.273-4.048,13.18,13.18,0,0,0-7.432-6.231C494.582,166.2,494.8,165.919,494.864,165.788Z" fill="#b55b2f"/>
        <path id="Контур_108" data-name="Контур 108" d="M519.817,187.311a6.844,6.844,0,0,0-1.289-3.587,12.48,12.48,0,0,0-5.469-4.325,11.081,11.081,0,0,0-3.569-.526,13.151,13.151,0,0,0-1.418-3.435c-1.178-1.988-3.971-5.421-6.583-5.3a.363.363,0,0,0-.493.48c.005.012.009.023.015.035s.009.018.013.028a13.029,13.029,0,0,1,1.037,6.824c-.1,1.656-.606,3.725.06,5.314.558,1.331,1.9,2.11,3.074,2.829a10.379,10.379,0,0,1,3.207,2.724c.873,3.007-.339,5.987-1.014,8.945-.446,1.953-.891,3.923.406,5.538.445.555.471,1.386.909,1.89.532.612,1.723.324,2.411.352,1.528.061,3.041.3,4.562.438.6.055,2.005.447,2.564-.04.58-.5.424-2.211.55-2.816a9.406,9.406,0,0,1,1.628-3.58c1.4-1.953,3.355-3.609,4.367-5.825C526.492,189.535,523.1,187.813,519.817,187.311Z" fill="#b55b2f"/>
        <path id="Контур_109" data-name="Контур 109" d="M507.9,184.419a3.368,3.368,0,0,0-4.932,1.449l0,.013c-.906,1.795-1.846,5.006-.3,6.642,1.7,1.805,4.3-.726,5.312-2.074a5.819,5.819,0,0,0,.64-1.089C509.361,187.714,509.432,185.618,507.9,184.419Z" fill="#fff"/>
        <path id="Контур_110" data-name="Контур 110" d="M542.484,245.006c-.006.757-.012,1.508-.03,2.253-.09,4.326-2.415,27.95-3.34,35.467-.739,6.014-1.485,12.016-2.025,18.054-.066.715-18.415,2.536-27.506,2.74-4.506.1-9.228.18-13.963.511-1.844.012-3.7.036-5.533.072q-1.866.045-3.731.15c-1.514-6-3.791-11.86-4.53-18.031-.6-5.059-.193-10.171-.944-15.218-.228-1.55-1.219-7.492-1.622-9-27.751,3.846-20.656,3.407-25.685,3.263-8.219-.228-16.138-4.416-19.911-6.116-3.881-1.749-6.3-4.483-8.922-7.727-1.5-1.862-2.968-6.633-5.119-7.7-1.634-.811-5.545-3.095-5.906-3.425,1.851-3.244,3.623-6.531,5.408-9.817.03,0,.06-.006.1-.006,1.472.048,1.616,1.261,3.316,2.169a8.741,8.741,0,0,0,5.456,1.273c5.695-1.009,9.1-.078,14.768.956,7.282,1.333,12.094,2.181,17.646.7,5.521-1.466,9.523-6.958,14.545-9.535a81.191,81.191,0,0,1,16.361-6.033c2.427-.654,4.878-1.237,7.342-1.8.684-.156,1.369-.312,2.054-.463,6.706-1.5,19.2-.985,23.312-1.189.246-.012.463-.03.649-.048,4.482-.439,7.775.528,10.19,2.163a15.307,15.307,0,0,1,5.8,8.447v.006c.222.745.39,1.448.516,2.079A80.646,80.646,0,0,1,542.484,245.006Z" fill="#1f1f1f"/>
        <path id="Контур_111" data-name="Контур 111" d="M529.708,175.185a6.272,6.272,0,0,0-.192-1.324,1.8,1.8,0,0,1-.239-.519,1.442,1.442,0,0,1-.162-.645l-.006-.268c0-.04.006-.077.008-.116a3.171,3.171,0,0,0-.671-.515c2.244-2.311,1.19-6.494-.539-9.059a14.438,14.438,0,0,0-11.355-6.008,19.1,19.1,0,0,0-3.74.184c-1.6.229-3.241.81-4.747.013-1.088-.576-1.527-1.708-2.369-2.551a6.176,6.176,0,0,0-2.242-1.412,6,6,0,0,0-5.283.543c-1.731,1.105-2.294,2.617-2.843,4.477-.675,2.285-3.77,2.674-3.436,5.555a3.6,3.6,0,0,0,3.765,3.045l.007,0a.8.8,0,0,0,.37-.017l.032,0a.319.319,0,0,0,.319.2c4.111-.1,8.484,1.612,12.059,3.514s6.277,4.5,9.244,7.171c2.205,1.986,5.944,2.126,8.734,1.555,1.21-.247,2.631-.719,3.183-1.927a4.59,4.59,0,0,0,.334-1.153A1.4,1.4,0,0,1,529.708,175.185Z" fill="#b55b2f"/>
        <path id="Контур_112" data-name="Контур 112" d="M464.53,207.222c-1.43-1.685-3.144-1.482-4.871-.5a46.493,46.493,0,0,1-3.871-3.5c-.762-.917-1.477-2.425-2.565-3.008a1.416,1.416,0,0,0-1.928.363c-.514.769-.033,1.69.347,2.378.926,1.673,1.959,3.294,2.936,4.937a15.039,15.039,0,0,0,2.724,3.994,9.076,9.076,0,0,0,3.765,1.6,19.811,19.811,0,0,1,7.739,3.545c.215.174-1.34-2.261-1.382-2.547A15.447,15.447,0,0,0,464.53,207.222Z" fill="#fff"/>
        <path id="Контур_113" data-name="Контур 113" d="M567.46,236.457a5.071,5.071,0,0,0-3.425-2.367,23.4,23.4,0,0,0-5.419-.3l-7.618.018q-14.952.027-29.9.048c-2.187.006-4.56-.144-6.885-.072-.5.012-1,.042-1.5.084a16.378,16.378,0,0,0-4.7.98,4.784,4.784,0,0,0-2.932,3.55c-.156,0-2.391,20.1-3.388,30.035q-.748,7.463-1.49,14.93c-.445,4.5-1.16,9.049-1.25,13.591-.06,3.214.715,6.7,3.833,8.381,2.109,1.142,5.083,1.424,7.883,1.466.24.006.481.006.721.006,1.418,0,2.77-.048,3.911-.06,4.873-.048,30-.589,34.433-.444,4.548.15,5.936-.078,8.976-1.935s3.2-3.761,3.845-7.3c1.5-8.183,3.425-27.674,4.573-41.823.012-.2.03-.408.048-.613.456-5.671.781-10.43.9-13.151C568.139,239.839,568.3,237.995,567.46,236.457Z" fill="#414141"/>
        <path id="Контур_114" data-name="Контур 114" d="M521.822,244.8a48.61,48.61,0,0,1-6.056,2.355,90.018,90.018,0,0,0-6.873-15.843,59.637,59.637,0,0,0-5.534-8.165,27.5,27.5,0,0,0-4.7-4.939c-2.464.565-4.915,1.148-7.342,1.8,2.313,1.442,4.175,3.9,5.785,5.954a59.7,59.7,0,0,1,5.456,8.334,89.474,89.474,0,0,1,6.212,14.5c-.5.078-1,.156-1.514.216-.378.048-.384.649,0,.6.571-.072,1.142-.157,1.707-.247.348,1.034.679,2.073,1,3.113a.3.3,0,0,0,.577-.163c-.313-1.015-.643-2.036-.98-3.046a50.383,50.383,0,0,0,5.822-1.37c.307.92.6,1.845.89,2.776a.3.3,0,0,0,.576-.162c-.288-.931-.582-1.863-.895-2.794a48.63,48.63,0,0,0,6.176-2.4C522.477,245.151,522.17,244.634,521.822,244.8Z" fill="#414141"/>
        <path id="Контур_115" data-name="Контур 115" d="M553.665,240.741a48.545,48.545,0,0,1-6.056,2.355,89.851,89.851,0,0,0-6.873-15.844c-.024-.042-.048-.09-.078-.132v-.006a59.808,59.808,0,0,0-5.456-8.027c-.114-.138-.222-.276-.342-.42-2.415-1.635-5.708-2.6-10.19-2.163-.186.018-.4.036-.649.048a29.292,29.292,0,0,1,4.921,5.353,59.682,59.682,0,0,1,5.455,8.333,89.517,89.517,0,0,1,6.213,14.5c-.505.078-1,.156-1.514.216-.379.048-.385.649,0,.6.57-.072,1.141-.156,1.706-.246.348,1.033.679,2.073,1,3.112a.3.3,0,0,0,.577-.162c-.312-1.016-.643-2.037-.979-3.046.36-.06.721-.133,1.081-.205,1.6-.312,3.178-.7,4.741-1.165.306.919.6,1.844.889,2.776a.3.3,0,0,0,.577-.163c-.289-.931-.583-1.862-.9-2.793a48.553,48.553,0,0,0,6.177-2.4C554.32,241.1,554.014,240.578,553.665,240.741Z" fill="#414141"/>
        <path id="Контур_116" data-name="Контур 116" d="M505.7,299.433c.475-1.988.991-3.964,1.476-5.946a11.716,11.716,0,0,1-11.859-2.277c-2.578-2.3-4.432-5.394-6.16-8.354a81.922,81.922,0,0,1-5.2-10.627c-.143-.353-4.871-10.525-4.726-10.166-.143-.354,1.6,16.276,1.743,16.635a82.865,82.865,0,0,0,5.813,11.7c1.941,3.225,4.091,6.608,7.251,8.774a11.869,11.869,0,0,0,11.521.918C505.606,299.872,505.649,299.652,505.7,299.433Z" fill="#414141"/>
        <path id="Контур_117" data-name="Контур 117" d="M567.178,254.631c-.018.205-.036.409-.048.613q-4.056.081-8.111.114c-6.243.048-12.485.012-18.728-.054q-4.605-.045-9.21-.114a21.534,21.534,0,0,1-6.591-.763c-4.4-1.478-4.987-5.449-4.981-9.565.006-2.577-.12-5.083-1.628-7.282a9.431,9.431,0,0,0-5.161-3.713c.492-.042,1-.072,1.5-.084a9.91,9.91,0,0,1,5.75,7.643c.33,2.457-.091,4.962.348,7.408a6.526,6.526,0,0,0,5.341,5.3,36.841,36.841,0,0,0,7.8.492c3.166.037,6.338.079,9.505.1C551.04,254.8,559.109,254.812,567.178,254.631Z" fill="#878787"/>
        <path id="Контур_118" data-name="Контур 118" d="M521.425,251.711c-1.357,12.131-2.613,24.28-4.073,36.4-.625,5.167-1.49,10.418-3.833,15.122a31.443,31.443,0,0,1-2.127,3.575c-.24,0-.481,0-.721-.006a30.2,30.2,0,0,0,3.563-6.765c1.784-4.879,2.319-10.094,2.89-15.219q1.846-16.563,3.7-33.135C520.867,251.3,521.468,251.327,521.425,251.711Z" fill="#878787"/>
        <path id="Контур_119" data-name="Контур 119" d="M488.237,220.932A102.25,102.25,0,0,0,475,226.776c-.342.181-.039.7.3.518a101.33,101.33,0,0,1,13.092-5.783C488.758,221.381,488.6,220.8,488.237,220.932Z" fill="#e0e0e0"/>
        <path id="Контур_120" data-name="Контур 120" d="M497.8,250.259a64.073,64.073,0,0,1-14.165,8.5c-.354.155-.048.672.3.519a64.629,64.629,0,0,0,14.287-8.6C498.529,250.444,498.1,250.021,497.8,250.259Z" fill="#e0e0e0"/>
        <path id="Контур_121" data-name="Контур 121" d="M526.874,185.266c-.666,1.645-2.665.689-3.9.526a8.825,8.825,0,0,0-2.407.063c-2.322.326-4.9,1.23-6.783-.705-2.053-2.1-2.218-5.581-5.024-7.023-.343-.177-.647.342-.3.519,3.409,1.751,3.017,7.2,7.069,8.2,2.329.576,4.653-.675,6.988-.5,1.716.128,4.052,1.268,4.936-.917C527.6,185.067,527.017,184.911,526.874,185.266Z" fill="#894020"/>
        <path id="Контур_122" data-name="Контур 122" d="M517.757,169.535a12.419,12.419,0,0,1-5.785-.906c-1.448-.614-2.671-1.653-4.189-2.1a.3.3,0,0,0-.16.58c1.729.512,3.142,1.764,4.854,2.367a13,13,0,0,0,5.28.663C518.141,170.109,518.144,169.508,517.757,169.535Z" fill="#894020"/>
        <path id="Контур_123" data-name="Контур 123" d="M421.179,237.454a1.5,1.5,0,0,0,0,3A1.5,1.5,0,0,0,421.179,237.454Z" fill="#c4c4c4"/>
        <path id="Контур_124" data-name="Контур 124" d="M639.942,90.38H612.894a10.165,10.165,0,0,0-9.956,8.207L590.207,153.37a10.144,10.144,0,0,0,9.955,12.082h54.4Z" fill="#c4b4b4"/>
        <path id="Контур_125" data-name="Контур 125" d="M769.289,82.26a10.112,10.112,0,0,0-7.829-3.693H625.511a10.163,10.163,0,0,0-9.957,8.205l-11.721,48.614a10.142,10.142,0,0,0,9.957,12.083h15.468L623.7,163.077l36.393-15.608h89.649a10.161,10.161,0,0,0,9.956-8.2L771.416,90.65A10.111,10.111,0,0,0,769.289,82.26Z" fill="#69b8b3"/>
        <path id="Контур_126" data-name="Контур 126" d="M4.169,8.885,12.787,44.63a7.472,7.472,0,0,0,7.321,6.034H86.026l26.76,11.476L108.7,50.664h11.374a7.459,7.459,0,0,0,7.321-8.885L118.773,6.033A7.472,7.472,0,0,0,111.452,0H11.489a7.458,7.458,0,0,0-7.32,8.885Z" fill="#69b8b3"/>
        <g id="Сгруппировать_11" data-name="Сгруппировать 11">
            <path id="Контур_127" data-name="Контур 127" d="M39.865,20.1l-17.893-.1L23.3,26.816l17.893.1Z" fill="#abe8e3"/>
            <path id="Контур_128" data-name="Контур 128" d="M110.661,20.1l-17.893-.1,1.326,6.808,17.893.1Z" fill="#abe8e3"/>
            <path id="Контур_129" data-name="Контур 129" d="M86.918,20.322l-39.006-.107,1.326,6.808,39.006.107Z" fill="#abe8e3"/>
        </g>
        <g id="Сгруппировать_12" data-name="Сгруппировать 12">
            <path id="Контур_130" data-name="Контур 130" d="M695.63,99.711l17.893-.1-1.326,6.808-17.893.1Z" fill="#abe8e3"/>
            <path id="Контур_131" data-name="Контур 131" d="M721.616,99.711l31.712-.1L752,106.423l-31.712.1Z" fill="#abe8e3"/>
            <path id="Контур_132" data-name="Контур 132" d="M624.834,99.711l17.893-.1-1.326,6.808-17.893.1Z" fill="#abe8e3"/>
            <path id="Контур_133" data-name="Контур 133" d="M648.578,99.929l39.006-.107-1.326,6.808-39.006.107Z" fill="#abe8e3"/>
        </g>
        <g id="Сгруппировать_13" data-name="Сгруппировать 13">
            <path id="Контур_134" data-name="Контур 134" d="M692.777,115.483l17.893-.1-1.326,6.808-17.893.1Z" fill="#abe8e3"/>
            <path id="Контур_135" data-name="Контур 135" d="M718.762,115.483l31.712-.1-1.326,6.808-31.712.1Z" fill="#abe8e3"/>
            <path id="Контур_136" data-name="Контур 136" d="M621.98,115.483l17.893-.1-1.326,6.808-17.893.1Z" fill="#abe8e3"/>
            <path id="Контур_137" data-name="Контур 137" d="M645.724,115.7l39.006-.107L683.4,122.4l-39.006.107Z" fill="#abe8e3"/>
        </g>
        <path id="Контур_138" data-name="Контур 138" d="M330.593,249.3,300.143,86.379h-.607l30.465,163Z" fill="#c2c2c2"/>
        <path id="Контур_139" data-name="Контур 139" d="M344.649,212.065,320.971,85.378h-.607l23.7,126.821C344.262,212.153,344.456,212.107,344.649,212.065Z" fill="#c2c2c2"/>
        <path id="Контур_140" data-name="Контур 140" d="M357.811,187.115,338.8,85.378h-.606L357.239,187.3Z" fill="#c2c2c2"/>
        <path id="Контур_141" data-name="Контур 141" d="M488.663,196.31s3.139.928,5.253-.186" fill="none" stroke="#000" stroke-linecap="round" stroke-linejoin="round" stroke-width="2"/>
        <path id="Контур_142" data-name="Контур 142" d="M492.132,176.947" fill="none" stroke="#b55b2f" stroke-miterlimit="10" stroke-width="1"/>
        <path id="Контур_143" data-name="Контур 143" d="M493.21,176.7a5.6,5.6,0,0,1,3.283,2.754" fill="none" stroke="#000" stroke-linecap="round" stroke-linejoin="round" stroke-width="2"/>
        <path id="Контур_144" data-name="Контур 144" d="M506.97,186.378a4.817,4.817,0,0,1-1.246,3.69" fill="none" stroke="#000" stroke-linecap="round" stroke-linejoin="round" stroke-width="2"/>
    </g>
</svg>
