<svg xmlns="http://www.w3.org/2000/svg" xmlns:xlink="http://www.w3.org/1999/xlink" width="225" height="225" viewBox="0 0 225 225">
    <defs>
        <clipPath id="clip-path">
            <rect id="Прямоугольник_1" data-name="Прямоугольник 1" width="225" height="225" transform="translate(145.5 -3)" fill="none"/>
        </clipPath>
    </defs>
    <g id="Сгруппировать_163" data-name="Сгруппировать 163" transform="translate(-145.5 3)">
        <g id="Сгруппировать_4" data-name="Сгруппировать 4">
            <g id="Сгруппировать_3" data-name="Сгруппировать 3">
                <g id="Сгруппировать_2" data-name="Сгруппировать 2">
                    <g id="Сгруппировать_1" data-name="Сгруппировать 1" clip-path="url(#clip-path)">
                        <path id="Контур_1" data-name="Контур 1" d="M291.834,53.418s4.156,3.9,1.679,10.41a13.4,13.4,0,0,1-6.674,7.472,47.271,47.271,0,0,1-3.61,13.895s-.882,2.9-4.492,6.884c0,0,0,11.8.42,13.6" fill="none" stroke="#000" stroke-linecap="round" stroke-linejoin="round" stroke-width="2"/>
                    </g>
                </g>
            </g>
        </g>
        <g id="Сгруппировать_8" data-name="Сгруппировать 8">
            <g id="Сгруппировать_7" data-name="Сгруппировать 7">
                <g id="Сгруппировать_6" data-name="Сгруппировать 6">
                    <g id="Сгруппировать_5" data-name="Сгруппировать 5" clip-path="url(#clip-path)">
                        <path id="Контур_2" data-name="Контур 2" d="M222.277,54.3s-3.988,5.667,1.511,12.888a10.777,10.777,0,0,0,5.331,4.113,62.23,62.23,0,0,0,9.739,21.913s.756,7.766.336,11.292" fill="none" stroke="#000" stroke-linecap="round" stroke-linejoin="round" stroke-width="2"/>
                    </g>
                </g>
            </g>
        </g>
        <g id="Сгруппировать_12" data-name="Сгруппировать 12">
            <g id="Сгруппировать_11" data-name="Сгруппировать 11">
                <g id="Сгруппировать_10" data-name="Сгруппировать 10">
                    <g id="Сгруппировать_9" data-name="Сгруппировать 9" clip-path="url(#clip-path)">
                        <path id="Контур_3" data-name="Контур 3" d="M293.471,20.759c-.42-4.2-.714-8.605-3.652-11.585-3.9-3.988-10.494-6.129-15.7-7.431-6.758-1.679-14.272-2.434-21.156-.629-1.721.462-3.358,1.469-5.08,1.889-1.469.378-3.19.126-4.7.294a19.782,19.782,0,0,0-9.865,3.442c-3.148,2.393-6.884,8.605-5.961,13.013-2.854-.84-6.128.755-8.059,3.148-3.316,4.156-3.233,9.781-2.015,14.734.755,3.149,1.973,6.171,2.9,9.319.966,3.317,1.134,6.885,2.309,10.117,1.175,3.19,3.736,5.289,4.869,8.521,1.176,3.317,7.724,17.127,9.068,20.36.209.5,15.112-5.667,25.228-6.759A63.733,63.733,0,0,0,275.3,76.044c3.484-1.176,6.758-2.519,8.983-5.709,4.785-6.8,8.689-13.181,9.571-21.325.588-5.373,1.3-10.7,1.679-16.077.21-2.519-.713-5.121-1.343-7.514A30.97,30.97,0,0,1,293.471,20.759Z"/>
                    </g>
                </g>
            </g>
        </g>
        <g id="Сгруппировать_16" data-name="Сгруппировать 16">
            <g id="Сгруппировать_15" data-name="Сгруппировать 15">
                <g id="Сгруппировать_14" data-name="Сгруппировать 14">
                    <g id="Сгруппировать_13" data-name="Сгруппировать 13" clip-path="url(#clip-path)">
                        <path id="Контур_4" data-name="Контур 4" d="M331.041,138.632s10.117,9.823,16.077,27.832,2.729,70.144,5.038,80.009c2.267,9.865-2.267,33.2-3.652,49.869-1.386,16.707-1.6,37.109-1.6,37.109l-24.264,2.476L304.091,180.358Z" fill="#69b8b3"/>
                    </g>
                </g>
            </g>
        </g>
        <g id="Сгруппировать_20" data-name="Сгруппировать 20">
            <g id="Сгруппировать_19" data-name="Сгруппировать 19">
                <g id="Сгруппировать_18" data-name="Сгруппировать 18">
                    <g id="Сгруппировать_17" data-name="Сгруппировать 17" clip-path="url(#clip-path)">
                        <path id="Контур_5" data-name="Контур 5" d="M286.713,68.7c-.966,8.521-2.645,16.833-8.144,23.087-6,6.759-12.845,10.495-19.562,10.621-4.407.084-8.983-1.6-12.8-3.61-7.766-4.114-11.292-11.334-14.188-19.268a101.281,101.281,0,0,1-4.03-15.7c-.966-5.037-1.679-10.116-2.267-15.2-.839-7.3-1.931-12.509,3.191-17.378,8.563-8.144,16.707-8.354,26.823-14.357a.321.321,0,0,1,.21-.084c1.427-.419,29.636,6.885,29.636,6.885.462.168,1.008,3.652,1.176,4.24.336,1.511.671,2.98.923,4.491.924,5.163.84,10.662,1.05,15.868C288.937,54.551,287.426,62.233,286.713,68.7Z" fill="#fff"/>
                    </g>
                </g>
            </g>
        </g>
        <g id="Сгруппировать_24" data-name="Сгруппировать 24">
            <g id="Сгруппировать_23" data-name="Сгруппировать 23">
                <g id="Сгруппировать_22" data-name="Сгруппировать 22">
                    <g id="Сгруппировать_21" data-name="Сгруппировать 21" clip-path="url(#clip-path)">
                        <path id="Контур_6" data-name="Контур 6" d="M243.77,57.112c-.042-2.309-1.47-3.736-2.729-2.477-.882.882-.965,2.771-.714,3.946.168.966.84,2.309,2.015,1.973C243.644,60.134,243.811,58.581,243.77,57.112Z"/>
                    </g>
                </g>
            </g>
        </g>
        <g id="Сгруппировать_28" data-name="Сгруппировать 28">
            <g id="Сгруппировать_27" data-name="Сгруппировать 27">
                <g id="Сгруппировать_26" data-name="Сгруппировать 26">
                    <g id="Сгруппировать_25" data-name="Сгруппировать 25" clip-path="url(#clip-path)">
                        <path id="Контур_7" data-name="Контур 7" d="M273.532,56.356c-.042-2.308-1.47-3.736-2.729-2.476-.881.881-.965,2.77-.713,3.946.167.965.839,2.308,2.014,1.973C273.364,59.379,273.532,57.826,273.532,56.356Z"/>
                    </g>
                </g>
            </g>
        </g>
        <g id="Сгруппировать_32" data-name="Сгруппировать 32">
            <g id="Сгруппировать_31" data-name="Сгруппировать 31">
                <g id="Сгруппировать_30" data-name="Сгруппировать 30">
                    <g id="Сгруппировать_29" data-name="Сгруппировать 29" clip-path="url(#clip-path)">
                        <path id="Контур_8" data-name="Контур 8" d="M300.817,124.612l-42.1,18.05-37.067-20.4s14.944-11.628,17.169-15.2c.042-.084.126-.168.168-.252a7.375,7.375,0,0,0,.63-2.644c.587-5.583-.966-16.287-.966-16.287L278.4,85.615s-.42,12.719.168,18.89a12.74,12.74,0,0,0,.5,2.812c0,.042.043.084.043.126C280.584,110.717,300.817,124.612,300.817,124.612Z" fill="#fff"/>
                    </g>
                </g>
            </g>
        </g>
        <g id="Сгруппировать_37" data-name="Сгруппировать 37">
            <g id="Сгруппировать_36" data-name="Сгруппировать 36">
                <g id="Сгруппировать_35" data-name="Сгруппировать 35">
                    <g id="Сгруппировать_34" data-name="Сгруппировать 34" clip-path="url(#clip-path)">
                        <g id="Сгруппировать_33" data-name="Сгруппировать 33">
                            <path id="Контур_9" data-name="Контур 9" d="M259.217,77.345h-.042c-1.343-.126-4.575-.5-5.163-1.973-1.049-2.6.8-13.265,1.007-14.482a.684.684,0,0,1,1.344.252c-.8,4.575-1.763,12.005-1.092,13.684.168.42,2.141.966,4.03,1.092a.7.7,0,0,1,.63.756A.756.756,0,0,1,259.217,77.345Z"/>
                        </g>
                    </g>
                </g>
            </g>
        </g>
        <g id="Сгруппировать_41" data-name="Сгруппировать 41">
            <g id="Сгруппировать_40" data-name="Сгруппировать 40">
                <g id="Сгруппировать_39" data-name="Сгруппировать 39">
                    <g id="Сгруппировать_38" data-name="Сгруппировать 38" clip-path="url(#clip-path)">
                        <path id="Контур_10" data-name="Контур 10" d="M233.569,53.46s-6.674-3.736-9.991,0c-3.9,4.408-2.183,10.788,1.512,14.692a12.593,12.593,0,0,0,6.758,3.82,27.908,27.908,0,0,0,4.618.294C236.465,72.308,233.569,53.46,233.569,53.46Z" fill="#fff"/>
                    </g>
                </g>
            </g>
        </g>
        <g id="Сгруппировать_46" data-name="Сгруппировать 46">
            <g id="Сгруппировать_45" data-name="Сгруппировать 45">
                <g id="Сгруппировать_44" data-name="Сгруппировать 44">
                    <g id="Сгруппировать_43" data-name="Сгруппировать 43" clip-path="url(#clip-path)">
                        <g id="Сгруппировать_42" data-name="Сгруппировать 42">
                            <path id="Контур_11" data-name="Контур 11" d="M228.406,65.214a.4.4,0,0,1-.294-.084c-.21-.084-1.259-.672-1.637-3.023a9.95,9.95,0,0,1,.336-3.778.7.7,0,0,1,1.343.42,7.956,7.956,0,0,0-.294,3.148c.294,1.638.882,2.015.882,2.015a.7.7,0,0,1,.336.882A.858.858,0,0,1,228.406,65.214Z" fill="#636363"/>
                        </g>
                    </g>
                </g>
            </g>
        </g>
        <g id="Сгруппировать_50" data-name="Сгруппировать 50">
            <g id="Сгруппировать_49" data-name="Сгруппировать 49">
                <g id="Сгруппировать_48" data-name="Сгруппировать 48">
                    <g id="Сгруппировать_47" data-name="Сгруппировать 47" clip-path="url(#clip-path)">
                        <path id="Контур_12" data-name="Контур 12" d="M281.717,53.8s6.759-3.61,9.991.126c3.862,4.449,2.015,10.83-1.721,14.692a12.733,12.733,0,0,1-6.8,3.736c-.588.126-4.66.42-4.618.21C278.527,72.6,281.717,53.8,281.717,53.8Z" fill="#fff"/>
                    </g>
                </g>
            </g>
        </g>
        <g id="Сгруппировать_55" data-name="Сгруппировать 55">
            <g id="Сгруппировать_54" data-name="Сгруппировать 54">
                <g id="Сгруппировать_53" data-name="Сгруппировать 53">
                    <g id="Сгруппировать_52" data-name="Сгруппировать 52" clip-path="url(#clip-path)">
                        <g id="Сгруппировать_51" data-name="Сгруппировать 51">
                            <path id="Контур_13" data-name="Контур 13" d="M286.713,65.591a.734.734,0,0,1-.63-.419.706.706,0,0,1,.336-.924h0s.588-.378.881-1.973a8.458,8.458,0,0,0-.251-3.148.677.677,0,1,1,1.3-.378,8.763,8.763,0,0,1,.294,3.778c-.42,2.309-1.47,2.9-1.679,2.98C286.923,65.591,286.839,65.591,286.713,65.591Z" fill="#636363"/>
                        </g>
                    </g>
                </g>
            </g>
        </g>
        <g id="Сгруппировать_59" data-name="Сгруппировать 59">
            <g id="Сгруппировать_58" data-name="Сгруппировать 58">
                <g id="Сгруппировать_57" data-name="Сгруппировать 57">
                    <g id="Сгруппировать_56" data-name="Сгруппировать 56" clip-path="url(#clip-path)">
                        <path id="Контур_14" data-name="Контур 14" d="M249.563,81.165a58.469,58.469,0,0,0,9.7,1.008,41.483,41.483,0,0,0,8.816-.882s-.924,4.7-9.655,4.7A9.665,9.665,0,0,1,249.563,81.165Z" fill="none" stroke="#000" stroke-linecap="round" stroke-linejoin="round" stroke-width="2"/>
                    </g>
                </g>
            </g>
        </g>
        <g id="Сгруппировать_63" data-name="Сгруппировать 63">
            <g id="Сгруппировать_62" data-name="Сгруппировать 62">
                <g id="Сгруппировать_61" data-name="Сгруппировать 61">
                    <g id="Сгруппировать_60" data-name="Сгруппировать 60" clip-path="url(#clip-path)">
                        <path id="Контур_15" data-name="Контур 15" d="M239.614,104.169c1.889,0,17.882,14.818,19.393,15.2,1.554.378,19.6-14.65,20.611-14.063,1.05.588,9.068,9.487,9.068,9.487s41.893,20.779,43.237,24.977c1.343,4.24-11.376,52.346-11.46,65.359s7.472,57.467,5.709,67.416c-1.428,7.934-5.919,8.186-5.919,8.186l-117.328,1.259s-6.464,0-7.136-10.368c-1.427-21.829,1.889-64.6-1.511-75.014-5.037-15.364-14.1-50.458-14.44-55.789-.294-5.373,50.5-26.655,50.5-26.655S237.683,104.169,239.614,104.169Z" fill="#69b8b3"/>
                    </g>
                </g>
            </g>
        </g>
        <g id="Сгруппировать_67" data-name="Сгруппировать 67">
            <g id="Сгруппировать_66" data-name="Сгруппировать 66">
                <g id="Сгруппировать_65" data-name="Сгруппировать 65">
                    <g id="Сгруппировать_64" data-name="Сгруппировать 64" clip-path="url(#clip-path)">
                        <path id="Контур_16" data-name="Контур 16" d="M191.172,132.965a32.226,32.226,0,0,0-19.6,19.982c-5.037,14.692-10.494,59.776-12.131,66.031s-6.633,37.486-1.763,42.985c4.911,5.5,14.146,9.571,21.072,12.677s27.58-8.354,27.58-8.354,3.19-29.678,3.568-31.021-1.931-64.814-2.393-66.954C207.081,166.212,191.172,132.965,191.172,132.965Z" fill="#69b8b3"/>
                    </g>
                </g>
            </g>
        </g>
        <g id="Сгруппировать_72" data-name="Сгруппировать 72">
            <g id="Сгруппировать_71" data-name="Сгруппировать 71">
                <g id="Сгруппировать_70" data-name="Сгруппировать 70">
                    <g id="Сгруппировать_69" data-name="Сгруппировать 69" clip-path="url(#clip-path)">
                        <g id="Сгруппировать_68" data-name="Сгруппировать 68">
                            <path id="Контур_17" data-name="Контур 17" d="M260.225,105.218c-6.423,0-12.426-4.323-17.421-7.975-.881-.63-1.721-1.218-2.519-1.806a.693.693,0,0,1,.8-1.133c.84.588,1.679,1.175,2.561,1.805,6.338,4.576,13.517,9.781,21.072,6.884a17.821,17.821,0,0,0,5.961-4.281c1.553-1.553,3.191-3.107,4.744-4.534l1.091-1.007a.683.683,0,1,1,.924,1.007l-1.092,1.008c-1.553,1.469-3.19,2.98-4.7,4.491a19.463,19.463,0,0,1-6.423,4.618A14.358,14.358,0,0,1,260.225,105.218Z" fill="#c4c4c4"/>
                        </g>
                    </g>
                </g>
            </g>
        </g>
        <g id="Сгруппировать_77" data-name="Сгруппировать 77">
            <g id="Сгруппировать_76" data-name="Сгруппировать 76">
                <g id="Сгруппировать_75" data-name="Сгруппировать 75">
                    <g id="Сгруппировать_74" data-name="Сгруппировать 74" clip-path="url(#clip-path)">
                        <g id="Сгруппировать_73" data-name="Сгруппировать 73">
                            <path id="Контур_18" data-name="Контур 18" d="M246.582,134.854c-3.064,0-11.166-14.692-13.6-19.225A.686.686,0,1,1,234.2,115c4.743,8.857,10.83,18.47,12.383,18.512,1.763-.084,7.892-6.842,11.712-11.628a.688.688,0,1,1,1.091.84c-1.637,1.973-9.781,12.006-12.8,12.131Z" fill="#e6e6e6"/>
                        </g>
                    </g>
                </g>
            </g>
        </g>
        <g id="Сгруппировать_82" data-name="Сгруппировать 82">
            <g id="Сгруппировать_81" data-name="Сгруппировать 81">
                <g id="Сгруппировать_80" data-name="Сгруппировать 80">
                    <g id="Сгруппировать_79" data-name="Сгруппировать 79" clip-path="url(#clip-path)">
                        <g id="Сгруппировать_78" data-name="Сгруппировать 78">
                            <path id="Контур_19" data-name="Контур 19" d="M269.334,134.854c-.378,0-1.385,0-9.277-11.5a.693.693,0,1,1,1.133-.8c3.358,4.911,7.262,10.243,8.228,10.914,2.015-.336,9.991-8.941,16.749-17.253a.685.685,0,1,1,1.049.882C284.866,120.036,272.692,134.854,269.334,134.854Z" fill="#e6e6e6"/>
                        </g>
                    </g>
                </g>
            </g>
        </g>
        <g id="Сгруппировать_87" data-name="Сгруппировать 87">
            <g id="Сгруппировать_86" data-name="Сгруппировать 86">
                <g id="Сгруппировать_85" data-name="Сгруппировать 85">
                    <g id="Сгруппировать_84" data-name="Сгруппировать 84" clip-path="url(#clip-path)">
                        <g id="Сгруппировать_83" data-name="Сгруппировать 83">
                            <path id="Контур_20" data-name="Контур 20" d="M260.183,194.295H260.1a.669.669,0,0,1-.588-.756c0-.084.924-7.934,1.05-21.87.126-13.979-2.057-41.1-2.1-41.348a.7.7,0,1,1,1.385-.126c.042.294,2.225,27.411,2.1,41.474s-1.05,21.954-1.05,22.038A.757.757,0,0,1,260.183,194.295Z" fill="#e6e6e6"/>
                        </g>
                    </g>
                </g>
            </g>
        </g>
        <g id="Сгруппировать_92" data-name="Сгруппировать 92">
            <g id="Сгруппировать_91" data-name="Сгруппировать 91">
                <g id="Сгруппировать_90" data-name="Сгруппировать 90">
                    <g id="Сгруппировать_89" data-name="Сгруппировать 89" clip-path="url(#clip-path)">
                        <g id="Сгруппировать_88" data-name="Сгруппировать 88">
                            <path id="Контур_21" data-name="Контур 21" d="M199.357,238.539h-.042a.662.662,0,0,1-.629-.713c.042-.42,2.938-43.027,1.259-48.569-1.721-5.625-19.646-42.649-19.814-43.027a.7.7,0,0,1,1.26-.587c.755,1.511,18.134,37.486,19.9,43.195,1.763,5.793-1.091,47.308-1.217,49.071A.755.755,0,0,1,199.357,238.539Z" fill="#e6e6e6"/>
                        </g>
                    </g>
                </g>
            </g>
        </g>
        <g id="Сгруппировать_97" data-name="Сгруппировать 97">
            <g id="Сгруппировать_96" data-name="Сгруппировать 96">
                <g id="Сгруппировать_95" data-name="Сгруппировать 95">
                    <g id="Сгруппировать_94" data-name="Сгруппировать 94" clip-path="url(#clip-path)">
                        <g id="Сгруппировать_93" data-name="Сгруппировать 93">
                            <path id="Контур_22" data-name="Контур 22" d="M323.779,278.082a.677.677,0,0,1-.378-.126.714.714,0,0,1-.168-.965c.042-.042,3.736-5.541,2.855-18.177-.882-12.8-2.519-58.349-1.805-63.848.671-5.331,7.052-48.778,7.094-49.2a.7.7,0,1,1,1.385.21c-.084.419-6.423,43.866-7.094,49.2-.714,5.457.923,50.793,1.847,63.554.923,13.139-2.939,18.806-3.106,19.058A.875.875,0,0,1,323.779,278.082Z" fill="#e6e6e6"/>
                        </g>
                    </g>
                </g>
            </g>
        </g>
        <g id="Сгруппировать_101" data-name="Сгруппировать 101">
            <g id="Сгруппировать_100" data-name="Сгруппировать 100">
                <g id="Сгруппировать_99" data-name="Сгруппировать 99">
                    <g id="Сгруппировать_98" data-name="Сгруппировать 98" clip-path="url(#clip-path)">
                        <path id="Контур_23" data-name="Контур 23" d="M288.9,29.281c-1.008-4.03-2.939-8.522-6.8-10.663-1.931-1.091-4.156-1.175-6.3-1.679a60.96,60.96,0,0,0-8.648-1.8c-5.877-.461-11.88.63-17.631,1.721-5.75,1.134-11.627,2.351-17.084,4.576-3.862,1.595-8.312,3.9-10.705,7.514-1.6,2.435-1.763,5.625.5,7.43-.21,2.183.63,5.5.8,6.716a24.127,24.127,0,0,0,.881,4.87c.756,2.057,2.351,3.61,2.771,5.835a.455.455,0,0,0,.462.336c.881.042,1.007-.462,1.3-1.218,1.343-3.148.672-7.01,2.057-10.284a21.542,21.542,0,0,0,2.141-6.759,21.7,21.7,0,0,1,.629-3.568c2.519-2.267,5.122-4.324,8.522-5.037,3.652-.756,7.514-1.427,11.208-1.847,7.262-.8,14.608,1.259,21.828,1.721.042,0,.042.042.084.042a10.852,10.852,0,0,1,6.968,4.2c1.512,2.35,1.344,5.457,1.721,8.143.63,4.576,1.512,9.151,2.561,13.685a.6.6,0,0,0,.42.42c3.358.546,3.778-6.087,3.946-8.27A48.723,48.723,0,0,0,288.9,29.281Z"/>
                    </g>
                </g>
            </g>
        </g>
        <g id="Сгруппировать_106" data-name="Сгруппировать 106">
            <g id="Сгруппировать_105" data-name="Сгруппировать 105">
                <g id="Сгруппировать_104" data-name="Сгруппировать 104">
                    <g id="Сгруппировать_103" data-name="Сгруппировать 103" clip-path="url(#clip-path)">
                        <g id="Сгруппировать_102" data-name="Сгруппировать 102">
                            <path id="Контур_24" data-name="Контур 24" d="M231.974,30.876a.612.612,0,0,1-.546-.294,22.755,22.755,0,0,1-2.561-4.366c-.671-1.805-1.763-4.449-1.763-4.449l1.26-.5s1.091,2.687,1.805,4.492a21.383,21.383,0,0,0,2.392,4.03.72.72,0,0,1-.125.965A.957.957,0,0,1,231.974,30.876Z" fill="#fff"/>
                        </g>
                    </g>
                </g>
            </g>
        </g>
        <g id="Сгруппировать_111" data-name="Сгруппировать 111">
            <g id="Сгруппировать_110" data-name="Сгруппировать 110">
                <g id="Сгруппировать_109" data-name="Сгруппировать 109">
                    <g id="Сгруппировать_108" data-name="Сгруппировать 108" clip-path="url(#clip-path)">
                        <g id="Сгруппировать_107" data-name="Сгруппировать 107">
                            <path id="Контур_25" data-name="Контур 25" d="M225.8,49.472h-.126a.73.73,0,0,1-.546-.8c0-.084,1.47-6.8,1.889-10.578a19.147,19.147,0,0,1,2.225-6.968.677.677,0,0,1,1.176.671,18.406,18.406,0,0,0-2.057,6.423c-.462,3.862-1.847,10.41-1.931,10.7A.577.577,0,0,1,225.8,49.472Z" fill="#fff"/>
                        </g>
                    </g>
                </g>
            </g>
        </g>
        <g id="Сгруппировать_116" data-name="Сгруппировать 116">
            <g id="Сгруппировать_115" data-name="Сгруппировать 115">
                <g id="Сгруппировать_114" data-name="Сгруппировать 114">
                    <g id="Сгруппировать_113" data-name="Сгруппировать 113" clip-path="url(#clip-path)">
                        <g id="Сгруппировать_112" data-name="Сгруппировать 112">
                            <path id="Контур_26" data-name="Контур 26" d="M222.487,48.129a.533.533,0,0,1-.252-.042.722.722,0,0,1-.42-.882c.168-.462,1.3-4.575,2.057-7.22a.677.677,0,1,1,1.3.378c-.167.672-1.805,6.674-2.1,7.346A.7.7,0,0,1,222.487,48.129Z" fill="#fff"/>
                        </g>
                    </g>
                </g>
            </g>
        </g>
        <g id="Сгруппировать_121" data-name="Сгруппировать 121">
            <g id="Сгруппировать_120" data-name="Сгруппировать 120">
                <g id="Сгруппировать_119" data-name="Сгруппировать 119">
                    <g id="Сгруппировать_118" data-name="Сгруппировать 118" clip-path="url(#clip-path)">
                        <g id="Сгруппировать_117" data-name="Сгруппировать 117">
                            <path id="Контур_27" data-name="Контур 27" d="M286.713,36.165a.663.663,0,0,1-.672-.672c0-.042-.21-6.254-3.442-8.1-3.4-1.931-7.136-2.309-11.5-2.729l-.336-.042a22.149,22.149,0,0,1-5.415-1.469,24.954,24.954,0,0,0-10.83-2.015c-6.087.336-13.139,3.358-15.49,4.324-.8.336-.881.378-1.049.378a.663.663,0,0,1-.672-.672.674.674,0,0,1,.546-.672,5.433,5.433,0,0,0,.671-.293c2.393-1.008,9.613-4.072,15.952-4.45,4.743-.294,8.27,1.007,11.376,2.1a22.918,22.918,0,0,0,5.079,1.427l.336.042c4.324.42,8.4.8,12.048,2.9,3.9,2.225,4.114,8.942,4.114,9.236a.684.684,0,0,1-.714.713Z" fill="#fff"/>
                        </g>
                    </g>
                </g>
            </g>
        </g>
        <g id="Сгруппировать_126" data-name="Сгруппировать 126">
            <g id="Сгруппировать_125" data-name="Сгруппировать 125">
                <g id="Сгруппировать_124" data-name="Сгруппировать 124">
                    <g id="Сгруппировать_123" data-name="Сгруппировать 123" clip-path="url(#clip-path)">
                        <g id="Сгруппировать_122" data-name="Сгруппировать 122">
                            <path id="Контур_28" data-name="Контур 28" d="M289.651,28.021a.719.719,0,0,1-.672-.461,11.627,11.627,0,0,0-4.7-5.457c-3.652-2.351-13.391-2.813-13.475-2.813a.7.7,0,0,1-.672-.714.73.73,0,0,1,.714-.671c.42,0,10.2.462,14.146,3.022a12.831,12.831,0,0,1,5.248,6.213.7.7,0,0,1-.42.881Z" fill="#fff"/>
                        </g>
                    </g>
                </g>
            </g>
        </g>
        <g id="Сгруппировать_131" data-name="Сгруппировать 131">
            <g id="Сгруппировать_130" data-name="Сгруппировать 130">
                <g id="Сгруппировать_129" data-name="Сгруппировать 129">
                    <g id="Сгруппировать_128" data-name="Сгруппировать 128" clip-path="url(#clip-path)">
                        <g id="Сгруппировать_127" data-name="Сгруппировать 127">
                            <path id="Контур_29" data-name="Контур 29" d="M249.646,5.228a.631.631,0,0,1-.629-.462.685.685,0,0,1,.42-.882A33.589,33.589,0,0,1,262.45,2.2c6.3.672,8.6,1.637,8.689,1.679a.717.717,0,0,1,.378.882.7.7,0,0,1-.882.378,36.316,36.316,0,0,0-8.311-1.6,31.391,31.391,0,0,0-12.384,1.6A1.069,1.069,0,0,1,249.646,5.228Z" fill="#fff"/>
                        </g>
                    </g>
                </g>
            </g>
        </g>
        <g id="Сгруппировать_135" data-name="Сгруппировать 135">
            <g id="Сгруппировать_134" data-name="Сгруппировать 134">
                <g id="Сгруппировать_133" data-name="Сгруппировать 133">
                    <g id="Сгруппировать_132" data-name="Сгруппировать 132" clip-path="url(#clip-path)">
                        <path id="Контур_30" data-name="Контур 30" d="M235.248,48.129a16.869,16.869,0,0,1,12.341-1.889" fill="none" stroke="#000" stroke-linecap="round" stroke-linejoin="round" stroke-width="2"/>
                    </g>
                </g>
            </g>
        </g>
        <g id="Сгруппировать_139" data-name="Сгруппировать 139">
            <g id="Сгруппировать_138" data-name="Сгруппировать 138">
                <g id="Сгруппировать_137" data-name="Сгруппировать 137">
                    <g id="Сгруппировать_136" data-name="Сгруппировать 136" clip-path="url(#clip-path)">
                        <path id="Контур_31" data-name="Контур 31" d="M278.989,48.129a16.871,16.871,0,0,0-12.342-1.889" fill="none" stroke="#000" stroke-linecap="round" stroke-linejoin="round" stroke-width="2"/>
                    </g>
                </g>
            </g>
        </g>
        <g id="Сгруппировать_143" data-name="Сгруппировать 143">
            <g id="Сгруппировать_142" data-name="Сгруппировать 142">
                <g id="Сгруппировать_141" data-name="Сгруппировать 141">
                    <g id="Сгруппировать_140" data-name="Сгруппировать 140" clip-path="url(#clip-path)">
                        <path id="Контур_32" data-name="Контур 32" d="M249.772,151.394c0,9.361-.545,17.546.336,17.966.546.252,9.025-4.24,12.594-9.193l-.5-25.816-7.136.126Z" fill="#2a3045"/>
                    </g>
                </g>
            </g>
        </g>
        <g id="Сгруппировать_147" data-name="Сгруппировать 147">
            <g id="Сгруппировать_146" data-name="Сгруппировать 146">
                <g id="Сгруппировать_145" data-name="Сгруппировать 145">
                    <g id="Сгруппировать_144" data-name="Сгруппировать 144" clip-path="url(#clip-path)">
                        <path id="Контур_33" data-name="Контур 33" d="M259.343,123.143s7.43,8.815,6.843,10.242-6.885,5.289-8.69,5.122-6-5.248-5.961-5.961C251.619,131.79,259.343,123.143,259.343,123.143Z" fill="#2a3045"/>
                    </g>
                </g>
            </g>
        </g>
        <g id="Сгруппировать_158" data-name="Сгруппировать 158">
            <g id="Сгруппировать_157" data-name="Сгруппировать 157">
                <g id="Сгруппировать_156" data-name="Сгруппировать 156">
                    <g id="Сгруппировать_155" data-name="Сгруппировать 155" clip-path="url(#clip-path)">
                        <g id="Сгруппировать_154" data-name="Сгруппировать 154">
                            <path id="Контур_34" data-name="Контур 34" d="M237.851,151.394l60.322-17.715a3.021,3.021,0,0,1,3.735,2.057l22.458,78.75a2.959,2.959,0,0,1-2.056,3.694L262.2,235.349a2.977,2.977,0,0,1-3.694-2.057l-22.668-78.2A2.971,2.971,0,0,1,237.851,151.394Z" fill="#e0e0e0"/>
                            <g id="Сгруппировать_148" data-name="Сгруппировать 148">
                                <path id="Контур_35" data-name="Контур 35" d="M277.52,157.354a19.3,19.3,0,0,1-4.24,1.847c-4.24,1.3-9.193,1.344-9.991-1.217-.8-2.519,3.316-5.289,7.6-6.59,4.24-1.3,9.193-1.344,9.991,1.217h0C281.381,154.248,279.828,155.969,277.52,157.354Zm-10.159-2.938c-2.015,1.175-2.938,2.477-2.729,3.19.336,1.092,3.652,1.721,8.27.294s7.01-3.778,6.674-4.869h0c-.335-1.092-3.652-1.721-8.269-.294A16.614,16.614,0,0,0,267.361,154.416Z" fill="#7b7b7b"/>
                            </g>
                            <g id="Сгруппировать_149" data-name="Сгруппировать 149">
                                <path id="Контур_36" data-name="Контур 36" d="M299.81,136.911c-.042.042-.084.042-.168.084l-60.784,17.463a.677.677,0,0,1-.378-1.3l60.784-17.463a.7.7,0,0,1,.84.462A.657.657,0,0,1,299.81,136.911Z" fill="#7b7b7b"/>
                            </g>
                            <g id="Сгруппировать_150" data-name="Сгруппировать 150">
                                <path id="Контур_37" data-name="Контур 37" d="M233.653,212.555l7.976,17.085-1.343.882L233.4,235.1,220.43,243.7l-8.815-21.912,11.8-4.953,7.682-3.19Z" fill="#fff"/>
                            </g>
                            <path id="Контур_38" data-name="Контур 38" d="M289.105,194.295c-1.343-1.344-3.987-.966-9.906,2.938-5.877,3.9-15.616,7.682-15.616,7.682,3.148-1.217,6.632-5.415,9.109-7.64,1.385-1.217,9.4-8.185,3.61-8.227-3.736-.042-8.647,6.674-15.531,9.193a119.033,119.033,0,0,1-12.006,3.736l.5-.5c-.126-.084-1.512-5.5-2.309-7.976a56.216,56.216,0,0,0-6.8,5.331c-5.331,5.08-7.3,14.692-7.3,14.692l6.339,17.463s22.668-6.213,31.861-10.032c4.45-1.848,12.677-4.744,11.5-8.144-.588-1.637-3.61-1.469-3.61-1.469s6.632-4.744,9.361-8.438a3.3,3.3,0,0,0,.713-3.232c-.042-.126-.713-1.637-.713-1.637S290.449,195.638,289.105,194.295Z" fill="#fff"/>
                            <g id="Сгруппировать_151" data-name="Сгруппировать 151">
                                <path id="Контур_39" data-name="Контур 39" d="M275.547,207.392c-.84.5-1.554.923-2.183,1.217a47.164,47.164,0,0,1-5.877,2.687.691.691,0,0,1-.462-1.3,59.769,59.769,0,0,0,5.709-2.644c3.778-1.931,13.769-8.857,13.895-8.9a.715.715,0,0,1,.965.167.723.723,0,0,1-.168.966C287.09,199.836,280.08,204.705,275.547,207.392Z" fill="#636363"/>
                            </g>
                            <g id="Сгруппировать_152" data-name="Сгруппировать 152">
                                <path id="Контур_40" data-name="Контур 40" d="M277.981,212.3h0l-8.857,4.492a.686.686,0,0,1-.63-1.218l8.816-4.491a.689.689,0,0,1,.923.294A.727.727,0,0,1,277.981,212.3Z" fill="#636363"/>
                            </g>
                            <g id="Сгруппировать_153" data-name="Сгруппировать 153">
                                <path id="Контур_41" data-name="Контур 41" d="M240.411,230.647l-7.01,4.45a59.244,59.244,0,0,1-6.548-9.907,50.618,50.618,0,0,1-3.443-8.353l7.682-3.191a35.045,35.045,0,0,0,3.065,7.766A52.086,52.086,0,0,0,240.411,230.647Z" fill="#69b8b3"/>
                            </g>
                            <path id="Контур_42" data-name="Контур 42" d="M237.263,220.531a8,8,0,1,1-11.124-3.065A8.189,8.189,0,0,1,237.263,220.531Z" fill="#4d4d4d"/>
                        </g>
                    </g>
                </g>
            </g>
        </g>
        <g id="Сгруппировать_162" data-name="Сгруппировать 162">
            <g id="Сгруппировать_161" data-name="Сгруппировать 161">
                <g id="Сгруппировать_160" data-name="Сгруппировать 160">
                    <g id="Сгруппировать_159" data-name="Сгруппировать 159" clip-path="url(#clip-path)">
                        <path id="Контур_43" data-name="Контур 43" d="M239.236,103.623s-7.514,7.64-8.9,10.537c0,0-40.425,17.042-47.351,23.129,0,0-10.075,5.457-13.6,23.843,0,0-5.583,26.74-6.716,38.452,0,0-2.561,19.478-3.862,22.416" fill="none" stroke="#000" stroke-linecap="round" stroke-linejoin="round" stroke-width="2"/>
                    </g>
                </g>
            </g>
        </g>
    </g>
</svg>
