<svg xmlns="http://www.w3.org/2000/svg" xmlns:xlink="http://www.w3.org/1999/xlink" width="400.482" height="222" viewBox="0 0 400.482 222">
    <defs>
        <clipPath id="clip-path">
            <rect id="Прямоугольник_18" data-name="Прямоугольник 18" width="400.482" height="222" transform="translate(54.148 0.403)" fill="none"/>
        </clipPath>
    </defs>
    <g id="Сгруппировать_21" data-name="Сгруппировать 21" transform="translate(-54.148 -0.403)">
        <g id="Сгруппировать_20" data-name="Сгруппировать 20" clip-path="url(#clip-path)">
            <rect id="Прямоугольник_1" data-name="Прямоугольник 1" width="394.527" height="238.588" transform="translate(57.878 -16.185)" fill="none"/>
            <g id="Сгруппировать_1" data-name="Сгруппировать 1">
                <path id="Контур_1" data-name="Контур 1" d="M204.132,103.96a26.214,26.214,0,0,0,13.35,3.926,5.163,5.163,0,0,0,2.813-.524,5.87,5.87,0,0,0,2.094-3.01,144.549,144.549,0,0,0,9.293-32.13c.654-4.188,1.178-8.441.458-12.564-.393-2.29-1.113-4.45-1.44-6.74-.392-2.618-.262-5.3-.392-7.984-.655-10.47-6.021-20.285-13.481-27.614a19.027,19.027,0,0,0-6.413-4.516,18.634,18.634,0,0,0-6.871-.981,61.712,61.712,0,0,0-40.048,14.462c-1.832,1.57-3.6,3.271-5.366,4.907l-3.926,3.73a29.8,29.8,0,0,0-6.086,7.068c-1.832,3.206-2.552,6.936-4.45,10.077-1.112,1.832-2.617,3.534-3.141,5.628A30.5,30.5,0,0,0,140.2,62.6c-.2,3.141-1.57,6.02-2.814,8.965a97.946,97.946,0,0,0-6.151,21c-.458,2.553-.785,5.366.458,7.657,2.094,4.057,7.853,4.973,10.012,8.965a6.311,6.311,0,0,0,1.309,2.094,4.121,4.121,0,0,0,2.159.785c4.516.72,9.424,1.44,13.35-.916a5.942,5.942,0,0,1,2.225-1.113c2.486-.588,4.777,2.225,7.329,1.964,2.028-.2,3.337-2.16,4.973-3.207a12.678,12.678,0,0,1,5.562-1.57,220.737,220.737,0,0,1,31.542-1.44,9.02,9.02,0,0,0,5.1-.851" fill="#0abab5"/>
            </g>
            <rect id="Прямоугольник_2" data-name="Прямоугольник 2" width="394.527" height="238.588" transform="translate(57.878 -16.185)" fill="none"/>
            <rect id="Прямоугольник_3" data-name="Прямоугольник 3" width="394.527" height="238.588" transform="translate(57.878 -16.185)" fill="none"/>
            <path id="Контур_2" data-name="Контур 2" d="M250.724,203.1c-.2-6.217-.523-12.368-.916-18.585a137.013,137.013,0,0,0-1.7-15.509,53.094,53.094,0,0,0-4.646-14.527,40.008,40.008,0,0,0-8.9-11.452,82.305,82.305,0,0,0-13.873-9.685c-4.123,2.553-8.049,5.432-12.237,7.722.982,4.254,1.7,8.573,2.552,12.891q3.534,18.161,6.086,36.45c1.7,12.3,3.141,24.6,4.188,36.972,1.112,12.3,1.832,28.008,2.29,40.31.066,1.44.066,2.945.131,4.384a9.006,9.006,0,0,0,.524,2.945c.981,2.356,3.468,2.29,5.627,2.29,3.141-.065,6.282-.065,9.489-.13,1.57,0,3.076-.066,4.646-.066a17.212,17.212,0,0,0,3.665-.2,3.245,3.245,0,0,0,2.224-1.571,8.881,8.881,0,0,0,.524-3.206l.393-9.423c.2-6.282.392-15.967.458-22.249C251.313,228.03,251.182,215.532,250.724,203.1Z" fill="#333"/>
            <rect id="Прямоугольник_4" data-name="Прямоугольник 4" width="394.527" height="238.588" transform="translate(57.878 -16.185)" fill="none"/>
            <path id="Контур_3" data-name="Контур 3" d="M158.98,128.761a8.24,8.24,0,0,0-1.243-1.833h0v-.458c.065-.065.065-.2,0-.2v-.065c0-.131-.262-.131-.262,0v.065c-6.806,2.683-13.546,5.431-20.286,8.311-5.759,2.486-11.779,4.973-16.36,9.357-4.711,4.581-8.637,8.246-11.124,14.2-2.748,6.609-15.705,51.172-19.959,65.438-2.094,7.067-3.926,14.134-5.366,21.4-1.374,7.133-2.355,14.4-3.206,21.6-.393,3.664-.785,7.394-1.178,11.059-.065.85-.2,1.7-.262,2.552a1.364,1.364,0,0,0,.327,1.308,3.883,3.883,0,0,0,1.767.393c.916.131,1.832.2,2.749.262a125.594,125.594,0,0,0,22.183.131c1.832-.131,3.665-.327,5.432-.589a.226.226,0,0,0,.13-.066l3.272-17.079c.524-2.814,1.047-5.628,1.636-8.442a50.8,50.8,0,0,1,2.029-7.656c1.963-5.039,5.5-9.1,8.376-13.611a92.567,92.567,0,0,0,7.133-13.873c2.094-4.973,3.926-10.012,5.758-15.051,1.9-5.235,3.73-10.535,5.5-15.836,3.534-10.666,6.806-21.4,9.423-32.326,1.309-5.431,2.487-10.863,3.4-16.36C159.634,137.464,160.812,132.622,158.98,128.761Z" fill="#333"/>
            <rect id="Прямоугольник_5" data-name="Прямоугольник 5" width="394.527" height="238.588" transform="translate(57.878 -16.185)" fill="none"/>
            <path id="Контур_4" data-name="Контур 4" d="M126.784,141.39a108.865,108.865,0,0,0,.786,13.873c.785,5.432,1.766,10.8,2.552,16.229a192.489,192.489,0,0,1,2.225,21.2c.2,5.628.2,11.255.131,16.883a236.138,236.138,0,0,0,1.047,28.858,68.148,68.148,0,0,0,3.01,12.5c.523.981,1.047,1.963,1.636,2.945a10.481,10.481,0,0,0,.85.85,12.874,12.874,0,0,0,1.309.72,59.72,59.72,0,0,0,6.74,1.7c9.816.982,19.828.2,29.644-1.047a96.392,96.392,0,0,0,19.238-4.318,38.877,38.877,0,0,0,3.6-2.029c.719-.654,1.374-1.309,2.028-2.029a42.069,42.069,0,0,0,2.356-4.122,101.567,101.567,0,0,0,5.3-21.529q.983-8.541,1.375-17.08c.523-9.685-.066-19.369.2-29.054.393-12.368,2.094-25.521,8.769-36.253a18.829,18.829,0,0,1,4.057-4.712c-.982-.654-1.963-1.308-2.945-1.9-.327-.2-.851-.524-1.44-.851-2.944-1.7-8.637-4.646-13.807-7.4-5.039-2.682-9.489-5.169-10.4-6.151-.065-.065-.131-.131-.131-.2-.588-1.374-2.094-4.057-2.552-4.908a7.552,7.552,0,0,0-1.178-1.767c-1.308-1.178-2.682,0-3.926.655a18.987,18.987,0,0,1-5.3,1.9,20.374,20.374,0,0,1-11.19-.916c-.131-.065-.262-.065-.327-.131h-.066s-.2-3.533-.916-3.533c-.262,0-.589.392-.982,1.439a13.85,13.85,0,0,0-.588,1.767c-2.356,7.984-9.947,11.583-17.865,14.724-2.814,1.112-5.628,2.159-8.245,3.4-.524.261-1.047.458-1.571.719-.654.328-1.309.589-1.963.917-.262.13-.458.2-.72.327a14.628,14.628,0,0,0-1.439.72,3.611,3.611,0,0,1-.72.327c-.066.065-.131.065-.262.131l-1.178.589c-1.309.654-2.683,1.374-3.926,2.094-.2.065-.327.2-.524.261l-.981.589c-.131.066-.327.2-.458.262s-.262.2-.393.262c-.2.131-.458.261-.654.392a1.415,1.415,0,0,0-.327.2A10.59,10.59,0,0,1,126.784,141.39Z" fill="#fff"/>
            <rect id="Прямоугольник_6" data-name="Прямоугольник 6" width="394.527" height="238.588" transform="translate(57.878 -16.185)" fill="none"/>
            <path id="Контур_5" data-name="Контур 5" d="M150.015,128.826a.654.654,0,0,1-.229-1.267c.154-.058,15.467-5.9,17.847-16.738a.654.654,0,0,1,1.278.281c-2.534,11.536-18.01,17.437-18.667,17.683A.66.66,0,0,1,150.015,128.826Z"/>
            <rect id="Прямоугольник_7" data-name="Прямоугольник 7" width="394.527" height="238.588" transform="translate(57.878 -16.185)" fill="none"/>
            <path id="Контур_6" data-name="Контур 6" d="M230.5,140.278l-.524-.524-.065-.065-.524-.524c-.13-.13-.327-.261-.458-.392-.065-.066-.2-.131-.261-.2a2.88,2.88,0,0,0-.459-.392,3.76,3.76,0,0,1-.523-.458,2.73,2.73,0,0,0-.458-.327c-2.094-1.571-4.319-3.011-6.544-4.45-.327-.2-.851-.524-1.44-.851-2.944-1.7-8.637-4.646-13.807-7.394a50.675,50.675,0,0,1-1.767,11.713c-1.178,4.712-2.356,9.554-4.319,13.742a91.7,91.7,0,0,1-6.8,11.779,58.8,58.8,0,0,0-3.272,5.562,29.577,29.577,0,0,1-3.01,4.973.612.612,0,0,1-.851,0c-3.272-3.533-6.871-6.805-10.405-10.142a196.644,196.644,0,0,1-15.9-16.295,49.492,49.492,0,0,1-3.207-4.122,8.136,8.136,0,0,1-.72-.785,19.826,19.826,0,0,1-5.235-13.612c-2.813,1.113-5.627,2.16-8.245,3.4-.523.262-1.047.458-1.57.72-.655.327-1.309.589-1.963.916-.262.131-.459.2-.72.327a14.871,14.871,0,0,0-1.44.72,3.477,3.477,0,0,1-.72.327c-.065.066-.131.066-.261.131l-1.178.589c-1.309.655-2.683,1.374-3.927,2.094-.2.066-.327.2-.523.262l-.982.589c-.131.065-.327.2-.458.262s-.262.2-.392.261c-.2.131-.458.262-.655.393-4.777,3.01-9.292,6.74-12.04,11.713-3.076,5.5-3.338,11.976-2.683,18.127.719,6.805,2.421,13.48,3.991,20.089.393,1.571.917,3.469,1.505,5.563.786,8.245,1.178,16.49,1.5,24.735.328,9.554.589,19.108,1.047,28.662.262,4.777.589,9.554,1.047,14.331q.3,3.534.786,7.067c.262,2.094.523,4.254.981,6.348a9.222,9.222,0,0,0,2.356,4.711,7.084,7.084,0,0,0,4.843,1.571,23.715,23.715,0,0,0,5.627-1.047c.655-.2,1.374-.393,2.029-.589.2.393,1.178.131,1.7.065.916-.065,17.276-1.766,24.409-2.617,7.067-.851,14.134-1.963,21.267-2.094,6.871-.131,13.742.785,20.548,1.57,7.459.851,15.116,1.375,22.576-.261.065,0,.065-.066.065-.131q2.257-24.147,4.254-48.424c.654-8.049,1.308-18.519,1.9-26.568.589-7.787,1.244-15.575,1.571-23.362a73.613,73.613,0,0,0-.066-8.507,76.652,76.652,0,0,0,.917-9.423C237.309,152.973,235.739,145.513,230.5,140.278Z" fill="#333"/>
            <rect id="Прямоугольник_8" data-name="Прямоугольник 8" width="394.527" height="238.588" transform="translate(57.878 -16.185)" fill="none"/>
            <path id="Контур_7" data-name="Контур 7" d="M230.177,188.048c-.328-7.2-3.665-13.873-6.806-20.221-.065-.131-.262,0-.2.131,2.944,5.824,5.955,11.91,6.674,18.454a24.227,24.227,0,0,1-.916,9.685c-.916,3.075-2.159,6.085-2.944,9.226-1.571,6.413-1.7,13.023-1.767,19.566-.066,7-.131,14-.262,21.006-.065,7.918-.2,15.771-.262,23.689,0,.131.262.131.262,0,.131-14.2.327-28.335.458-42.535.066-6.806,0-13.677,1.44-20.351.72-3.272,1.9-6.348,2.879-9.489A23.016,23.016,0,0,0,230.177,188.048Z" fill="#2a3045"/>
            <rect id="Прямоугольник_9" data-name="Прямоугольник 9" width="394.527" height="238.588" transform="translate(57.878 -16.185)" fill="none"/>
            <path id="Контур_8" data-name="Контур 8" d="M198.832,254.991a68.182,68.182,0,0,1-18.585-9.75,88.094,88.094,0,0,1-15.378-14.658,115.6,115.6,0,0,1-12.3-18.389,178.589,178.589,0,0,1-10.078-22.576c-2.879-7.721-5.431-15.574-7.983-23.427-.327-.981-.589-1.9-.916-2.879a.141.141,0,0,0-.262.066c2.487,7.918,5.039,15.9,7.918,23.688A192.873,192.873,0,0,0,151,209.773,120.263,120.263,0,0,0,163.1,228.816,91.79,91.79,0,0,0,178.153,244a68.816,68.816,0,0,0,18.061,10.34c.851.327,1.7.589,2.552.916C198.963,255.253,199.028,254.991,198.832,254.991Z" fill="#fff"/>
            <rect id="Прямоугольник_10" data-name="Прямоугольник 10" width="394.527" height="238.588" transform="translate(57.878 -16.185)" fill="none"/>
            <rect id="Прямоугольник_11" data-name="Прямоугольник 11" width="394.527" height="238.588" transform="translate(57.878 -16.185)" fill="none"/>
            <path id="Контур_9" data-name="Контур 9" d="M202.693,186.477a45.49,45.49,0,0,1-16.687-13.349c-.066-.131-.327,0-.2.131a45.61,45.61,0,0,0,16.817,13.48C202.693,186.739,202.823,186.543,202.693,186.477Z" fill="#fff"/>
            <rect id="Прямоугольник_12" data-name="Прямоугольник 12" width="394.527" height="238.588" transform="translate(57.878 -16.185)" fill="none"/>
            <path id="Контур_10" data-name="Контур 10" d="M179.331,66.987a5.868,5.868,0,0,0,.72-2.879c.065-1.178.065-3.207-1.047-3.665a3.356,3.356,0,0,0-3.337.786,5.224,5.224,0,0,0-1.113,2.813c-.262-.065-3.6,24.867-4.842,36.057-.393,3.73-.851,7.46-1.244,11.19a219.732,219.732,0,0,0-1.374,25.455.3.3,0,0,0,.393.327,9.34,9.34,0,0,0,1.44-.523c1.505,3.6,4.515,10.6,4.515,10.666l21.136-5.955c.066,0-.785-2.683-.785-2.813.393-5.1,1.112-12.172,2.029-19.7.327-2.945.719-5.955,1.112-8.965a.4.4,0,0,1,.065-.262q.3-2.258.589-4.515c.066-.327.066-.655.131-.982,1.636-13.153,3.207-24.8,3.338-27.353C201.122,72.484,186.857,69.016,179.331,66.987Z" fill="#fff"/>
            <rect id="Прямоугольник_13" data-name="Прямоугольник 13" width="394.527" height="238.588" transform="translate(57.878 -16.185)" fill="none"/>
            <path id="Контур_11" data-name="Контур 11" d="M237.506,146.691a.652.652,0,0,1-.583-.358c-3.461-6.8-31.49-20.772-31.773-20.913l-9.729-5.782a.654.654,0,0,1-.315-.642l1.636-13.349a.655.655,0,0,1,1.3.159l-1.585,12.926,9.319,5.54c1.126.557,28.658,14.29,32.313,21.468a.654.654,0,0,1-.583.951Z"/>
            <rect id="Прямоугольник_14" data-name="Прямоугольник 14" width="394.527" height="238.588" transform="translate(57.878 -16.185)" fill="none"/>
            <path id="Контур_12" data-name="Контур 12" d="M252.556,38.129c.131.72.328,1.44.524,2.159.982.393,1.963.72,2.945,1.178a32.281,32.281,0,0,1,4.384,2.618,66.928,66.928,0,0,1,9.423,7.787,4.4,4.4,0,0,1,1.309,4.45,3.809,3.809,0,0,0,.916-.328,21.252,21.252,0,0,0,1.9-1.505,6.782,6.782,0,0,1,2.225-.981c3.337-.916,6.936-.131,10.143.851a85.7,85.7,0,0,1,9.619,3.73,3.187,3.187,0,0,0,.916,1.177,3.289,3.289,0,0,0,.982.458,15.025,15.025,0,0,0,1.636,4.123c1.374,2.16,3.991,3.337,6.151,4.712a58.62,58.62,0,0,1,6.8,5.235,63.263,63.263,0,0,1,10.34,11.779c-.131.13-.2.327-.328.458-.065.131.131.2.2.131.065-.131.2-.262.261-.393.2.262.328.523.459.72.065.131.261,0,.2-.131.131.2.589.916.654,1.047a27.822,27.822,0,0,0,3.534-9.227c1.112-6.347,5.1-14.593,7.918-19.828,1.636-3.075,2.879-5.169,2.879-5.3l.2-.2h0c.065-.065.13-.065.13-.13a11.71,11.71,0,0,0,3.011-4.254c3.6-9.423-1.964-19.893-7.526-27.484a30.8,30.8,0,0,0-10.666-8.965c-3.861-2.029-8.311-3.6-12.761-2.617a27.186,27.186,0,0,0-10.4-6.61C287.7-1.919,273.1.567,262.307,8.224c-2.814,2.421-8.507,6.805-10.339,20.416A30.672,30.672,0,0,0,252.556,38.129Z"/>
            <rect id="Прямоугольник_15" data-name="Прямоугольник 15" width="394.527" height="238.588" transform="translate(57.878 -16.185)" fill="none"/>
            <path id="Контур_13" data-name="Контур 13" d="M206.03,328.609a23.136,23.136,0,0,0,.131,3.01v.262h223.8c-.327-3.4-1.047-6.871-1.57-10.274a43.1,43.1,0,0,1-.393-8.7c.131-2.88.524-5.759.72-8.638a38.58,38.58,0,0,0-.2-8.245,61.988,61.988,0,0,0-2.16-8.311,86.733,86.733,0,0,1-3.206-12.76c-.2-7.984-.393-16.033-.72-24.016a113.352,113.352,0,0,0-3.926-26.5c-1.767-6.282-3.927-12.433-5.5-18.78a19.035,19.035,0,0,0-.262-2.225c-.785-6.413-1.439-12.826-2.29-19.239-.524-7.853-1.374-15.705-4.581-22.511a32.476,32.476,0,0,0-4.384-8.114,24,24,0,0,0-2.421-2.814,28.131,28.131,0,0,0-5.5-4.319c-4.908-3.01-10.536-5.17-15.967-7.46-2.29-.981-4.646-1.963-6.937-2.945-.785-.327-1.57-.654-2.355-1.047-3.076-1.308-6.152-2.617-9.162-3.926-1.374-.589-2.814-1.178-4.188-1.767l-4.122-1.767c-.066,0-.131-.065-.2-.065h-.065c-2.683-1.112-5.3-2.29-7.984-3.4-1.243-.523-2.486-1.047-3.664-1.57-.066,0-.131-.066-.2-.066-.589-.261-1.113-.458-1.7-.72-.065,0-.131-.065-.2-.065-2.225-.916-4.45-1.9-6.675-2.814-.065-.065-.2-.065-.262-.131-1.505-.654-2.944-1.243-4.449-1.9-.524-.262-1.113-.458-1.636-.72a71.95,71.95,0,0,0-9.162-2.749,26.652,26.652,0,0,0-12.433.916c-3.992,1.44-7.787,3.4-11.648,5.17-.589.262-1.178.524-1.832.851-2.683,1.243-5.366,2.421-8.049,3.664-.065.066-.131.066-.2.131-.066,0-.131.066-.2.066-.719.327-1.505.654-2.225,1.047a.064.064,0,0,0-.065.065l-2.159.982h0c-2.487.2-5.105.131-7.46.981-4.385,1.571-7.133,5.89-11.518,7.526a29.414,29.414,0,0,1-4.122,1.047,19,19,0,0,0-2.552.785c-.262.065-.524.2-.72.262a13.88,13.88,0,0,0-1.44.654,23.168,23.168,0,0,0-4.253,2.879,18.632,18.632,0,0,0-2.945,3.076,8.321,8.321,0,0,1-1.767,1.636c-.392.262-.85.589-1.243.851a29.247,29.247,0,0,0-10.4,14.134c-2.486,6.544-1.243,12.892-2.814,19.632-1.766,7.656-3.991,19.5-5.954,30.69-.655,3.926-1.309,7.853-1.9,11.386-.654,3.927-1.178,7.526-1.636,10.536-.72,4.973-1.44,9.947-2.29,14.92-3.141,11.386-7.46,22.772-6.741,34.617a62.6,62.6,0,0,0-.719,9.226,53.626,53.626,0,0,0,.916,9.162,80.086,80.086,0,0,1,1.243,9.685C207.862,316.176,206.03,322.327,206.03,328.609Z" fill="#0abab5"/>
            <rect id="Прямоугольник_16" data-name="Прямоугольник 16" width="394.527" height="238.588" transform="translate(57.878 -16.185)" fill="none"/>
            <path id="Контур_14" data-name="Контур 14" d="M257.137,60.443c.2,4.581,1.178,17.472,4.188,28.008,2.421,8.507,7.656,14.854,13.284,15.247,3.468.262,7.591-.262,13.284-3.4a.227.227,0,0,0,.131-.065,55.163,55.163,0,0,0,6.282-4.057,127.073,127.073,0,0,0,13.153-11.321c2.094-2.029,2.683-5.955,2.814-9.62V72.026c-.065-2.618-.262-4.581-.131-4.843a8.008,8.008,0,0,0,.785-1.7c.066-.262.2-.589.262-.851h0a4.975,4.975,0,0,0,.2-1.374,21.112,21.112,0,0,0-.589-6.086L310.4,55.6a7.2,7.2,0,0,0-.327-1.113c0-.065-.066-.2-.066-.261a40.15,40.15,0,0,0-1.9-5.1c-.261-.654-.588-1.308-.916-1.963-.392-.785-.785-1.505-1.178-2.225a5.97,5.97,0,0,0-.523-.85c-.262-.458-.589-.982-.916-1.44-.327-.523-.72-1.047-1.047-1.57-.458-.655-.982-1.309-1.44-1.9-.523-.654-1.047-1.243-1.57-1.832a3,3,0,0,0-.458-.458,41.276,41.276,0,0,0-5.628-5.039,58.52,58.52,0,0,0-8.245-5.17c-.328-.131-.589-.327-.916-.458h-.066c-.72-.393-1.505-.72-2.225-1.112h-.131c-5.366-2.422-10.862-3.8-16.817-2.291-2.88.72-4.516,2.225-6.282,4.777a6.857,6.857,0,0,0-.982,2.291,57.487,57.487,0,0,0-1.636,11.451v.786c0,.327-.065.589-.065.916v.327c-.066,1.112-.131,2.29-.131,3.468v.327C256.941,52.067,257.006,56.91,257.137,60.443Z" fill="#fff"/>
            <g id="Сгруппировать_2" data-name="Сгруппировать 2">
                <path id="Контур_15" data-name="Контур 15" d="M368.12,182.027a239.706,239.706,0,0,0,1.309-26.5c-.065-6.871-.458-13.677-1.112-20.548.785.328,1.57.655,2.355,1.047a219.6,219.6,0,0,1,.262,40.441c-1.309,15.509-3.795,30.822-2.552,46.4.589,7.918,1.832,15.705,2.814,23.558s1.832,15.7,2.487,23.557q1.962,23.362,1.963,46.854c0,2.618,0,5.3-.066,7.918a5.012,5.012,0,0,0,.982-.131c.065,0,.131.131,0,.131-.327.066-.655.066-1.047.131,0,2.29-.066,4.581-.131,6.871h-.327c.065-2.29.131-4.581.131-6.871a16.056,16.056,0,0,1-1.767.065c0,2.225-.066,4.516-.131,6.741h-.327c.065-2.225.131-4.516.131-6.741a12.293,12.293,0,0,1-3.469-.458c-.131,0-.065-.2,0-.2a31.414,31.414,0,0,0,3.4.327h0q.393-24.638-1.439-49.209c-.589-7.853-1.309-15.771-2.225-23.623s-2.094-15.706-2.945-23.558a135.991,135.991,0,0,1-.654-23.1C366.353,197.6,367.335,189.815,368.12,182.027Z" fill="#fff"/>
                <path id="Контур_16" data-name="Контур 16" d="M329.97,126.012c1.767-.458,3.6-.785,5.431-1.178a6.791,6.791,0,0,0,1.113-.261v-.2c.065-.916.2-1.9.327-2.813.065,0,.131.065.2.065-.131.982-.2,1.963-.327,2.879.851-.2.982-.392,1.832-.523.066-.524.131-1.113.2-1.636.065,0,.13.065.2.065a12.605,12.605,0,0,0-.131,1.571,10.227,10.227,0,0,0,1.374-.262c.066,0,.131.131.066.131a9.237,9.237,0,0,1-1.44.327,477.133,477.133,0,0,0-1.113,84.284c1.113,14.855,3.534,29.644,2.88,44.564-.327,7.46-1.113,14.92-1.374,22.38a191.627,191.627,0,0,0,.785,22.118c.589,7.2,1.439,14.4,1.963,21.66.065,1.047.131,2.028.2,3.075.2,3.207.327,6.413.327,9.62h-2.29c0-4.319-.262-8.573-.589-12.891-.131-2.16-.327-4.319-.523-6.413-.72-7.722-1.571-15.444-1.963-23.231a185.3,185.3,0,0,1,.327-23.361c.523-7.853,1.178-15.64.916-23.558s-1.309-15.771-2.029-23.689a455.658,455.658,0,0,1-2.225-47.181,464.721,464.721,0,0,1,2.487-46.723l-.982.2c-1.766.392-3.6.851-5.431,1.112C329.9,126.209,329.839,126.012,329.97,126.012Z" fill="#fff"/>
                <path id="Контур_17" data-name="Контур 17" d="M306.608,171.819h-1.243c-.131,0-.131-.262,0-.262h1.309c.2-.981.393-1.963.654-2.944h0c-.2.981-.392,1.963-.523,2.944h1.832c.2-.981.393-1.963.654-3.01h0c-.2.982-.392,1.963-.523,3.01a10.526,10.526,0,0,1,1.44.066c.13,0,.13.262,0,.262-.524,0-.982-.066-1.506-.066-1.57,9.685-1.374,19.5-.458,29.316.982,10.929,2.552,21.726,2.749,32.719.2,11.19-.72,22.38-1.047,33.57-.131,5.628-.131,11.256.2,16.949.327,5.5,1.047,10.993,1.7,16.49.72,5.824,1.44,11.714,1.833,17.668a106.791,106.791,0,0,1,.131,12.107,32.379,32.379,0,0,1,3.533.392c.131,0,.066.262-.065.262-1.178-.131-2.356-.262-3.468-.393,0,.327-.066.72-.066,1.047h-.392c0-.392.065-.72.065-1.047a12.707,12.707,0,0,0-1.571-.065c0,.392-.065.785-.065,1.178h-.393c0-.393.066-.786.066-1.178-1.178,0-2.29,0-3.468.065-.131,0-.131-.261,0-.261,1.178-.066,2.29-.066,3.468-.066.131-3.141.2-6.282.065-9.423-.065-.851-.065-1.7-.131-2.487-.327-4.711-.85-9.423-1.374-14.134-.654-5.5-1.374-10.994-1.832-16.491a158.184,158.184,0,0,1-.524-16.686c.2-11.256,1.113-22.511,1.113-33.767,0-10.993-1.374-21.856-2.421-32.85-1.047-10.6-1.9-21.594.131-32.195A2.8,2.8,0,0,1,306.608,171.819Z" fill="#fff"/>
                <path id="Контур_18" data-name="Контур 18" d="M275.852,189.1c-.588-7.526-.85-15.051-.719-22.576.2-13.873,1.439-27.681,2.944-41.423.72-.327,1.505-.72,2.225-1.047-1.243,12.172-2.421,24.278-2.814,36.515q-.392,11.091.2,22.183c.458,7.46,1.243,14.92,1.963,22.38.654,7.264,1.178,14.593,1.112,21.922-.131,7.46-1.112,14.789-1.963,22.183a143.5,143.5,0,0,0-1.047,21.857c.2,7.525.785,15.051,1.047,22.576.524,12.76.524,25.521.131,38.281H276.7c.327-10.732.327-21.529,0-32.261-.458-14.854-2.159-29.774-.72-44.629.72-7.2,1.9-14.4,2.356-21.66a159.74,159.74,0,0,0-.458-22.379C277.292,203.687,276.441,196.358,275.852,189.1Z" fill="#fff"/>
                <path id="Контур_19" data-name="Контур 19" d="M248.63,221.225a216.364,216.364,0,0,0-.327-22.576c-.523-7.526-1.374-15.051-1.9-22.576a173.865,173.865,0,0,1,1.7-38.674,9.691,9.691,0,0,1,1.439-.655,3.214,3.214,0,0,1,.72-.262,178.223,178.223,0,0,0-2.094,34.944c.327,7.526,1.113,15.051,1.767,22.577a217.015,217.015,0,0,1,.851,22.576c-.262,15.181-2.029,30.232-2.749,45.348-.72,14.855.2,29.709.851,44.564.393,8.441.654,16.948.393,25.455h-2.029c.2-6.936.065-13.873-.2-20.809-.589-14.855-1.7-29.644-1.244-44.5C246.34,251.457,248.107,236.341,248.63,221.225Z" fill="#fff"/>
                <path id="Контур_20" data-name="Контур 20" d="M216.369,285.223c.785-5.1,1.571-10.208,1.9-15.312.262-4.973.2-9.947,0-14.92-.393-10.143-1.113-20.22-1.309-30.363,0-.982-.065-1.963-.065-3.01.589-3.6,1.243-7.46,1.9-11.387,0,3.534,0,7.068.066,10.6.131,10.274.72,20.482,1.243,30.691.262,5.039.393,10.143.262,15.181a118.669,118.669,0,0,1-1.374,14.528,148.8,148.8,0,0,0-1.767,15.247c-.262,4.973-.262,10.012-.2,14.985.065,6.74.261,13.546.065,20.286H215.06c.2-5.693.066-11.452,0-17.21C214.8,304.855,214.864,295.039,216.369,285.223Z" fill="#fff"/>
                <path id="Контур_21" data-name="Контур 21" d="M399.073,150.748a24,24,0,0,1,2.421,2.814c-.131,6.805-.785,13.611-1.309,20.351a406.047,406.047,0,0,0-1.44,42.8c.328,14.331,1.833,28.465,2.88,42.731,1.112,14.265,1.047,28.6.785,42.927-.131,9.881-.262,19.763-.458,29.644h-2.487l.393-24.147c.2-14.331.523-28.662-.327-42.927-.917-14.266-2.552-28.4-3.141-42.732a375.687,375.687,0,0,1,.85-42.927C398.026,169.725,399.007,160.237,399.073,150.748Z" fill="#fff"/>
            </g>
            <path id="Контур_22" data-name="Контур 22" d="M287.566,133.276a.659.659,0,0,0-.131.327l.524.2.392.13,26.241,9.882s.785-.982,1.832-2.356a5.035,5.035,0,0,0,.524-.72c1.57-2.094,3.6-4.777,4.907-6.609a15.541,15.541,0,0,0,1.833.85c.2.066.523,0,.523-.261.524-3.8.851-7.657,1.047-11.452v-.458q.1-3.043.2-6.086c.065-6.282-.131-12.629-.262-18.911-.066-2.88-.2-6.61-.393-10.6v-.589c-.523-11.845-1.309-25.652-1.57-25.652a5.336,5.336,0,0,0-1.178-3.01,5.634,5.634,0,0,0-3.272-1.505,2.787,2.787,0,0,0-1.047,0c-1.047.13-1.44,1.177-1.636,2.159-.066.458-.131.916-.2,1.243v.72a3.863,3.863,0,0,0,.458,1.9l.2.392h-.131c-1.374.066-2.945.131-4.581.2h-.327c-1.636.065-3.337.2-5.1.262-2.29.13-4.581.327-6.8.523h0c-6.871.654-12.63,1.832-12.761,4.057-.2,2.552.458,14.528,1.113,27.877.065,1.243.13,2.552.2,3.861v.523c0,.393.065.851.065,1.309.066,1.243.131,2.421.131,3.665v.785c.2,4.908.327,9.75.458,14.2.066,1.832.066,3.6.066,5.235v.262c0,1.963,0,3.73-.066,5.3,0,.066-.72,1.309-1.112,2.029A1.1,1.1,0,0,0,287.566,133.276Z" fill="#fff"/>
            <path id="Контур_23" data-name="Контур 23" d="M294.568,35.381c.2,1.832-.655,2.944,4.122,11.844a.064.064,0,0,0,.066.065l.2.393a16.728,16.728,0,0,1,.851,1.9,19.622,19.622,0,0,0,2.945,5.431c1.243,1.309,2.486,1.178,3.991.851a12.593,12.593,0,0,1,1.767-.262,6.567,6.567,0,0,1,1.963.065,7.971,7.971,0,0,1,5.562,3.076,5.113,5.113,0,0,1,.72,1.178,30.106,30.106,0,0,1,2.356,5.824c2.487,7.918,2.749,16.621,5.3,21.594h0c0,.066.065.131.13.2s.066.131.131.2h0c0,.065.066-.131.131-.458,0-.131.066-.262.066-.393s.065-.261.065-.458c.262-1.5.589-4.122.916-7.067.458-4.188.916-9.031.982-12.237.262-10.274,2.945-12.106,3.075-14,.066-.85-.523-1.7-2.159-3.4-1.505-1.5-3.861-3.73-7.525-7.263-3.011-2.879-6.741-3.927-10.4-4.385-1.963-.261-3.4-.392-4.777-.458l-.458-.458c-.655-.589-1.374-1.178-2.094-1.767-.2-.2-.458-.392-.655-.589l-1.177-.981-2.945-2.552-1.571-1.374c-.2-.2-.523-.524-.785-.393-.327.065-.327.523-.393.785a14.3,14.3,0,0,0-.261,1.636h0A10.239,10.239,0,0,0,294.568,35.381Z"/>
            <path id="Контур_24" data-name="Контур 24" d="M253.145,40.288a4.569,4.569,0,0,0,3.665,2.945h0a.825.825,0,0,0,.393.066h.065a7.337,7.337,0,0,0,1.112.13,5.337,5.337,0,0,0,1.048-.065c.981-.2,1.9-.654,2.879-.916.2-.066.327-.066.523-.131,3.01-.589,5.628,1.832,8.638,1.767,2.29-.066,4.908-1.963,7.2-1.7a4.151,4.151,0,0,0,2.618,1.113,2.028,2.028,0,0,0,2.094-.982c.327-.85-.262-1.9-.458-2.683a24.983,24.983,0,0,1,.2-14.854V24.91h0a37.7,37.7,0,0,1,2.814-6.74h0a26.165,26.165,0,0,1,1.309-2.29c-.066.262-.2.589-.262.851h0a36.728,36.728,0,0,0-1.374,8.376v.458h0v.523c-.131,5.824,1.832,12.106,6.151,16.294a23.084,23.084,0,0,0,7.264,5.17.945.945,0,0,0,.458.131.585.585,0,0,0,.327-.066c.2-.065.262-.2.327-.458,0-.065.065-.2.065-.261.066-1.44-1.112-2.88-1.832-4.058a3.364,3.364,0,0,1,.262-2.421h0c.065-.131.065-.262.131-.327h0a27.973,27.973,0,0,1,1.309-2.879c.065-.131.2-.327.261-.458a9.664,9.664,0,0,1,1.505-2.094c.262-.2.393-.2.459,0a4.358,4.358,0,0,0,.2.523c.2.72.392,1.505.589,2.225.2.982.392,1.963.523,2.879.066.2.066.458.131.655v.131h0c.066.261.131.589.2.85h0c.262,1.178.524,2.356.851,3.534V42.84h0v-.327q0-2.454-.2-4.908a2.206,2.206,0,0,0-.066-.654,79.328,79.328,0,0,0-2.355-13.546,41,41,0,0,0-3.338-9.1c-1.243-2.159-3.272-4.711-5.889-5.1h0a.836.836,0,0,1-.393-.065h-.2a3.836,3.836,0,0,0-3.534,2.421c-1.178-.589-2.421-1.113-3.6-1.571a22.964,22.964,0,0,0-10.666-1.766c-6.021.654-11.256,4.646-14.92,9.292a32.056,32.056,0,0,0-2.945,4.384,30.256,30.256,0,0,0-3.6,11.648C252.753,35.969,252.36,38.325,253.145,40.288ZM289.2,12.281l-1.178,1.767c.131-.328.2-.589.327-.916a7.27,7.27,0,0,1,.458-1.047A.569.569,0,0,0,289.2,12.281Z"/>
            <g id="Сгруппировать_3" data-name="Сгруппировать 3">
                <path id="Контур_25" data-name="Контур 25" d="M287.435,14.7a13.147,13.147,0,0,1,6.282-6.609,12.955,12.955,0,0,1,10.012-.458.14.14,0,0,1-.065.261,12.537,12.537,0,0,0-9.947.524,13.034,13.034,0,0,0-6.02,6.413C287.566,14.964,287.37,14.833,287.435,14.7Z" fill="#999"/>
                <path id="Контур_26" data-name="Контур 26" d="M287.571,15.541a.806.806,0,0,1-.475-.154.775.775,0,0,1-.258-.954,13.8,13.8,0,0,1,6.592-6.928,13.588,13.588,0,0,1,10.521-.486l.069.03a.782.782,0,0,1,.414.884.793.793,0,0,1-.77.618h-.116l-.11-.04A11.812,11.812,0,0,0,294.015,9a12.331,12.331,0,0,0-5.717,6.088l-.05.116-.089.089A.829.829,0,0,1,287.571,15.541Z" fill="#999"/>
            </g>
            <g id="Сгруппировать_4" data-name="Сгруппировать 4">
                <path id="Контур_27" data-name="Контур 27" d="M302.682,41.074a12.845,12.845,0,0,0,2.552,3.6c1.113,1.047,2.683,2.29,4.319,2.159.131,0,.2.2,0,.262-1.57.2-3.075-.916-4.253-1.963a11.308,11.308,0,0,1-2.88-3.927C302.42,41.008,302.617,40.877,302.682,41.074Z" fill="#999"/>
                <path id="Контур_28" data-name="Контур 28" d="M309.181,48.1c-1.777,0-3.343-1.176-4.533-2.235A12.288,12.288,0,0,1,301.52,41.6l-.081-.187V41.2a1.2,1.2,0,0,1,.969-1.195,1.073,1.073,0,0,1,1.176.676,11.815,11.815,0,0,0,2.344,3.293c.507.477,2.121,1.987,3.547,1.876l.078,0a1.1,1.1,0,0,1,1.091.928,1.131,1.131,0,0,1-.78,1.246l-.189.043A3.935,3.935,0,0,1,309.181,48.1Z" fill="#999"/>
            </g>
            <g id="Сгруппировать_5" data-name="Сгруппировать 5">
                <path id="Контур_29" data-name="Контур 29" d="M320.612,35.381c.589,1.963,1.244,3.926,1.832,5.889a19.848,19.848,0,0,0,1.7,4.646,5.29,5.29,0,0,0,3.141,2.552c1.57.458,3.206.458,4.646,1.178a5.083,5.083,0,0,0,1.57,1.309,26.788,26.788,0,0,0,4.385,1.9l.2-.2c-1.178-.458-2.356-.851-3.4-1.374a8.238,8.238,0,0,1-2.355-1.571s-.2-.261-.262-.327a8.885,8.885,0,0,1-1.374-2.421,32.986,32.986,0,0,1-1.767-6.151c0-.131-.262-.066-.262.065a34.635,34.635,0,0,0,1.767,6.151,11.354,11.354,0,0,0,1.178,2.16,22.961,22.961,0,0,0-3.665-.851,5.253,5.253,0,0,1-3.664-2.748,31.02,31.02,0,0,1-1.7-4.908c-.589-1.832-1.112-3.665-1.7-5.5C320.808,35.119,320.547,35.184,320.612,35.381Z" fill="#999"/>
                <path id="Контур_30" data-name="Контур 30" d="M338.047,53.617l-.4-.155c-.326-.128-.659-.252-.992-.377a19.441,19.441,0,0,1-3.5-1.577,5.36,5.36,0,0,1-1.625-1.33,10.006,10.006,0,0,0-2.535-.674,17.55,17.55,0,0,1-1.89-.408,5.955,5.955,0,0,1-3.524-2.852,17.157,17.157,0,0,1-1.574-4.129l-.19-.662c-.292-.973-.6-1.952-.911-2.93s-.623-1.965-.917-2.948a.8.8,0,0,1,.344-.938.822.822,0,0,1,1,.083l.112.112.049.152c.3.919.575,1.839.854,2.758s.554,1.826.847,2.739c.141.439.272.886.4,1.336a19.261,19.261,0,0,0,1.256,3.469,4.575,4.575,0,0,0,3.237,2.415c.322.067.662.129,1,.19.366.066.736.134,1.108.213-.134-.267-.261-.542-.378-.824A35.172,35.172,0,0,1,328.018,41l-.011-.121a.812.812,0,0,1,.83-.791h.218l.5.344.019.288a32.271,32.271,0,0,0,1.726,6,8.309,8.309,0,0,0,1.273,2.25c.028.024.181.221.248.308a7.64,7.64,0,0,0,2.138,1.41,24.8,24.8,0,0,0,2.415,1c.315.118.633.237.95.36l.932.363Z" fill="#999"/>
            </g>
            <g id="Сгруппировать_6" data-name="Сгруппировать 6">
                <path id="Контур_31" data-name="Контур 31" d="M262.9,14.571c.131-.131.261.066.2.2a11.135,11.135,0,0,0-2.487,6.152c0,.131-.261.2-.261,0A12.343,12.343,0,0,1,262.9,14.571Z" fill="#999"/>
                <path id="Контур_32" data-name="Контур 32" d="M260.455,21.7a.757.757,0,0,1-.531-.212.779.779,0,0,1-.235-.566l0-.073a12.952,12.952,0,0,1,2.688-6.679l.053-.059a.756.756,0,0,1,.991-.091.835.835,0,0,1,.253,1.042l-.078.122a10.417,10.417,0,0,0-2.343,5.794A.78.78,0,0,1,260.455,21.7Zm-.495-.877a.538.538,0,0,0-.009.1Z" fill="#999"/>
            </g>
            <path id="Контур_33" data-name="Контур 33" d="M248.041,41.074a3.9,3.9,0,0,0,.458,1.7c.72,1.178,2.029.2,3.01.2,1.506-.065,2.945.589,4.385.458a1.739,1.739,0,0,0,.785-.2h0c.131-.065.262-.065.393-.131.065,0,.065,0,.065-.065.262-.131.589-.327.851-.458.327-.2.589-.393.916-.589l.589-.393a5.877,5.877,0,0,1,2.945-.654c0,.065.065.2.065.261.066.131.262.131.262,0,0-.065-.066-.13-.066-.2.72,0,1.44.131,2.16.2a.14.14,0,0,0,.065-.261c-.72-.066-1.505-.2-2.225-.2-.981-3.73-2.486-7.263-3.8-10.862a52.782,52.782,0,0,1-2.421-7.722,29.444,29.444,0,0,1-.589-3.468.125.125,0,0,0-.2-.066,6.774,6.774,0,0,0-1.964,2.356h0a16.839,16.839,0,0,0-1.5,5.366,34.021,34.021,0,0,1-.719,4.384,11.153,11.153,0,0,1-2.225,4.385,6.792,6.792,0,0,0-1.44,3.8C247.91,39.569,247.976,40.354,248.041,41.074Z"/>
            <path id="Контур_34" data-name="Контур 34" d="M312.254,76.5c-1.787,0-3.344-1.48-4.1-2.195a1.1,1.1,0,0,1,1.553-1.551c1.376,1.3,2.339,1.691,3.317,1.352,1.282-.428,2.173-1.754,2.958-2.932a1.073,1.073,0,0,1,.978-.513,1.12,1.12,0,0,1,1,.708,1.061,1.061,0,0,1-.165,1.055,10.533,10.533,0,0,1-4.151,3.756A3.193,3.193,0,0,1,312.254,76.5Zm-3.918-2.344h0Z" fill="#383838"/>
            <path id="Контур_35" data-name="Контур 35" d="M293.586,217.953a3.582,3.582,0,0,0,3.6.2,2.671,2.671,0,0,0,.916-3.01,3.965,3.965,0,0,0-1.439-1.963,2.726,2.726,0,0,0-3.8.785A3.522,3.522,0,0,0,293.586,217.953Z" fill="#2a3045"/>
            <path id="Контур_36" data-name="Контур 36" d="M274.347,126.8c1.505,2.879,2.945,5.758,4.254,8.768,2.094,4.712,3.4,9.751,5.628,14.462,2.094,4.515,5.627,8.049,8.245,12.237a18.961,18.961,0,0,1,2.683,7.46c.065.458.131.851.2,1.309v.262a49.454,49.454,0,0,0,1.047,6.085,38.064,38.064,0,0,0,3.272,7.264c1.374,2.487,2.748,5.039,4.057,7.525a.065.065,0,0,0,.066.066h.261a.141.141,0,0,0,.131-.131,24.035,24.035,0,0,1,4.515-8.7c1.964-2.422,4.516-4.188,6.806-6.282a16.936,16.936,0,0,0,4.319-6.152c0-.065.065-.13.065-.2v-.065a52.329,52.329,0,0,0,2.029-7.787,38.056,38.056,0,0,1,7.525-15.706c1.833-2.225,4.058-4.188,5.955-6.347A24.332,24.332,0,0,0,339.72,134a46.2,46.2,0,0,0,2.814-9.881c-4.123-1.767-8.245-3.534-12.433-5.3-.066-.065-.2-.065-.262-.131-1.5-.654-2.945-1.243-4.45-1.9-.523-.262-1.112-.458-1.636-.72a71.859,71.859,0,0,0-9.161-2.749,26.651,26.651,0,0,0-12.433.916c-3.992,1.44-7.787,3.4-11.648,5.17-.589.262-1.178.524-1.833.851-2.683,1.243-5.366,2.421-8.048,3.664-.066.066-.131.066-.2.131-.85.393-1.636.785-2.486,1.178l-2.16.982A6.674,6.674,0,0,0,274.347,126.8Z" fill="#fff"/>
            <path id="Контур_37" data-name="Контур 37" d="M255.079,316.908a1.036,1.036,0,0,1-.634-.216c-6.419-4.7-8-12.661-8.363-16.989a55.219,55.219,0,0,1,.263-11.96l0-.025c.448-3.97.911-8.074,1.1-12.1a227.366,227.366,0,0,0-.326-23.847q-.229-3.991-.487-7.985c-.329-5.236-.67-10.65-.888-15.981a166.7,166.7,0,0,1,.659-23.769l.391-3a1.071,1.071,0,0,1,1.089-.978,1.123,1.123,0,0,1,1.132,1.138l-.01.138a140.193,140.193,0,0,0-1.1,23.46c.147,5.868.52,11.843.881,17.621q.185,2.952.361,5.9c.442,7.569.856,15.63.656,23.639-.061,3.605-.3,7.4-.725,11.592l-.14,1.213a94.427,94.427,0,0,0-.836,10.794c-.054,5.445.942,12.97,5.99,17.951a18.331,18.331,0,0,0,1.646,1.4,1.051,1.051,0,0,1,.455.916,1.155,1.155,0,0,1-.736,1A1.065,1.065,0,0,1,255.079,316.908Z"/>
            <g id="Сгруппировать_7" data-name="Сгруппировать 7">
                <path id="Контур_38" data-name="Контур 38" d="M249.415,177.512c.066-.131.262-.131.262.066a54.729,54.729,0,0,0-1.832,16.294c0,.131-.262.2-.262,0A55.169,55.169,0,0,1,249.415,177.512Z" fill="#878787"/>
                <path id="Контур_39" data-name="Контур 39" d="M247.7,194.65a.761.761,0,0,1-.532-.212.778.778,0,0,1-.234-.566,55.505,55.505,0,0,1,1.855-16.532l.046-.121a.8.8,0,0,1,.9-.432.788.788,0,0,1,.6.791l-.023.171a53.972,53.972,0,0,0-1.81,16.1A.8.8,0,0,1,247.7,194.65Zm.541-.826v0Z"/>
            </g>
            <path id="Контур_40" data-name="Контур 40" d="M292.278,99.445a.982.982,0,0,1-.484-1.837c14.969-8.471,20.191-17.47,20.243-17.559a.981.981,0,1,1,1.707.968c-.219.387-5.546,9.564-20.983,18.3A.974.974,0,0,1,292.278,99.445Z" fill="#878787"/>
            <path id="Контур_41" data-name="Контур 41" d="M292.276,52.591a.975.975,0,0,1-.506-.142c-2.858-1.725-6.641-3.419-7.775-3.156a.982.982,0,0,1-.449-1.911c2.489-.587,8.133,2.719,9.239,3.387a.982.982,0,0,1-.509,1.822Z"/>
            <path id="Контур_42" data-name="Контур 42" d="M259.361,50.3a.982.982,0,0,1-.227-1.937c1.256-.3,7.633-1.728,9.829-.41a.981.981,0,1,1-1.01,1.683c-1-.6-5.119-.137-8.363.636A.95.95,0,0,1,259.361,50.3Z"/>
            <path id="Контур_43" data-name="Контур 43" d="M272.99,90.335a11.889,11.889,0,0,1-9.685-4.742.982.982,0,0,1,1.538-1.221c5.948,7.495,15.04,2.341,15.424,2.117a.982.982,0,1,1,.986,1.7A18.5,18.5,0,0,1,272.99,90.335Z"/>
            <path id="Контур_44" data-name="Контур 44" d="M285.879,64.091a2.053,2.053,0,0,1-.9-.213c-2.565-1.32-2.872-6.937-2.908-8.049a.982.982,0,0,1,1.962-.064c.073,2.223.7,5.781,1.824,6.358.017.007.027.012.086-.015.768-.35,1.883-2.8,2.443-4.866a.981.981,0,0,1,1.895.512c-.233.864-1.5,5.216-3.523,6.14A2.117,2.117,0,0,1,285.879,64.091Z"/>
            <path id="Контур_45" data-name="Контур 45" d="M266.117,63.241a2.053,2.053,0,0,1-.9-.213c-2.565-1.321-2.873-6.937-2.909-8.05a.982.982,0,0,1,.949-1.012.993.993,0,0,1,1.013.949c.074,2.222.7,5.78,1.825,6.357.016.007.025.012.086-.015.84-.383,1.959-3.071,2.443-4.865a.981.981,0,1,1,1.9.512c-.233.863-1.5,5.216-3.524,6.139A2.1,2.1,0,0,1,266.117,63.241Z"/>
            <path id="Контур_46" data-name="Контур 46" d="M295.091,37.6c.916,2.356,1.963,4.647,3.01,6.937.459.916.851,1.9,1.309,2.814l.2.392c.261.589.588,1.178.85,1.767.262.458.524.982.785,1.44a11.325,11.325,0,0,0,1.964,2.683,1.193,1.193,0,0,0,1.439.2c.2-.065.393-.2.589-.262a8.784,8.784,0,0,1,1.244-.327,6.785,6.785,0,0,1,3.533.916c.131.066.2.131.327.131.786.458,1.571.916,2.16,1.309a7.577,7.577,0,0,1,1.112.916,7.208,7.208,0,0,1,1.309,1.832h0c.066.2.2.327.262.524h0a10.987,10.987,0,0,1,.654,1.767,16.193,16.193,0,0,1,.458,1.9c0,.131.066.262.066.393l.392,2.945c.2,1.9,0,3.337.262,5.169h0a3.271,3.271,0,0,0-.2.851v.065a3.576,3.576,0,0,0,.589,2.683,9.217,9.217,0,0,0,.85.786,2.342,2.342,0,0,1,.589,1.57,7.711,7.711,0,0,0,.328,2.421c0,.066,0,.066.065.131a6.3,6.3,0,0,0,1.44,1.767,10.384,10.384,0,0,1,.785.982,7.8,7.8,0,0,1,.327,1.7h0a2.812,2.812,0,0,0,1.047,1.571c.066.065.131.13.2.13l.066.066c.2.2.458.393.654.589l.066.065.065.066a9.592,9.592,0,0,0,.524.85.822.822,0,0,0,.13.2.136.136,0,0,0,.262,0h0c.066-.2.066-.393.131-.589,0-.066.066-.131.066-.262h0a5.861,5.861,0,0,0,.327-.982h0c.065-.2.065-.392.131-.588,0-.066.065-.2.065-.262v-.131a10.614,10.614,0,0,0,.131-1.44v-.065a28.206,28.206,0,0,0,.262-4.057,21.2,21.2,0,0,0-.131-2.88,40.81,40.81,0,0,1-.262-6.936,52.878,52.878,0,0,0,.393-6.413,30.613,30.613,0,0,0-6.151-17.407c-2.683-3.337-6.544-5.431-10.6-6.805A36.076,36.076,0,0,0,304.58,37.6c-.524-.065-1.047-.13-1.5-.2l-2.356-.2H300C298.3,37.344,296.727,37.409,295.091,37.6Z"/>
            <path id="Контур_47" data-name="Контур 47" d="M306.281,58.611a9.566,9.566,0,0,1,1.44-2.159h0c.393,1.374-.524,2.748-.851,3.991a15.411,15.411,0,0,0-.523,2.945c0,.262-.066.458-.066.72a25.331,25.331,0,0,0,.2,4.973,23.208,23.208,0,0,0,.458,2.291,4.578,4.578,0,0,0,2.944,3.337.064.064,0,0,1,.066.065h0c.065.066.2.066.327.131.065,0,.131.066.262.066s.327.065.523.065h0a4.742,4.742,0,0,0,2.16-.523,8.55,8.55,0,0,0,2.617-1.964h0a11.09,11.09,0,0,0,.72-.916h0l.393-.589a11.993,11.993,0,0,0,.916-1.832c.458-1.178.916-2.356,1.309-3.6a19.83,19.83,0,0,0,.589-2.683,11.144,11.144,0,0,0-.982-6.478,5.052,5.052,0,0,0-3.6-2.749,7.868,7.868,0,0,0-4.712.655c-.065.065-.131.065-.2.131a9.074,9.074,0,0,0-1.7,1.047,8.362,8.362,0,0,0-2.422,3.01C306.019,58.676,306.216,58.807,306.281,58.611Z" fill="#fff"/>
            <path id="Контур_48" data-name="Контур 48" d="M312.171,70.913a.981.981,0,0,1-.64-1.725c1.655-1.424,2.448-2.821,2.356-4.151-.138-2-2.224-3.36-2.245-3.374a.982.982,0,0,1,1.055-1.656c.119.076,2.93,1.892,3.147,4.877.144,1.988-.876,3.936-3.033,5.792A.981.981,0,0,1,312.171,70.913Z" fill="#383838"/>
            <g id="Сгруппировать_9" data-name="Сгруппировать 9">
                <g id="Сгруппировать_8" data-name="Сгруппировать 8">
                    <path id="Контур_49" data-name="Контур 49" d="M350.583,128.761c2.748,12.368-2.225,24.866,1.505,37.169.589,2.028,1.243,4.188-.916,5.169-1.767.786-3.076.262-4.843-.261a37.127,37.127,0,0,0-8.441-1.7,33.006,33.006,0,0,0-16.949,3.337c-1.439.72-.2,2.88,1.309,2.16a31.7,31.7,0,0,1,23.1-1.636c3.926,1.243,9.75,1.963,10.012-3.795.131-2.88-1.309-5.694-1.767-8.507a47.368,47.368,0,0,1-.262-11.387c.458-7.132,1.244-14.069-.654-21.071-.524-1.243-2.421-.72-2.094.524Z"/>
                </g>
            </g>
            <g id="Сгруппировать_11" data-name="Сгруппировать 11">
                <g id="Сгруппировать_10" data-name="Сгруппировать 10">
                    <path id="Контур_50" data-name="Контур 50" d="M270.356,126.994a45.214,45.214,0,0,0-2.814,10.077c-.393,3.469.392,6.479.916,9.816,1.178,7.526-4.45,14.331-3.534,21.726.72,5.758,7,4.384,10.732,2.944a5.958,5.958,0,0,1,5.824.393,30.187,30.187,0,0,0,4.385,2.159c2.944,1.047,6.02,1.113,8.7-.654a1.893,1.893,0,0,0-1.9-3.272c-5.889,2.683-9.554-3.861-15.182-2.748-2.159.392-4.515,2.356-6.74,2.225-4.253-.262-1.9-6.675-1.178-9.162,1.375-4.777,2.814-9.488,1.964-14.462-.524-2.879-1.178-5.5-.917-8.441a52.279,52.279,0,0,1,2.029-10.012,1.187,1.187,0,0,0-2.29-.589Z"/>
                </g>
            </g>
            <path id="Контур_51" data-name="Контур 51" d="M428.192,320.1a.655.655,0,0,1-.63-.478c-.81-2.9.449-14.6.5-15.1,1.268-7.358-2.278-16.481-2.313-16.573-1.773-4.333-3.186-13.5-3.245-13.883a.553.553,0,0,1-.007-.081l-.393-14.724a146.5,146.5,0,0,0-2.669-28.545c-.623-3.428-5.018-17.768-5.334-18.8-1.8-3.49-2.408-12.035-2.463-12.852-.915-4.2-2.236-20.23-2.292-20.913a59.606,59.606,0,0,0-3.746-15.633c-4.57-14.022-18.51-18.894-18.65-18.941-.023-.008-.045-.017-.067-.027-.96-.448-44.107-18.783-44.542-18.968L325.2,117.323a.656.656,0,0,1-.37-.8c.183-1.329-.345-19.258-.748-31.064a.654.654,0,0,1,.631-.676.644.644,0,0,1,.677.631c.781,22.893.817,29.109.737,30.876l16.729,7.087c1.766.751,42.927,18.242,44.552,18.972.808.287,14.777,5.456,19.42,19.71a59.634,59.634,0,0,1,3.825,15.973c.015.179,1.382,16.766,2.278,20.8a.687.687,0,0,1,.014.1c.006.091.6,9.127,2.347,12.431a.667.667,0,0,1,.047.114c.193.626,4.73,15.39,5.384,18.987a147.77,147.77,0,0,1,2.694,28.79l.391,14.653c.1.673,1.5,9.5,3.159,13.554.155.394,3.719,9.558,2.395,17.241-.355,3.274-1.154,12.359-.538,14.568a.654.654,0,0,1-.454.806A.685.685,0,0,1,428.192,320.1ZM325.455,116.72h0Z"/>
            <path id="Контур_52" data-name="Контур 52" d="M274.544,127.125a.654.654,0,0,1-.264-1.253l13.859-6.1-.667-18.44c-6.7,3.217-12.348,3.9-16.789,2.036A12.328,12.328,0,0,1,264,96.38c-10.674-18.121-7.395-53.917-7.251-55.434a.654.654,0,1,1,1.3.125c-.035.367-3.389,36.97,7.11,54.7a.616.616,0,0,1,.061.136,11.178,11.178,0,0,0,5.989,6.257c4.269,1.783,9.849.957,16.583-2.456a.654.654,0,0,1,.95.56l.72,19.894a.653.653,0,0,1-.39.622l-14.266,6.282A.645.645,0,0,1,274.544,127.125Z"/>
            <path id="Контур_53" data-name="Контур 53" d="M275.133,78.766a.654.654,0,0,1-.169-.022c-3.226-.862-7.086-2.2-7.16-3.675-.068-1.362,3.984-10.394,5.228-13.129a.654.654,0,1,1,1.191.541c-2.462,5.416-5.015,11.5-5.109,12.486.349.554,3.2,1.714,6.188,2.512a.655.655,0,0,1-.169,1.287ZM269.1,74.938"/>
            <path id="Контур_54" data-name="Контур 54" d="M219.707,32.763a8.347,8.347,0,0,0-6.283-4.712c-7.263-1.766-13.742.655-20.089,4.058-6.02,3.272-11.452,7.2-15.705,12.629a43.949,43.949,0,0,0-8.507,18c-.72,3.337-1.178,7,.72,10.012.458.72,1.832,12.629,6.151,16.948,17.668,17.8,22.445,16.621,28.858,15.313,2.421-.458,8.245-4.777,11.386-12.63,4.057-10.208,6.413-22.183,6.61-26.764.065-1.243.261-4.188.327-8.049,0-1.44.065-2.945,0-4.581C223.044,46.112,222.324,38.129,219.707,32.763Z" fill="#fff"/>
            <rect id="Прямоугольник_17" data-name="Прямоугольник 17" width="394.515" height="238.581" transform="translate(-4.216 295.01) rotate(-80.496)" fill="none"/>
            <ellipse id="Эллипс_1" data-name="Эллипс 1" cx="4.253" cy="2.029" rx="4.253" ry="2.029" transform="translate(191.239 69.694) rotate(-88.643)"/>
            <path id="Контур_55" data-name="Контур 55" d="M218.4,65.089c-.066,2.356-.982,4.254-2.094,4.188-1.113,0-1.963-1.963-1.9-4.318s.982-4.254,2.094-4.188S218.463,62.734,218.4,65.089Z"/>
            <path id="Контур_56" data-name="Контур 56" d="M224.156,42.971a91.672,91.672,0,0,0-2.028-9.357c-.72-2.618-1.833-5.432-3.927-7.264-2.094-1.767-4.973-2.159-7.59-2.29a23.694,23.694,0,0,0-9.293,1.505c0-.131-.065-.262-.065-.393a.141.141,0,0,0-.262.066c0,.13.066.261.066.392-.066,0-.066.066-.131.066-.655-.066-1.374-.131-1.963-.2a14.011,14.011,0,0,0-5.628.982,41.77,41.77,0,0,0-11.19,4.973,35.654,35.654,0,0,0-8.114,8.18,68,68,0,0,0-6.282,9.881,28.622,28.622,0,0,0-3.207,10.8c-.065.459-.2,1.244.393,1.44.327.131.654-.065.981-.2l1.767-.589,6.479-2.16c1.9-.654,4.057-1.112,5.693-2.29a10.325,10.325,0,0,0,2.879-3.6c.785-1.505,1.309-3.076,2.029-4.581a17.425,17.425,0,0,1,3.141-4.711,18.468,18.468,0,0,1,4.449-3.665,45.736,45.736,0,0,0,4.908-2.879c2.749-2.094,3.73-5.431,3.927-8.769a13.464,13.464,0,0,0,0-2.29,15.463,15.463,0,0,0,2.879,6.217,16.429,16.429,0,0,0,5.758,4.057,48.753,48.753,0,0,1,6.61,3.468,13.8,13.8,0,0,1,2.683,2.487,10.879,10.879,0,0,1,1.636,3.664c.654,2.487,1.177,5.3,3.533,6.74a.126.126,0,0,0,.2-.065A33.825,33.825,0,0,0,224.156,42.971ZM204.263,24.91a4.01,4.01,0,0,1-2.748.786A21.643,21.643,0,0,1,204.263,24.91Z" fill="#0abab5"/>
            <path id="Контур_57" data-name="Контур 57" d="M175.012,106.708a11.815,11.815,0,0,0-.523-2.552c-.655-1.767-1.7-3.272-2.356-5.039a17.773,17.773,0,0,1-1.047-5.5,35.4,35.4,0,0,1,.654-5.889,17.508,17.508,0,0,0-.065-5.235,29.91,29.91,0,0,0-3.861-9.881c-1.374-2.356-3.206-4.646-4.384-7.2h0c.065-.066,0-.2-.131-.2a9.874,9.874,0,0,1-.851-5.169.141.141,0,0,0-.262-.066,8.952,8.952,0,0,0,.917,5.366,17.657,17.657,0,0,0-2.945,3.665,10.255,10.255,0,0,0-1.047,4.842c-.131,3.926-.785,7.853-.851,11.844a45.056,45.056,0,0,0,1.44,11.452c.458,1.9,1.047,3.8,1.636,5.693.261.851.523,1.767.85,2.618.2.523,2.16,1.963,5.563,2.356,1.57.2,2.813,1.766,4.319,2.224A2.144,2.144,0,0,0,174.816,109,3.935,3.935,0,0,0,175.012,106.708Z" fill="#0abab5"/>
            <path id="Контур_58" data-name="Контур 58" d="M175.536,72.811a28.8,28.8,0,0,0-.785-3.4,19,19,0,0,0-.917-3.141A4.4,4.4,0,0,0,172.4,64.3c-.393-.262,1.112-1.7.72-1.832a8.02,8.02,0,0,0-4.712-2.421,4.81,4.81,0,0,0-4.581,2.094,9.423,9.423,0,0,0-1.178,5.169,14.285,14.285,0,0,0,3.73,9.358,10.2,10.2,0,0,0,4.123,2.945,3.708,3.708,0,0,0,3.992-1.571A6.225,6.225,0,0,0,175.536,72.811Z" fill="#fff"/>
            <path id="Контур_59" data-name="Контур 59" d="M171.883,80.281a.785.785,0,0,1-.7-.436.745.745,0,0,1,.334-1.01,2.026,2.026,0,0,0,1.082-2.021c0-.026,0-.051,0-.077a.787.787,0,0,1,1.569-.051,3.509,3.509,0,0,1-1.917,3.509A.81.81,0,0,1,171.883,80.281Zm.257-.3-.026.014Zm2.021-3.247h0Z" fill="#383838"/>
            <g id="Сгруппировать_12" data-name="Сгруппировать 12">
                <path id="Контур_60" data-name="Контур 60" d="M168.8,43.56c-2.225,3.6-4.254,7.4-4.712,11.648,0,.131.2.131.262,0,.458-4.188,2.486-7.983,4.646-11.582C169.123,43.56,168.927,43.429,168.8,43.56Z"/>
                <path id="Контур_61" data-name="Контур 61" d="M164.189,55.961a.8.8,0,0,1-.18-.021.748.748,0,0,1-.579-.732l0-.07c.476-4.414,2.591-8.339,4.806-11.922l.093-.118a.83.83,0,0,1,.884-.194.727.727,0,0,1,.473.637.693.693,0,0,1-.19.511c-1.948,3.254-4.047,7.066-4.5,11.227l-.013.116-.051.1A.836.836,0,0,1,164.189,55.961Z"/>
            </g>
            <g id="Сгруппировать_13" data-name="Сгруппировать 13">
                <path id="Контур_62" data-name="Контур 62" d="M196.476,18.3a.144.144,0,0,0-.2.2c2.225,1.636,4.253,3.861,4.253,6.741,0,.13.262.13.262,0C200.795,22.227,198.7,19.937,196.476,18.3Z"/>
                <path id="Контур_63" data-name="Контур 63" d="M200.664,25.99a.761.761,0,0,1-.785-.752c0-2.178-1.342-4.268-3.987-6.213l-.127-.094-.07-.14a.8.8,0,0,1,1.074-1.075l.094.058c3.043,2.238,4.586,4.749,4.586,7.464A.761.761,0,0,1,200.664,25.99Z"/>
            </g>
            <g id="Сгруппировать_14" data-name="Сгруппировать 14">
                <path id="Контур_64" data-name="Контур 64" d="M220.819,32.37c-.131-.131-.262.066-.2.2a13,13,0,0,1,3.206,7.59c0,.131.262.131.262,0A13.464,13.464,0,0,0,220.819,32.37Z"/>
                <path id="Контур_65" data-name="Контур 65" d="M223.96,40.91a.761.761,0,0,1-.785-.753A12.322,12.322,0,0,0,220.13,33l-.093-.139a.836.836,0,0,1,.253-1.043.758.758,0,0,1,.992.092l.028.03a14.143,14.143,0,0,1,3.433,8.162A.771.771,0,0,1,223.96,40.91Zm.517-.863,0,.065A.464.464,0,0,0,224.477,40.047Z"/>
            </g>
            <g id="Сгруппировать_15" data-name="Сгруппировать 15">
                <path id="Контур_66" data-name="Контур 66" d="M226.381,68.558a.141.141,0,0,0-.262.065,16.061,16.061,0,0,1-.392,8.965c-.066.131.2.2.262.066A15.371,15.371,0,0,0,226.381,68.558Z"/>
                <path id="Контур_67" data-name="Контур 67" d="M225.857,78.381a.836.836,0,0,1-.377-.09.767.767,0,0,1-.353-.361.734.734,0,0,1-.012-.576,15.461,15.461,0,0,0,.368-8.579l-.018-.152a.792.792,0,0,1,.617-.769.779.779,0,0,1,.884.41l.049.132a16.037,16.037,0,0,1-.411,9.481l-.03.07A.8.8,0,0,1,225.857,78.381Z"/>
            </g>
            <g id="Сгруппировать_16" data-name="Сгруппировать 16">
                <path id="Контур_68" data-name="Контур 68" d="M159.176,48.141a14.881,14.881,0,0,0-1.243,10.339.141.141,0,0,0,.262-.065,14.39,14.39,0,0,1,1.243-10.143C159.438,48.076,159.242,47.945,159.176,48.141Z"/>
                <path id="Контур_69" data-name="Контур 69" d="M158.048,59.206a.781.781,0,0,1-.7-.433l-.051-.137a15.626,15.626,0,0,1,1.282-10.765.753.753,0,0,1,.819-.472.868.868,0,0,1,.694.873v.16l-.074.142a13.75,13.75,0,0,0-1.189,9.682l.02.159a.792.792,0,0,1-.617.769A.777.777,0,0,1,158.048,59.206Z"/>
            </g>
            <g id="Сгруппировать_17" data-name="Сгруппировать 17">
                <path id="Контур_70" data-name="Контур 70" d="M150.146,105.4c-2.683-2.486-2.683-6.347-2.225-9.75a.141.141,0,0,0-.262-.065c-.523,3.468-.523,7.46,2.225,10.012C150.08,105.661,150.277,105.53,150.146,105.4Z"/>
                <path id="Контур_71" data-name="Контур 71" d="M149.988,106.267a.965.965,0,0,1-.311-.051l-.134-.045-.1-.1c-3.165-2.938-2.9-7.45-2.427-10.589l.062-.195a.782.782,0,0,1,.884-.412.793.793,0,0,1,.617.77l0,.087c-.408,3.026-.546,6.8,2.021,9.183l.017.018a.75.75,0,0,1,.123.94A.865.865,0,0,1,149.988,106.267Z"/>
            </g>
            <g id="Сгруппировать_18" data-name="Сгруппировать 18">
                <path id="Контур_72" data-name="Контур 72" d="M154.792,104.68a6.62,6.62,0,0,1-3.6-4.516.141.141,0,0,0-.262.066,6.793,6.793,0,0,0,3.665,4.646C154.792,105.007,154.923,104.81,154.792,104.68Z"/>
                <path id="Контур_73" data-name="Контур 73" d="M154.722,105.573a.87.87,0,0,1-.436-.12,7.413,7.413,0,0,1-3.994-5.079l-.015-.144a.792.792,0,0,1,.617-.77.783.783,0,0,1,.884.412l.052.144a5.982,5.982,0,0,0,3.237,4.07l.106.049.082.082a.8.8,0,0,1,.068,1.073A.767.767,0,0,1,154.722,105.573Z"/>
            </g>
            <g id="Сгруппировать_19" data-name="Сгруппировать 19">
                <path id="Контур_74" data-name="Контур 74" d="M211.723,88.516a20.447,20.447,0,0,1-15.9-1.047s3.01,7.657,7.918,8.507C208.713,96.892,211.723,88.516,211.723,88.516Z" fill="#fff"/>
                <path id="Контур_75" data-name="Контур 75" d="M204.511,97.03a5.3,5.3,0,0,1-.949-.088c-5.38-.933-8.523-8.78-8.654-9.113a.981.981,0,0,1,1.355-1.236,19.538,19.538,0,0,0,15.085,1.016.982.982,0,0,1,1.3,1.239C212.52,89.2,209.644,97.03,204.511,97.03Zm-6.648-7.62c1.215,2.161,3.342,5.131,6.044,5.6,2.723.5,4.9-2.741,6.03-4.93A21.605,21.605,0,0,1,197.863,89.41Z"/>
            </g>
            <path id="Контур_76" data-name="Контур 76" d="M220.1,56.779a.652.652,0,0,1-.24-.046,13.5,13.5,0,0,0-7-.626.655.655,0,0,1-.3-1.274,14.607,14.607,0,0,1,7.786.683.654.654,0,0,1-.241,1.263Z"/>
            <path id="Контур_77" data-name="Контур 77" d="M191.11,56.91a.655.655,0,0,1-.231-1.267,15.247,15.247,0,0,1,7.837-.418.654.654,0,1,1-.292,1.275,14.2,14.2,0,0,0-7.083.367A.647.647,0,0,1,191.11,56.91Z"/>
            <path id="Контур_78" data-name="Контур 78" d="M169.449,73.138a.651.651,0,0,1-.347-.1,5,5,0,0,1-2.245-3.443c-.108-1.416.62-2.812,2.165-4.15a.654.654,0,1,1,.856.99c-1.214,1.051-1.791,2.08-1.716,3.06a3.748,3.748,0,0,0,1.636,2.434.655.655,0,0,1-.349,1.209Z" fill="#383838"/>
            <path id="Контур_79" data-name="Контур 79" d="M218.2,61.425a.327.327,0,0,1-.3-.467l1.047-2.225a.328.328,0,0,1,.593.279L218.5,61.237A.329.329,0,0,1,218.2,61.425Z"/>
            <path id="Контур_80" data-name="Контур 80" d="M216.3,60.64h-.027a.327.327,0,0,1-.3-.353l.2-2.421a.333.333,0,0,1,.353-.3.328.328,0,0,1,.3.353l-.2,2.421A.328.328,0,0,1,216.3,60.64Z"/>
            <path id="Контур_81" data-name="Контур 81" d="M214.733,61.163a.326.326,0,0,1-.3-.188L213.39,58.75a.327.327,0,0,1,.593-.278l1.046,2.225a.327.327,0,0,1-.3.466Z"/>
            <path id="Контур_82" data-name="Контур 82" d="M191.438,61.621a.326.326,0,0,1-.295-.184l-1.047-2.16a.327.327,0,1,1,.589-.285l1.047,2.159a.326.326,0,0,1-.152.437A.314.314,0,0,1,191.438,61.621Z"/>
            <path id="Контур_83" data-name="Контур 83" d="M193.335,60.836a.328.328,0,0,1-.327-.31l-.131-2.421a.327.327,0,0,1,.654-.035l.131,2.421a.329.329,0,0,1-.309.345Z"/>
            <path id="Контур_84" data-name="Контур 84" d="M194.971,61.359a.333.333,0,0,1-.136-.029.327.327,0,0,1-.162-.433l.982-2.16a.327.327,0,0,1,.6.271l-.981,2.16A.328.328,0,0,1,194.971,61.359Z"/>
            <path id="Контур_85" data-name="Контур 85" d="M205.833,81.449a.654.654,0,0,1-.175-1.285,15.146,15.146,0,0,0,4.681-1.926c-.168-.88-2.127-5.67-3.993-9.942a.655.655,0,0,1,1.2-.524c1.236,2.832,4.112,9.527,4.112,10.536,0,1.024-1.9,2.073-5.649,3.117A.661.661,0,0,1,205.833,81.449Z"/>
            <path id="Контур_86" data-name="Контур 86" d="M307.2,332.863h-2.159v-1.182a74.051,74.051,0,0,1-.2-12.606v-.413A103.518,103.518,0,0,0,304.455,303c-.348-3.524-.879-7.105-1.392-10.569-.262-1.77-.524-3.54-.764-5.31l0-.01a126.49,126.49,0,0,1-1.186-15.761,89.688,89.688,0,0,1,1.915-13.649q.2-1.02.393-2.043a73.5,73.5,0,0,0,1.292-15.5c-.115-4.5-.488-9.361-1.172-15.29l-.28-2.537c-1.035-9.333-2.106-18.983-.83-28.527l.217-1.286c.022-.087.032-.164.044-.236.016-.109.034-.211.057-.312l.01-.2a3.3,3.3,0,0,1,.7-1.341,4.813,4.813,0,0,0,.427-.664l.021-.167.063-.092a1.122,1.122,0,0,1,2.121.506l-.006.108a3.945,3.945,0,0,1-.738,1.576,4.829,4.829,0,0,0-.386.65c-1.553,9.589-.491,19.409.535,28.9l.131,1.174c1.073,9.618,2.182,19.562.781,29.368-.322,2.4-.806,4.807-1.274,7.134a88.355,88.355,0,0,0-1.469,8.854,72.549,72.549,0,0,0,.391,15.567c.349,3.124.8,6.288,1.234,9.348,1.032,7.255,2.1,14.756,1.913,22.327,0,1.246-.067,2.458-.132,3.629-.018.586-.039,1.2-.061,1.808a68.961,68.961,0,0,0,.186,10.778l.007.644Z"/>
        </g>
    </g>
</svg>
