<svg version="1.1" id="Capa_1" xmlns="http://www.w3.org/2000/svg" xmlns:xlink="http://www.w3.org/1999/xlink" x="0px" y="0px"
	 viewBox="0 0 27.4 31.4" style="enable-background:new 0 0 27.4 31.4;" xml:space="preserve">
<g>
	<path class="st0" d="M20.3,0H7.1C5.8,0,4.8,1,4.8,2.3v26.9c0,1.3,1,2.3,2.3,2.3h13.2c1.3,0,2.3-1,2.3-2.3V2.3C22.6,1,21.6,0,20.3,0
		z M10.5,1.4H17c0.2,0,0.3,0.2,0.3,0.6S17.2,2.5,17,2.5h-6.5c-0.2,0-0.3-0.2-0.3-0.6C10.2,1.6,10.3,1.4,10.5,1.4z M13.7,29.2
		c-0.8,0-1.5-0.7-1.5-1.5c0-0.8,0.7-1.5,1.5-1.5c0.8,0,1.5,0.7,1.5,1.5C15.2,28.5,14.5,29.2,13.7,29.2z M20.9,24.2H6.5V3.9h14.4
		C20.9,3.9,20.9,24.2,20.9,24.2z"/>
</g>
</svg>
