<svg xmlns="http://www.w3.org/2000/svg" xmlns:xlink="http://www.w3.org/1999/xlink" width="222" height="222" viewBox="0 0 222 222">
    <defs>
        <clipPath id="clip-path">
            <rect id="Прямоугольник_1" data-name="Прямоугольник 1" width="222" height="222" transform="translate(145)" fill="none"/>
        </clipPath>
    </defs>
    <g id="Сгруппировать_194" data-name="Сгруппировать 194" transform="translate(-145)">
        <g id="Сгруппировать_4" data-name="Сгруппировать 4">
            <g id="Сгруппировать_3" data-name="Сгруппировать 3">
                <g id="Сгруппировать_2" data-name="Сгруппировать 2">
                    <g id="Сгруппировать_1" data-name="Сгруппировать 1" clip-path="url(#clip-path)">
                        <path id="Контур_1" data-name="Контур 1" d="M249.542,107.263H249.5a.433.433,0,0,1-.393-.469l1.34-15.163a.432.432,0,0,1,.86.076l-1.339,15.163A.432.432,0,0,1,249.542,107.263Z"/>
                    </g>
                </g>
            </g>
        </g>
        <g id="Сгруппировать_8" data-name="Сгруппировать 8">
            <g id="Сгруппировать_7" data-name="Сгруппировать 7">
                <g id="Сгруппировать_6" data-name="Сгруппировать 6">
                    <g id="Сгруппировать_5" data-name="Сгруппировать 5" clip-path="url(#clip-path)">
                        <path id="Контур_2" data-name="Контур 2" d="M282.373,115.212s7.733,113.873,10.065,134.479,0,32.14,2.765,47.173c2.765,15.076,2.333,31.319,3.931,31.708s20.218-3.585,24.192-3.585,2.117-12.312,2.03-19.44c-.043-7.128-9.936-134.695-11.793-144.976-1.858-10.325-2.16-22.982-7.43-29.332C300.862,124.932,282.373,115.212,282.373,115.212Z" fill="#414141"/>
                    </g>
                </g>
            </g>
        </g>
        <g id="Сгруппировать_13" data-name="Сгруппировать 13">
            <g id="Сгруппировать_12" data-name="Сгруппировать 12">
                <g id="Сгруппировать_11" data-name="Сгруппировать 11">
                    <g id="Сгруппировать_10" data-name="Сгруппировать 10" clip-path="url(#clip-path)">
                        <g id="Сгруппировать_9" data-name="Сгруппировать 9">
                            <path id="Контур_3" data-name="Контур 3" d="M189.149,151.283,186,150.938c0-.173,2.073-18.014,17.712-21.427a10.956,10.956,0,0,1,9.633,1.987c6.739,5.529,6.566,19.008,6.566,19.612l-3.153-.043c0-.129.129-12.528-5.4-17.107-1.858-1.512-4.1-1.944-6.955-1.339C191.007,135.515,189.236,150.635,189.149,151.283Z" fill="#69b8b3"/>
                        </g>
                    </g>
                </g>
            </g>
        </g>
        <g id="Сгруппировать_17" data-name="Сгруппировать 17">
            <g id="Сгруппировать_16" data-name="Сгруппировать 16">
                <g id="Сгруппировать_15" data-name="Сгруппировать 15">
                    <g id="Сгруппировать_14" data-name="Сгруппировать 14" clip-path="url(#clip-path)">
                        <path id="Контур_4" data-name="Контур 4" d="M205.565,142.255s-25.358,1.987-32.529,8.337c-7.128,6.35-28.554,95.556-25.79,107.609,5.141,22.291,51.407,22.507,51.407,22.507Z" fill="#69b8b3"/>
                    </g>
                </g>
            </g>
        </g>
        <g id="Сгруппировать_21" data-name="Сгруппировать 21">
            <g id="Сгруппировать_20" data-name="Сгруппировать 20">
                <g id="Сгруппировать_19" data-name="Сгруппировать 19">
                    <g id="Сгруппировать_18" data-name="Сгруппировать 18" clip-path="url(#clip-path)">
                        <path id="Контур_5" data-name="Контур 5" d="M368.858,232.8c-5.919-7.387-11.88-14.731-18.446-21.6a128.686,128.686,0,0,0-10.282-9.72c-1.425-1.209-2.937-2.376-4.406-3.585-2.981-10.713-6.739-21.038-13.046-30.542a37.647,37.647,0,0,1-5.27-10.843,106.736,106.736,0,0,0-3.024-10.411,54.316,54.316,0,0,0-9.72-16.2c-.173-.864-1.512-.864-1.555-.044a.612.612,0,0,0,.043.6q2.527,28.188,5.1,56.332,1.232,13.8,2.506,27.6c.6,6.825,1.037,13.91,3.369,20.39A23.053,23.053,0,0,0,324.881,247.7c3.8,2.074,7.862,3.759,11.793,5.573,3.629,1.685,7.258,3.845,11.059,5.1,2.549.864,4.277.172,6.135-1.642,3.5-3.326,6.609-7.171,9.892-10.713,2.031-2.2,5.918-5.1,7.128-7.906C371.882,235.953,370.2,234.485,368.858,232.8Z" fill="#414141"/>
                    </g>
                </g>
            </g>
        </g>
        <g id="Сгруппировать_25" data-name="Сгруппировать 25">
            <g id="Сгруппировать_24" data-name="Сгруппировать 24">
                <g id="Сгруппировать_23" data-name="Сгруппировать 23">
                    <g id="Сгруппировать_22" data-name="Сгруппировать 22" clip-path="url(#clip-path)">
                        <path id="Контур_6" data-name="Контур 6" d="M318.444,45.445a7.307,7.307,0,0,0-2.03-4.017c-.475-.6-.95-1.21-1.382-1.771,1.641-7.171,1.512-15.6-5.832-19.44-2.247-1.166-4.536-1.814-6.48-3.585-1.037-.951-2.03-1.944-3.067-2.895a6.609,6.609,0,0,0,4.06-1.987c2.506-2.981-.259-5.573-3.326-5.961-5.875-.778-11.62-2.333-17.625-2.419a40.826,40.826,0,0,0-7.949.216c-.691-.389-1.382-.735-2.073-1.08-4.018-1.944-7.906-1.08-11.966.388-7,2.506-13.479,6.48-17.626,12.7a13.418,13.418,0,0,0-6.912,5.832c-7,5.572-9.979,14.731-9.028,23.759a63.5,63.5,0,0,0,1.512,7.474c.648,2.937.345,5.745.648,8.683.475,4.406,3.283,7.516,6.523,10.2,2.765,6,6.7,11.361,10.843,16.545,1.771,2.246,3.283,4.449,6.393,4.32,3.888-.13,8.295-2.808,11.837-4.277a165.384,165.384,0,0,0,23.414-11.88c3.931-2.419,8.6-4.8,12.182-8.035a.843.843,0,0,0,.95.562c4.277-.734,8.77-2.2,11.491-5.789,2.376-3.153,1.858-5.745,1.642-9.288C314.556,50.759,318.7,48.988,318.444,45.445Z" fill="#69b8b3"/>
                    </g>
                </g>
            </g>
        </g>
        <g id="Сгруппировать_29" data-name="Сгруппировать 29">
            <g id="Сгруппировать_28" data-name="Сгруппировать 28">
                <g id="Сгруппировать_27" data-name="Сгруппировать 27">
                    <g id="Сгруппировать_26" data-name="Сгруппировать 26" clip-path="url(#clip-path)">
                        <path id="Контур_7" data-name="Контур 7" d="M248.851,118.97l10.67,5.918,21.384.821,1.037-7.517.6-4.147,1.339-9.547.821-5.745L252.263,81.646l-1.037,11.1-.173,2.29-.6,6.437Z" fill="#fff"/>
                    </g>
                </g>
            </g>
        </g>
        <g id="Сгруппировать_33" data-name="Сгруппировать 33">
            <g id="Сгруппировать_32" data-name="Сгруппировать 32">
                <g id="Сгруппировать_31" data-name="Сгруппировать 31">
                    <g id="Сгруппировать_30" data-name="Сгруппировать 30" clip-path="url(#clip-path)">
                        <path id="Контур_8" data-name="Контур 8" d="M309.07,54.388v2.2c0,1.9,0,3.8-.043,5.7-.043,8.165.043,16.934-2.2,24.84A30.9,30.9,0,0,1,298.961,101a26.6,26.6,0,0,1-2.332,2.074c-5.357,4.19-12.96,5.4-19.57,4.363A39.512,39.512,0,0,1,255.5,96.248a50.271,50.271,0,0,1-3.758-4.277c-8.294-10.67-15.768-43.718-13.133-51.45,3.932-11.621,32.227-19.051,44.971-16.805s23.63,6.653,24.407,11.88A142.514,142.514,0,0,1,309.07,54.388Z" fill="#fff"/>
                    </g>
                </g>
            </g>
        </g>
        <g id="Сгруппировать_37" data-name="Сгруппировать 37">
            <g id="Сгруппировать_36" data-name="Сгруппировать 36">
                <g id="Сгруппировать_35" data-name="Сгруппировать 35">
                    <g id="Сгруппировать_34" data-name="Сгруппировать 34" clip-path="url(#clip-path)">
                        <path id="Контур_9" data-name="Контур 9" d="M288.378,19.742a72.83,72.83,0,0,0-19.051-2.333c-6.566.043-11.059,3.759-16.459,7.128-3.24,2.03-6.437,4.061-9.677,6.091-2.289,1.426-4.924,2.722-6.436,5.054-1.3,2.074-1.6,4.709-1.9,7.085a92.362,92.362,0,0,0-.821,11.448l-.518-.389c-.734-.691-1.858.432-1.123,1.123,1.685,1.555,4.19,3.327,6.609,3.327a5.733,5.733,0,0,0,2.2-.562,28.469,28.469,0,0,1,4.277-.691c3.974-.864,6.091-4.1,7.43-7.69a17.313,17.313,0,0,0,5.055-3.931c1.987-2.419,1.771-5.443,3.456-7.9a28.536,28.536,0,0,1-.994,5.745c-.734,2.376-2.29,3.629-3.672,5.487-2.117,2.851-.432,5.313,2.894,3.628,2.506-1.3,4.277-4.276,5.53-6.7.821-1.555,1.3-3.326,2.117-4.881.864-1.555,2.246-2.635,3.153-4.147,1.685-2.808,1.858-7.171,1.08-11.016,2.03-.389,6.35,1.771,8.078,2.03,2.333.389,4.45-.086,6.783-.172,6.35-.3,9.806,3.542,13.866,7.343a15.3,15.3,0,0,0,2.16,2.9c1.253,1.253,2.808,2.073,3.888,3.542.648.864.994,1.9,1.728,2.722,2.333,2.5,3.845.82,4.147-2.117C313.563,29.03,298.529,22.377,288.378,19.742Z" fill="#69b8b3"/>
                    </g>
                </g>
            </g>
        </g>
        <g id="Сгруппировать_41" data-name="Сгруппировать 41">
            <g id="Сгруппировать_40" data-name="Сгруппировать 40">
                <g id="Сгруппировать_39" data-name="Сгруппировать 39">
                    <g id="Сгруппировать_38" data-name="Сгруппировать 38" clip-path="url(#clip-path)">
                        <path id="Контур_10" data-name="Контур 10" d="M314.081,38.49a40.109,40.109,0,0,0-9.936-7.3c-.907-.475-1.728.907-.82,1.382a38.643,38.643,0,0,1,9.633,7.042A.8.8,0,0,0,314.081,38.49Z" fill="#fff"/>
                    </g>
                </g>
            </g>
        </g>
        <g id="Сгруппировать_45" data-name="Сгруппировать 45">
            <g id="Сгруппировать_44" data-name="Сгруппировать 44">
                <g id="Сгруппировать_43" data-name="Сгруппировать 43">
                    <g id="Сгруппировать_42" data-name="Сгруппировать 42" clip-path="url(#clip-path)">
                        <path id="Контур_11" data-name="Контур 11" d="M271.141,64.28a5.658,5.658,0,0,1,.951-3.715,1.8,1.8,0,0,1,2.073-.648,2.235,2.235,0,0,1,.907,1.08,7.381,7.381,0,0,1,.692,4.709,3.756,3.756,0,0,1-.692,1.728,1.856,1.856,0,0,1-1.641.734,2.325,2.325,0,0,1-1.642-1.339A7.379,7.379,0,0,1,271.141,64.28Z"/>
                    </g>
                </g>
            </g>
        </g>
        <g id="Сгруппировать_49" data-name="Сгруппировать 49">
            <g id="Сгруппировать_48" data-name="Сгруппировать 48">
                <g id="Сгруппировать_47" data-name="Сгруппировать 47">
                    <g id="Сгруппировать_46" data-name="Сгруппировать 46" clip-path="url(#clip-path)">
                        <path id="Контур_12" data-name="Контур 12" d="M299.177,64.021a5.466,5.466,0,0,1,1.037-3.542,1.763,1.763,0,0,1,2.031-.562,2.546,2.546,0,0,1,.864,1.037,7.564,7.564,0,0,1,.518,4.579,3.8,3.8,0,0,1-.734,1.642,1.8,1.8,0,0,1-1.6.691,2.389,2.389,0,0,1-1.555-1.339A5.779,5.779,0,0,1,299.177,64.021Z"/>
                    </g>
                </g>
            </g>
        </g>
        <g id="Сгруппировать_53" data-name="Сгруппировать 53">
            <g id="Сгруппировать_52" data-name="Сгруппировать 52">
                <g id="Сгруппировать_51" data-name="Сгруппировать 51">
                    <g id="Сгруппировать_50" data-name="Сгруппировать 50" clip-path="url(#clip-path)">
                        <path id="Контур_13" data-name="Контур 13" d="M248.678,60.047s-6.394-5.616-12.442-1.6c-6.047,4.061-1.468,16.114,3.975,19.829a27.4,27.4,0,0,0,10.8,3.931Z" fill="#fff"/>
                    </g>
                </g>
            </g>
        </g>
        <g id="Сгруппировать_57" data-name="Сгруппировать 57">
            <g id="Сгруппировать_56" data-name="Сгруппировать 56">
                <g id="Сгруппировать_55" data-name="Сгруппировать 55">
                    <g id="Сгруппировать_54" data-name="Сгруппировать 54" clip-path="url(#clip-path)">
                        <path id="Контур_14" data-name="Контур 14" d="M293.086,75.08c-.216-2.03-1.728-4.234-2.635-6.005-.475-.907-1.857-.086-1.382.821.605,1.21,1.209,2.419,1.771,3.629.95,2.117.432,3.153-1.166,4.493-.778.647.345,1.771,1.123,1.123C292.006,78.1,293.259,76.808,293.086,75.08Z"/>
                    </g>
                </g>
            </g>
        </g>
        <g id="Сгруппировать_61" data-name="Сгруппировать 61">
            <g id="Сгруппировать_60" data-name="Сгруппировать 60">
                <g id="Сгруппировать_59" data-name="Сгруппировать 59">
                    <g id="Сгруппировать_58" data-name="Сгруппировать 58" clip-path="url(#clip-path)">
                        <path id="Контур_15" data-name="Контур 15" d="M287.318,88.772a11.132,11.132,0,0,1-6.182-1.8c-1.236-.84-2.819-2.7-2.467-4.213.142-.708,1.276-1.2,14.129-.407.66.041,1.182.073,1.282.073a1.582,1.582,0,0,1,1.41.546,1.146,1.146,0,0,1,.025,1.133,7.26,7.26,0,0,1-4.839,4.169A11.3,11.3,0,0,1,287.318,88.772Zm-7.825-5.718c-.131,1.047,1.149,2.536,2.129,3.2a10.574,10.574,0,0,0,8.8,1.19,6.418,6.418,0,0,0,4.3-3.667c.081-.192.081-.3.058-.332-.037-.056-.229-.16-.691-.16-.122,0-.5-.023-1.335-.074C282.919,82.611,280.08,82.783,279.493,83.054Zm.02-.113,0,.014Z"/>
                    </g>
                </g>
            </g>
        </g>
        <g id="Сгруппировать_65" data-name="Сгруппировать 65">
            <g id="Сгруппировать_64" data-name="Сгруппировать 64">
                <g id="Сгруппировать_63" data-name="Сгруппировать 63">
                    <g id="Сгруппировать_62" data-name="Сгруппировать 62" clip-path="url(#clip-path)">
                        <path id="Контур_16" data-name="Контур 16" d="M245.956,72.4a6.015,6.015,0,0,1-1.555-2.679,5.949,5.949,0,0,1,.734-3.628c.389-.908-.95-1.728-1.382-.821a8.414,8.414,0,0,0-.994,4.449,7.355,7.355,0,0,0,2.074,3.8C245.524,74.259,246.647,73.136,245.956,72.4Z" fill="#797979"/>
                    </g>
                </g>
            </g>
        </g>
        <g id="Сгруппировать_69" data-name="Сгруппировать 69">
            <g id="Сгруппировать_68" data-name="Сгруппировать 68">
                <g id="Сгруппировать_67" data-name="Сгруппировать 67">
                    <g id="Сгруппировать_66" data-name="Сгруппировать 66" clip-path="url(#clip-path)">
                        <path id="Контур_17" data-name="Контур 17" d="M269.888,22.636c-2.937-3.974-6.739-2.462-10.8-4.276-3.8-1.685-6.567-2.808-10.843-1.944-.994.216-.562,1.728.432,1.512,4.276-.908,6.782.561,10.411,2.246,3.326,1.512,6.739-.389,9.417,3.24C269.154,24.235,270.536,23.457,269.888,22.636Z" fill="#fff"/>
                    </g>
                </g>
            </g>
        </g>
        <g id="Сгруппировать_73" data-name="Сгруппировать 73">
            <g id="Сгруппировать_72" data-name="Сгруппировать 72">
                <g id="Сгруппировать_71" data-name="Сгруппировать 71">
                    <g id="Сгруппировать_70" data-name="Сгруппировать 70" clip-path="url(#clip-path)">
                        <path id="Контур_18" data-name="Контур 18" d="M261.681,25.358a25.031,25.031,0,0,1-.692,6.7c-.259.993,1.3,1.425,1.512.432a26.182,26.182,0,0,0,.735-7.085C263.236,24.364,261.638,24.364,261.681,25.358Z" fill="#fff"/>
                    </g>
                </g>
            </g>
        </g>
        <g id="Сгруппировать_77" data-name="Сгруппировать 77">
            <g id="Сгруппировать_76" data-name="Сгруппировать 76">
                <g id="Сгруппировать_75" data-name="Сгруппировать 75">
                    <g id="Сгруппировать_74" data-name="Сгруппировать 74" clip-path="url(#clip-path)">
                        <path id="Контур_19" data-name="Контур 19" d="M255.978,27.777c-.259,5.659-1.339,9.677-5.443,13.737a23.4,23.4,0,0,0-3.067,3.456c-.864,1.339-2.419,6.955-4.838,5.487-.864-.562-1.685.82-.821,1.382a3.209,3.209,0,0,0,4.1-.346,6.716,6.716,0,0,0,1.512-2.505,16.178,16.178,0,0,1,3.413-5.573c2.073-2.117,4.19-4.017,5.313-6.825,1.123-2.765,1.253-5.832,1.383-8.813C257.62,26.74,256.065,26.74,255.978,27.777Z" fill="#fff"/>
                    </g>
                </g>
            </g>
        </g>
        <g id="Сгруппировать_81" data-name="Сгруппировать 81">
            <g id="Сгруппировать_80" data-name="Сгруппировать 80">
                <g id="Сгруппировать_79" data-name="Сгруппировать 79">
                    <g id="Сгруппировать_78" data-name="Сгруппировать 78" clip-path="url(#clip-path)">
                        <path id="Контур_20" data-name="Контур 20" d="M294.642,12.7c-4.407-2.506-9.2-1.037-13.867-2.722-4.364-1.6-8.165-1.728-12.4.346-.908.432-.13,1.814.82,1.382,4.925-2.419,8.683-.778,13.478.605,3.845,1.123,7.517-.3,11.189,1.771A.793.793,0,0,0,294.642,12.7Z" fill="#fff"/>
                    </g>
                </g>
            </g>
        </g>
        <g id="Сгруппировать_85" data-name="Сгруппировать 85">
            <g id="Сгруппировать_84" data-name="Сгруппировать 84">
                <g id="Сгруппировать_83" data-name="Сгруппировать 83">
                    <g id="Сгруппировать_82" data-name="Сгруппировать 82" clip-path="url(#clip-path)">
                        <path id="Контур_21" data-name="Контур 21" d="M304.621,22.032a28.6,28.6,0,0,0-17.842-5.141c-1.036.043-1.036,1.641,0,1.6A27.149,27.149,0,0,1,303.8,23.414C304.664,23.975,305.485,22.593,304.621,22.032Z" fill="#fff"/>
                    </g>
                </g>
            </g>
        </g>
        <g id="Сгруппировать_90" data-name="Сгруппировать 90">
            <g id="Сгруппировать_89" data-name="Сгруппировать 89">
                <g id="Сгруппировать_88" data-name="Сгруппировать 88">
                    <g id="Сгруппировать_87" data-name="Сгруппировать 87" clip-path="url(#clip-path)">
                        <g id="Сгруппировать_86" data-name="Сгруппировать 86">
                            <path id="Контур_22" data-name="Контур 22" d="M261.681,61.947a.26.26,0,0,1-.173-.043l-18.921-4.492a.8.8,0,0,1,.345-1.556l18.922,4.493a.794.794,0,0,1,.6.95A.821.821,0,0,1,261.681,61.947Z"/>
                        </g>
                    </g>
                </g>
            </g>
        </g>
        <g id="Сгруппировать_99" data-name="Сгруппировать 99">
            <g id="Сгруппировать_98" data-name="Сгруппировать 98">
                <g id="Сгруппировать_97" data-name="Сгруппировать 97">
                    <g id="Сгруппировать_96" data-name="Сгруппировать 96" clip-path="url(#clip-path)">
                        <g id="Сгруппировать_95" data-name="Сгруппировать 95">
                            <g id="Сгруппировать_92" data-name="Сгруппировать 92">
                                <g id="Сгруппировать_91" data-name="Сгруппировать 91">
                                    <path id="Контур_23" data-name="Контур 23" d="M273.949,73.093c-.6,0-1.209-.043-1.857-.087a11.408,11.408,0,0,1-6.135-2.2,9.522,9.522,0,0,1-3.024-4.449c-.777-2.247-1.641-5.357-.172-6.912h0a2.067,2.067,0,0,1,.475-.389,4.571,4.571,0,0,1,1.987-.561,55.344,55.344,0,0,1,18.014.432,1.584,1.584,0,0,1,.994.518,2.188,2.188,0,0,1,.345.907,14.141,14.141,0,0,1-.561,5.962,10.033,10.033,0,0,1-3.543,4.967A10.889,10.889,0,0,1,273.949,73.093ZM273.3,59.528a60.213,60.213,0,0,0-7.776.519,3.8,3.8,0,0,0-1.382.345c-.043.043-.13.087-.173.13h0c-.388.389-.777,1.6.519,5.313a8.724,8.724,0,0,0,2.5,3.759,10.141,10.141,0,0,0,5.271,1.857c2.116.216,5.1.13,7.343-1.469a8.463,8.463,0,0,0,2.981-4.147,12.5,12.5,0,0,0,.475-5.313c.087,0,.044,0-.043-.043A47.254,47.254,0,0,0,273.3,59.528Zm-9.892.432Z"/>
                                </g>
                                <path id="Контур_24" data-name="Контур 24" d="M265.828,58.4s-5.918.3-6.091.648a9.755,9.755,0,0,0,.345,3.672,29.612,29.612,0,0,0,3.5,2.981c-.086-.216-.993-4.839-.993-4.839Z"/>
                            </g>
                            <g id="Сгруппировать_94" data-name="Сгруппировать 94">
                                <g id="Сгруппировать_93" data-name="Сгруппировать 93">
                                    <path id="Контур_25" data-name="Контур 25" d="M296.672,71.278a9.85,9.85,0,0,1-3.542-4.967,14.14,14.14,0,0,1-.562-5.962,1.267,1.267,0,0,1,.346-.907,1.579,1.579,0,0,1,.993-.518,46,46,0,0,1,16.416-.432,5.263,5.263,0,0,1,1.987.561,4.5,4.5,0,0,1,.475.389c1.512,1.555.648,4.709-.172,6.912a10.7,10.7,0,0,1-3.456,4.924,9.209,9.209,0,0,1-5.962,1.815A11.073,11.073,0,0,1,296.672,71.278Zm-2.506-10.8c-.086,0-.129.043-.043.043a12.573,12.573,0,0,0,.475,5.313,8.033,8.033,0,0,0,2.981,4.147,10.241,10.241,0,0,0,7.43,1.512,8.251,8.251,0,0,0,5.962-5.27l.129-.389c1.3-3.715.864-4.924.519-5.313a.634.634,0,0,0-.173-.13,3.094,3.094,0,0,0-1.382-.345,38.941,38.941,0,0,0-6.221-.519A47.446,47.446,0,0,0,294.166,60.479Zm18.014-.519Z"/>
                                </g>
                                <path id="Контур_26" data-name="Контур 26" d="M309.8,58.4s5.919.3,6.092.648a9.756,9.756,0,0,1-.346,3.672,29.531,29.531,0,0,1-3.5,2.981c.086-.216.993-4.839.993-4.839Z"/>
                            </g>
                            <path id="Контур_27" data-name="Контур 27" d="M283.928,59.1a18.734,18.734,0,0,0,4.795.692,15.991,15.991,0,0,0,4.752-.778l.043,3.369a16.858,16.858,0,0,0-5.313-.648,9.645,9.645,0,0,0-4.32,1.6l.043-4.234Z"/>
                        </g>
                    </g>
                </g>
            </g>
        </g>
        <g id="Сгруппировать_103" data-name="Сгруппировать 103">
            <g id="Сгруппировать_102" data-name="Сгруппировать 102">
                <g id="Сгруппировать_101" data-name="Сгруппировать 101">
                    <g id="Сгруппировать_100" data-name="Сгруппировать 100" clip-path="url(#clip-path)">
                        <path id="Контур_28" data-name="Контур 28" d="M250.017,106.183s10.5,9.72,18.792,11.1c8.337,1.383,13.521-2.073,13.521-2.073s10.238,9.979,13.91,15.552,10.972,34.516,8.726,57.886c-1.166,11.837,4.45,35.337,3.283,50.37-1.123,14.645-9.072,9.936-9.244,10.714,0,0-23.069-1.6-39.484,0s-40.607-1.167-43.372-3.543,2.894-40.477,2.894-44.408,12.226-83.072,13.046-85.275C232.953,114.305,250.017,106.183,250.017,106.183Z" fill="#69b8b3"/>
                    </g>
                </g>
            </g>
        </g>
        <g id="Сгруппировать_107" data-name="Сгруппировать 107">
            <g id="Сгруппировать_106" data-name="Сгруппировать 106">
                <g id="Сгруппировать_105" data-name="Сгруппировать 105">
                    <g id="Сгруппировать_104" data-name="Сгруппировать 104" clip-path="url(#clip-path)">
                        <path id="Контур_29" data-name="Контур 29" d="M250.017,106.183s-7.992,93.267-12.009,115.774-4.32,35.769-5.876,48.685-11.879,56.85-13.435,58.017c-1.6,1.166-3.153,1.468-10.324,0-7.128-1.469-21.686-3.845-26.179-4.407-4.492-.518-5.27-1.6-5.832-2.376-.518-.777,12.96-86.484,16.114-99.962s17.193-79.011,18.748-89.854S250.017,106.183,250.017,106.183Z" fill="#414141"/>
                    </g>
                </g>
            </g>
        </g>
        <g id="Сгруппировать_111" data-name="Сгруппировать 111">
            <g id="Сгруппировать_110" data-name="Сгруппировать 110">
                <g id="Сгруппировать_109" data-name="Сгруппировать 109">
                    <g id="Сгруппировать_108" data-name="Сгруппировать 108" clip-path="url(#clip-path)">
                        <path id="Контур_30" data-name="Контур 30" d="M226.214,139.835c-.043-.388-.172-.907-.3-1.555a127.651,127.651,0,0,0-3.542-12.268c-.908-2.679-1.728-4.579-2.031-4.363-.432.345-.907.648-1.382.993-1.3.951-2.592,1.858-3.931,2.851-5.443,3.975-10.93,8.338-14.6,13.738-2.721,4.017-3.931,8.467-6.091,12.743-2.16,4.234-5.572,7.56-8.078,11.578-5.054,8.164-4.881,18.273-8.985,26.869-3.5,7.3-8.251,14.515-6.61,23.155,1.987,10.5,11.232,20.736,18.706,20.952h.6c4.795-.3,5.919-5.616,10.973-6.135,4.622-.432,9.331-.864,13.737-2.505a19.32,19.32,0,0,0,6.307-3.8,17.378,17.378,0,0,0,5.4-11.793,4.981,4.981,0,0,0,.043-.821c.519-11.361.13-22.809.173-34.17C226.776,163.6,227.856,151.413,226.214,139.835Z" fill="#414141"/>
                    </g>
                </g>
            </g>
        </g>
        <g id="Сгруппировать_117" data-name="Сгруппировать 117">
            <g id="Сгруппировать_116" data-name="Сгруппировать 116">
                <g id="Сгруппировать_115" data-name="Сгруппировать 115">
                    <g id="Сгруппировать_114" data-name="Сгруппировать 114" clip-path="url(#clip-path)">
                        <g id="Сгруппировать_113" data-name="Сгруппировать 113">
                            <g id="Сгруппировать_112" data-name="Сгруппировать 112">
                                <path id="Контур_31" data-name="Контур 31" d="M186.774,193.013l32.572-18.748,17.106-5.011s-6.307,16.416-6.652,17.236c-.389.778-17.021,28.425-31.881,35.6s-19.224,4.061-19.224,4.061Z" fill="#fff"/>
                            </g>
                        </g>
                    </g>
                </g>
            </g>
        </g>
        <g id="Сгруппировать_121" data-name="Сгруппировать 121">
            <g id="Сгруппировать_120" data-name="Сгруппировать 120">
                <g id="Сгруппировать_119" data-name="Сгруппировать 119">
                    <g id="Сгруппировать_118" data-name="Сгруппировать 118" clip-path="url(#clip-path)">
                        <path id="Контур_32" data-name="Контур 32" d="M202.844,175.82s11.577,25.574,14.039,30.326c2.463,4.709-12.743,21.9-19.094,25.876s-19.914-4.925-22.852-8.9c-2.894-3.974-2.117-20.606-2.117-20.606l13.478-22.9Z" fill="#414141"/>
                    </g>
                </g>
            </g>
        </g>
        <g id="Сгруппировать_126" data-name="Сгруппировать 126">
            <g id="Сгруппировать_125" data-name="Сгруппировать 125">
                <g id="Сгруппировать_124" data-name="Сгруппировать 124">
                    <g id="Сгруппировать_123" data-name="Сгруппировать 123" clip-path="url(#clip-path)">
                        <g id="Сгруппировать_122" data-name="Сгруппировать 122">
                            <path id="Контур_33" data-name="Контур 33" d="M234.206,203.554a179.157,179.157,0,0,1-11.75,26.135,95.691,95.691,0,0,1-37.972,38.232c-1.6.82-3.2,1.641-4.795,2.376l-1.987-4.32a83.468,83.468,0,0,0,7.776-4.061A91.2,91.2,0,0,0,218.309,227.4c.994-1.771,1.9-3.586,2.851-5.4,1.944-3.888,3.758-7.819,5.4-11.793,1.123-2.722,2.2-5.487,3.2-8.251,7.387-20.736,7-39.96-1.124-58.751A34.128,34.128,0,0,0,226,138.28a65.293,65.293,0,0,0-10.54-12.571,1.172,1.172,0,0,0-.259-.216c1.3-.993,2.635-1.9,3.931-2.851.993.907,2.16,2.03,3.369,3.37,3.8,4.1,8.208,9.892,10.541,15.292C241.593,161.3,241.982,181.652,234.206,203.554Z" fill="#69b8b3"/>
                        </g>
                    </g>
                </g>
            </g>
        </g>
        <g id="Сгруппировать_130" data-name="Сгруппировать 130">
            <g id="Сгруппировать_129" data-name="Сгруппировать 129">
                <g id="Сгруппировать_128" data-name="Сгруппировать 128">
                    <g id="Сгруппировать_127" data-name="Сгруппировать 127" clip-path="url(#clip-path)">
                        <path id="Контур_34" data-name="Контур 34" d="M245.135,166.964c-.907-1.814-1.08-4.017-2.2-5.7-1.728-2.592-4.449-5.789-7.905-4.838-.043,0-.087.043-.13.043-3.413-.216-6.436,3.024-8.467,5.357a64.279,64.279,0,0,0-9.5,14.039.727.727,0,0,0-.043.519c-.648,1.209-1.123,2.2-1.426,2.851-.475.993,1.08,1.641,1.556.691.259-.561.864-1.685,1.684-3.11.389,3.931,2.376,8.294,3.586,11.1a.9.9,0,0,0,1.123.475c4.406-1.425,24.148-5.7,21.211-13.694a5.341,5.341,0,0,0,1.123-1.858A7.316,7.316,0,0,0,245.135,166.964Z" fill="#fff"/>
                    </g>
                </g>
            </g>
        </g>
        <g id="Сгруппировать_134" data-name="Сгруппировать 134">
            <g id="Сгруппировать_133" data-name="Сгруппировать 133">
                <g id="Сгруппировать_132" data-name="Сгруппировать 132">
                    <g id="Сгруппировать_131" data-name="Сгруппировать 131" clip-path="url(#clip-path)">
                        <path id="Контур_35" data-name="Контур 35" d="M238.18,158.152a6.84,6.84,0,0,0-5.572,3.456c-.562.95.993,1.6,1.555.691a5.168,5.168,0,0,1,4.234-2.462C239.476,159.793,239.26,158.065,238.18,158.152Z" fill="#797979"/>
                    </g>
                </g>
            </g>
        </g>
        <g id="Сгруппировать_138" data-name="Сгруппировать 138">
            <g id="Сгруппировать_137" data-name="Сгруппировать 137">
                <g id="Сгруппировать_136" data-name="Сгруппировать 136">
                    <g id="Сгруппировать_135" data-name="Сгруппировать 135" clip-path="url(#clip-path)">
                        <path id="Контур_36" data-name="Контур 36" d="M242.371,164.372a8.793,8.793,0,0,0-5.443,2.636c-.778.777.561,1.814,1.339,1.036a6.824,6.824,0,0,1,4.32-1.987C243.667,165.971,243.451,164.286,242.371,164.372Z" fill="#797979"/>
                    </g>
                </g>
            </g>
        </g>
        <g id="Сгруппировать_142" data-name="Сгруппировать 142">
            <g id="Сгруппировать_141" data-name="Сгруппировать 141">
                <g id="Сгруппировать_140" data-name="Сгруппировать 140">
                    <g id="Сгруппировать_139" data-name="Сгруппировать 139" clip-path="url(#clip-path)">
                        <path id="Контур_37" data-name="Контур 37" d="M243.1,172.407a15.563,15.563,0,0,0-4.19,2.2c-.864.648.173,2.03,1.037,1.339a13.869,13.869,0,0,1,3.8-1.987C244.79,173.66,244.142,172.062,243.1,172.407Z" fill="#797979"/>
                    </g>
                </g>
            </g>
        </g>
        <g id="Сгруппировать_146" data-name="Сгруппировать 146">
            <g id="Сгруппировать_145" data-name="Сгруппировать 145">
                <g id="Сгруппировать_144" data-name="Сгруппировать 144">
                    <g id="Сгруппировать_143" data-name="Сгруппировать 143" clip-path="url(#clip-path)">
                        <path id="Контур_38" data-name="Контур 38" d="M250.017,106.183s5.529,13.738,8.553,18.4c3.024,4.622,13,15.336,17.323,14.688s6.437-24.019,6.437-24.019-10.022.432-10.411,0-11.491-4.795-12.83-5.486C257.793,109.078,250.017,106.183,250.017,106.183Z" fill="#fff"/>
                    </g>
                </g>
            </g>
        </g>
        <g id="Сгруппировать_150" data-name="Сгруппировать 150">
            <g id="Сгруппировать_149" data-name="Сгруппировать 149">
                <g id="Сгруппировать_148" data-name="Сгруппировать 148">
                    <g id="Сгруппировать_147" data-name="Сгруппировать 147" clip-path="url(#clip-path)">
                        <path id="Контур_39" data-name="Контур 39" d="M320.6,219.149a102.328,102.328,0,0,1-1.684-19.872c-.13-12.83-1.037-25.66-4.709-38.015a.786.786,0,0,0-1.512.432c3.758,12.7,4.579,25.876,4.665,39.052a89.424,89.424,0,0,0,1.426,17.323,86.34,86.34,0,0,1,1.944,20c-.043,1.037,1.555,1.037,1.6,0A84.538,84.538,0,0,0,320.6,219.149Z" fill="#fff"/>
                    </g>
                </g>
            </g>
        </g>
        <g id="Сгруппировать_154" data-name="Сгруппировать 154">
            <g id="Сгруппировать_153" data-name="Сгруппировать 153">
                <g id="Сгруппировать_152" data-name="Сгруппировать 152">
                    <g id="Сгруппировать_151" data-name="Сгруппировать 151" clip-path="url(#clip-path)">
                        <path id="Контур_40" data-name="Контур 40" d="M201.85,181.825c-1.6.993-3.2,2.03-4.8,3.024a.831.831,0,0,0-.389-.216,34.891,34.891,0,0,0-8.208-.519c-1.771.13-4.622.044-5.832,1.556-.6.777.476,1.944,1.124,1.123,1.123-1.426,4.449-1.123,6.134-1.167a31.626,31.626,0,0,1,5.356.346c-4.535,2.894-9.028,5.789-13.478,8.769-.864.562-.043,1.944.821,1.383q9.979-6.61,20.088-12.96A.787.787,0,0,0,201.85,181.825Z" fill="#fff"/>
                    </g>
                </g>
            </g>
        </g>
        <g id="Сгруппировать_158" data-name="Сгруппировать 158">
            <g id="Сгруппировать_157" data-name="Сгруппировать 157">
                <g id="Сгруппировать_156" data-name="Сгруппировать 156">
                    <g id="Сгруппировать_155" data-name="Сгруппировать 155" clip-path="url(#clip-path)">
                        <path id="Контур_41" data-name="Контур 41" d="M217.661,207.615c-.6-.821-1.728.3-1.123,1.123,4.924,6.35-5.055,11.188-9.375,14-3.974,2.592-8.078,5.055-12.225,7.387-.907.519-.086,1.858.821,1.383,6.869-3.845,13.953-7.906,20.131-12.83C219.562,215.693,220.685,211.546,217.661,207.615Z" fill="#fff"/>
                    </g>
                </g>
            </g>
        </g>
        <g id="Сгруппировать_162" data-name="Сгруппировать 162">
            <g id="Сгруппировать_161" data-name="Сгруппировать 161">
                <g id="Сгруппировать_160" data-name="Сгруппировать 160">
                    <g id="Сгруппировать_159" data-name="Сгруппировать 159" clip-path="url(#clip-path)">
                        <path id="Контур_42" data-name="Контур 42" d="M213.039,132.664c-.346-.95-1.9-.518-1.512.432a123.724,123.724,0,0,1,7.775,31.752c.13.993,1.685,1.036,1.6,0A127.107,127.107,0,0,0,213.039,132.664Z" fill="#fff"/>
                    </g>
                </g>
            </g>
        </g>
        <g id="Сгруппировать_167" data-name="Сгруппировать 167">
            <g id="Сгруппировать_166" data-name="Сгруппировать 166">
                <g id="Сгруппировать_165" data-name="Сгруппировать 165">
                    <g id="Сгруппировать_164" data-name="Сгруппировать 164" clip-path="url(#clip-path)">
                        <g id="Сгруппировать_163" data-name="Сгруппировать 163">
                            <path id="Контур_43" data-name="Контур 43" d="M276.584,145.106c-2.98,0-5.961-1.987-8.121-3.456a48.987,48.987,0,0,1-8.122-6.783c-4.967-5.313-8.294-11.793-10.972-17.5a.792.792,0,0,1,.389-1.037.756.756,0,0,1,1.036.389c2.636,5.573,5.876,11.966,10.714,17.064a45.6,45.6,0,0,0,7.862,6.566c2.117,1.425,4.8,3.2,7.257,3.2a3.07,3.07,0,0,0,.648-.043c1.6-.345,2.808-3.2,3.543-4.881l.216-.475a40.534,40.534,0,0,0,2.98-16.459.843.843,0,0,1,.778-.821.811.811,0,0,1,.821.778,41.9,41.9,0,0,1-3.111,17.063l-.216.475c-.907,2.117-2.246,5.314-4.665,5.832C277.189,145.062,276.93,145.062,276.584,145.106Z" fill="#fff"/>
                        </g>
                    </g>
                </g>
            </g>
        </g>
        <g id="Сгруппировать_171" data-name="Сгруппировать 171">
            <g id="Сгруппировать_170" data-name="Сгруппировать 170">
                <g id="Сгруппировать_169" data-name="Сгруппировать 169">
                    <g id="Сгруппировать_168" data-name="Сгруппировать 168" clip-path="url(#clip-path)">
                        <path id="Контур_44" data-name="Контур 44" d="M266,56.332a.432.432,0,0,1-.243-.79A18.765,18.765,0,0,1,279.711,53.1a.432.432,0,1,1-.2.839c-7.15-1.745-13.2,2.273-13.263,2.314A.424.424,0,0,1,266,56.332Z"/>
                    </g>
                </g>
            </g>
        </g>
        <g id="Сгруппировать_175" data-name="Сгруппировать 175">
            <g id="Сгруппировать_174" data-name="Сгруппировать 174">
                <g id="Сгруппировать_173" data-name="Сгруппировать 173">
                    <g id="Сгруппировать_172" data-name="Сгруппировать 172" clip-path="url(#clip-path)">
                        <path id="Контур_45" data-name="Контур 45" d="M309.8,56.332a.432.432,0,0,1-.3-.119c-4.029-3.823-13.058-2.28-13.149-2.264a.432.432,0,0,1-.15-.851c.388-.068,9.552-1.631,13.894,2.488a.432.432,0,0,1-.3.746Z"/>
                    </g>
                </g>
            </g>
        </g>
        <g id="Сгруппировать_179" data-name="Сгруппировать 179">
            <g id="Сгруппировать_178" data-name="Сгруппировать 178">
                <g id="Сгруппировать_177" data-name="Сгруппировать 177">
                    <g id="Сгруппировать_176" data-name="Сгруппировать 176" clip-path="url(#clip-path)">
                        <path id="Контур_46" data-name="Контур 46" d="M280.505,108.786c-2.954,0-17.032-.762-27.591-14.609a.432.432,0,1,1,.686-.524c11.521,15.107,27.247,14.267,27.406,14.259a.432.432,0,0,1,.056.862C281.045,108.775,280.851,108.786,280.505,108.786Z" fill="#a2a2a2"/>
                    </g>
                </g>
            </g>
        </g>
        <g id="Сгруппировать_189" data-name="Сгруппировать 189">
            <g id="Сгруппировать_188" data-name="Сгруппировать 188">
                <g id="Сгруппировать_187" data-name="Сгруппировать 187">
                    <g id="Сгруппировать_186" data-name="Сгруппировать 186" clip-path="url(#clip-path)">
                        <g id="Сгруппировать_185" data-name="Сгруппировать 185">
                            <path id="Контур_47" data-name="Контур 47" d="M359.181,229.992l-56.591,3.24a1.551,1.551,0,0,1-1.641-1.469l-4.493-78.018a1.551,1.551,0,0,1,1.469-1.641l56.59-3.24a1.552,1.552,0,0,1,1.642,1.469l4.45,78.017A1.491,1.491,0,0,1,359.181,229.992Z" fill="#999"/>
                            <rect id="Прямоугольник_43" data-name="Прямоугольник 43" width="52.013" height="78.668" transform="translate(300.849 153.225) rotate(-3.272)" fill="#fff"/>
                            <path id="Контур_48" data-name="Контур 48" d="M346.783,230.683l-48.772,2.808a1.551,1.551,0,0,1-1.641-1.469l-4.45-78.017a1.552,1.552,0,0,1,1.469-1.642l48.771-2.808a1.552,1.552,0,0,1,1.642,1.469l4.45,78.017A1.552,1.552,0,0,1,346.783,230.683Z" fill="#999"/>
                            <g id="Сгруппировать_180" data-name="Сгруппировать 180">
                                <path id="Контур_49" data-name="Контур 49" d="M355.12,228.307a.95.95,0,0,1-.475.216.75.75,0,0,1-.821-.734l-4.363-76.16a.779.779,0,0,1,1.555-.087l4.363,76.16A.725.725,0,0,1,355.12,228.307Z" fill="#606060"/>
                            </g>
                            <g id="Сгруппировать_181" data-name="Сгруппировать 181">
                                <path id="Контур_50" data-name="Контур 50" d="M351.535,228.523a.957.957,0,0,1-.476.216.749.749,0,0,1-.82-.734l-4.363-76.16a.779.779,0,1,1,1.555-.087l4.363,76.16A.784.784,0,0,1,351.535,228.523Z" fill="#606060"/>
                            </g>
                            <rect id="Прямоугольник_44" data-name="Прямоугольник 44" width="27.432" height="12.917" transform="translate(305.341 164.868) rotate(-3.273)" fill="#fff"/>
                            <g id="Сгруппировать_182" data-name="Сгруппировать 182">
                                <path id="Контур_51" data-name="Контур 51" d="M324.924,187.009a.959.959,0,0,1-.475.216l-8.424.475a.779.779,0,1,1-.086-1.555l8.424-.475a.749.749,0,0,1,.82.734A.725.725,0,0,1,324.924,187.009Z" fill="#606060"/>
                            </g>
                            <g id="Сгруппировать_183" data-name="Сгруппировать 183">
                                <path id="Контур_52" data-name="Контур 52" d="M333.909,190.94a.694.694,0,0,1-.475.216L307.6,192.625a.779.779,0,1,1-.086-1.556l25.833-1.468a.749.749,0,0,1,.821.734A1.085,1.085,0,0,1,333.909,190.94Z" fill="#606060"/>
                            </g>
                            <g id="Сгруппировать_184" data-name="Сгруппировать 184">
                                <path id="Контур_53" data-name="Контур 53" d="M334.169,195.908a.7.7,0,0,1-.476.216l-25.833,1.469a.779.779,0,0,1-.086-1.556l25.833-1.468a.749.749,0,0,1,.821.734A.788.788,0,0,1,334.169,195.908Z" fill="#606060"/>
                            </g>
                        </g>
                    </g>
                </g>
            </g>
        </g>
        <g id="Сгруппировать_193" data-name="Сгруппировать 193">
            <g id="Сгруппировать_192" data-name="Сгруппировать 192">
                <g id="Сгруппировать_191" data-name="Сгруппировать 191">
                    <g id="Сгруппировать_190" data-name="Сгруппировать 190" clip-path="url(#clip-path)">
                        <path id="Контур_54" data-name="Контур 54" d="M360.39,222.13a.433.433,0,0,1-.431-.408l-4.1-71.667a1.16,1.16,0,0,0-1.213-1.061l-38.552,2.029a.43.43,0,0,1-.443-.33,47.862,47.862,0,0,0-12.7-22.286c-5.009-5.051-20.53-12.99-20.686-13.069a.433.433,0,0,1-.231-.447l1.08-7.516a.432.432,0,0,1,.4-.37c12.222-.754,17.276-8.827,17.326-8.908a.407.407,0,0,1,.046-.063c7.748-8.717,7.668-26.658,7.667-26.838a.431.431,0,0,1,.428-.436h0a.433.433,0,0,1,.432.428c.007.749.082,18.422-7.862,27.394-.39.607-5.624,8.378-17.637,9.262l-.986,6.865c2.184,1.125,15.837,8.255,20.614,13.072A48.866,48.866,0,0,1,316.4,150.142l38.219-2.012h0a2,2,0,0,1,2.094,1.875l4.1,71.668a.432.432,0,0,1-.406.456Z"/>
                    </g>
                </g>
            </g>
        </g>
    </g>
</svg>
