<svg xmlns="http://www.w3.org/2000/svg" display="none">

    <symbol id="skype" viewBox="0 0 31 31">
        <path class="st0" d="M21.9,31c-1.4,0-2.7-0.3-3.9-0.9c-0.9,0.1-1.6,0.2-2.3,0.2c-8.2,0-14.9-6.6-14.9-14.7c0-0.8,0.1-1.6,0.2-2.5
	C0.4,11.9,0,10.5,0,9c0-5,4.1-9,9.1-9c1.6,0,3.1,0.4,4.4,1.1C14.2,1.1,14.9,1,15.7,1c4,0,7.7,1.5,10.5,4.3c2.8,2.8,4.3,6.4,4.3,10.3
	c0,1-0.1,1.9-0.2,2.7c0.5,1.1,0.8,2.4,0.8,3.6C31,27,26.9,31,21.9,31z M18.3,27.6l0.4,0.2c1,0.5,2.1,0.8,3.2,0.8
	c3.7,0,6.7-3,6.7-6.6c0-1-0.2-2-0.7-2.9l-0.2-0.4l0.1-0.4c0.2-0.8,0.2-1.6,0.2-2.6c0-6.7-5.6-12.2-12.4-12.2c-0.9,0-1.5,0-2.1,0.1
	l-0.5,0.1l-0.4-0.2c-1.1-0.7-2.3-1-3.6-1c-3.7,0-6.7,3-6.7,6.6c0,1.2,0.3,2.3,0.9,3.3l0.2,0.4l-0.1,0.5c-0.2,0.9-0.3,1.7-0.3,2.5
	c0,6.8,5.6,12.3,12.4,12.3c0.7,0,1.4-0.1,2.3-0.2L18.3,27.6z M23.3,18.8c0-0.9-0.2-1.6-0.5-2.2c-0.3-0.6-0.8-1.1-1.4-1.5
	c-0.6-0.4-1.3-0.7-2.2-1c-0.8-0.3-1.8-0.5-2.8-0.7c-0.8-0.2-1.4-0.3-1.8-0.4c-0.3-0.1-0.7-0.2-1-0.4c-0.3-0.2-0.6-0.4-0.8-0.6
	c-0.2-0.2-0.3-0.4-0.3-0.7c0-0.5,0.3-0.9,0.8-1.2c0.5-0.4,1.3-0.5,2.2-0.5c1,0,1.7,0.1,2.1,0.5c0.4,0.3,0.8,0.8,1.1,1.4
	c0.3,0.5,0.5,0.8,0.8,1c0.3,0.2,0.6,0.3,1.1,0.3c0.5,0,1-0.2,1.3-0.5c0.3-0.4,0.6-0.8,0.6-1.2c0-0.5-0.2-1-0.5-1.4
	c-0.3-0.5-0.7-0.9-1.2-1.4c-0.6-0.4-1.3-0.8-2.1-1c-0.8-0.3-1.8-0.4-3-0.4c-1.4,0-2.7,0.2-3.7,0.6C11,7.7,10.2,8.3,9.6,9
	c-0.6,0.7-0.9,1.6-0.9,2.6c0,1,0.3,1.9,0.9,2.5c0.5,0.7,1.3,1.2,2.2,1.6c0.9,0.4,2,0.7,3.3,1c1,0.2,1.8,0.4,2.3,0.6
	c0.6,0.2,1,0.4,1.4,0.7c0.3,0.3,0.5,0.7,0.5,1.2c0,0.6-0.3,1.1-1,1.6c-0.6,0.4-1.5,0.6-2.6,0.6c-0.8,0-1.4-0.1-1.8-0.3
	c-0.5-0.2-0.8-0.5-1.1-0.8c-0.3-0.3-0.5-0.8-0.7-1.3c-0.2-0.5-0.5-0.8-0.7-1.1c-0.3-0.3-0.7-0.4-1.1-0.4c-0.5,0-1,0.2-1.3,0.5
	c-0.4,0.3-0.5,0.7-0.5,1.2c0,0.7,0.3,1.5,0.8,2.3c0.5,0.8,1.2,1.4,2.1,1.8c1.2,0.6,2.7,0.9,4.5,0.9c1.5,0,2.9-0.2,4-0.7
	c1.1-0.5,2-1.1,2.6-1.9C23,20.8,23.3,19.9,23.3,18.8z"/>
    </symbol>


    <symbol id="phone" viewBox="0 0 27.4 31.4">
        <g>
            <path class="st0" d="M20.3,0H7.1C5.8,0,4.8,1,4.8,2.3v26.9c0,1.3,1,2.3,2.3,2.3h13.2c1.3,0,2.3-1,2.3-2.3V2.3C22.6,1,21.6,0,20.3,0
		z M10.5,1.4H17c0.2,0,0.3,0.2,0.3,0.6S17.2,2.5,17,2.5h-6.5c-0.2,0-0.3-0.2-0.3-0.6C10.2,1.6,10.3,1.4,10.5,1.4z M13.7,29.2
		c-0.8,0-1.5-0.7-1.5-1.5c0-0.8,0.7-1.5,1.5-1.5c0.8,0,1.5,0.7,1.5,1.5C15.2,28.5,14.5,29.2,13.7,29.2z M20.9,24.2H6.5V3.9h14.4
		C20.9,3.9,20.9,24.2,20.9,24.2z"/>
        </g>
    </symbol>

    <symbol id="whatsapp" viewBox="0 0 31.7 31.7">
        <g>
            <path class="st0" d="M31.7,15.4c0,8.5-7,15.4-15.5,15.4c-2.7,0-5.3-0.7-7.5-1.9L0,31.7l2.8-8.3c-1.4-2.3-2.2-5.1-2.2-8
		C0.6,6.9,7.5,0,16.1,0C24.7,0,31.7,6.9,31.7,15.4z M16.1,2.5c-7.2,0-13.1,5.8-13.1,13c0,2.8,0.9,5.5,2.5,7.6l-1.6,4.8l5-1.6
		c2.1,1.4,4.5,2.1,7.2,2.1c7.2,0,13.1-5.8,13.1-13C29.2,8.3,23.3,2.5,16.1,2.5z M24,19c-0.1-0.2-0.4-0.3-0.7-0.4
		c-0.4-0.2-2.3-1.1-2.6-1.2c-0.4-0.1-0.6-0.2-0.9,0.2c-0.3,0.4-1,1.2-1.2,1.5c-0.2,0.3-0.4,0.3-0.8,0.1c-0.4-0.2-1.6-0.6-3.1-1.9
		c-1.1-1-1.9-2.2-2.1-2.6c-0.2-0.4,0-0.6,0.2-0.8c0.2-0.2,0.4-0.4,0.6-0.7c0.2-0.2,0.3-0.4,0.4-0.6c0.1-0.3,0.1-0.5,0-0.7
		c-0.1-0.2-0.9-2-1.2-2.8c-0.3-0.8-0.6-0.6-0.9-0.6c-0.2,0-0.5,0-0.7,0s-0.7,0.1-1,0.5C9.5,9.2,8.5,10.2,8.5,12
		c0,1.9,1.4,3.7,1.6,3.9c0.2,0.3,2.6,4.2,6.5,5.7c3.9,1.5,3.9,1,4.6,0.9c0.7-0.1,2.3-0.9,2.6-1.8C24.1,19.9,24.1,19.1,24,19z"/>
        </g>
    </symbol>

    <symbol id="arrow-right" viewBox="0 0 296.4 49.5">
        <g>
            <polyline class="st0" points="5.8,24.5 290.6,24.8 255.5,3.1 	"/>
            <polyline class="st0" points="5.8,25 290.6,24.8 255.5,46.4 	"/>
        </g>
    </symbol>

    <symbol id="next" viewBox="0 0 97.3 37.4">
        <g>
            <polyline points="6,18.7 90.9,19 64.6,2.7 	"/>
            <polyline points="6,19.1 90.9,19 64.6,35.2 	"/>
        </g>
    </symbol>


    <symbol id="double-arrow" viewBox="0 0 8 9">
        <path d="M1159.99,588.529l0.41-.537,4.44,4.237-0.41.535Zm4.85,4.235-0.41-.535-4.44,4.235L1160.4,597Zm-1.68-4.235,0.41-.537,4.44,4.237-0.42.535Zm4.85,4.235-0.42-.535-4.43,4.235,0.41,0.535Z"
              transform="translate(-1160 -588)"/>
    </symbol>

</svg>