<svg xmlns="http://www.w3.org/2000/svg" xmlns:xlink="http://www.w3.org/1999/xlink" width="382.91" height="222" viewBox="0 0 382.91 222">
    <defs>
        <clipPath id="clip-path">
            <rect id="Прямоугольник_35" data-name="Прямоугольник 35" width="382.91" height="222" transform="translate(61.295)" fill="none"/>
        </clipPath>
        <clipPath id="clip-path-2">
            <rect id="Прямоугольник_1" data-name="Прямоугольник 1" width="479.764" height="240.279" transform="translate(-35.559 -17.061)" fill="none"/>
        </clipPath>
    </defs>
    <g id="Сгруппировать_85" data-name="Сгруппировать 85" transform="translate(-61.295)">
        <g id="Сгруппировать_84" data-name="Сгруппировать 84" clip-path="url(#clip-path)">
            <g id="Сгруппировать_2" data-name="Сгруппировать 2">
                <g id="Сгруппировать_1" data-name="Сгруппировать 1" clip-path="url(#clip-path-2)">
                    <path id="Контур_1" data-name="Контур 1" d="M223.795,106.973s-2.65,17.326-.53,21.194,12.345,12.769,12.345,12.769L202.654,156.46l-30.624-15.1s11.02-9.378,12.451-12.927.9-24.267.9-24.267Z" fill="#fff"/>
                </g>
            </g>
            <g id="Сгруппировать_4" data-name="Сгруппировать 4">
                <g id="Сгруппировать_3" data-name="Сгруппировать 3" clip-path="url(#clip-path-2)">
                    <path id="Контур_2" data-name="Контур 2" d="M159.049,42.387a39.665,39.665,0,0,0-.053,7.1c.159,1.855.159,4.716,1.06,6.305,1.059,2.014,2.543-2.331,2.543-3.179.318,6.305,1.748,12.716,5.669,17.75,3.285,4.238,6.994,8.159,11.974,10.014,4.928,1.854,10.438,1.96,15.63,2.437,8.9.848,22.253,4.768,29.565-2.6,2.649-2.649,4.239-5.511,8.16-6.517,2.437-.583,5.139.053,7.523-.848a5.4,5.4,0,0,0,3.285-2.967c4.822-2.225,6.305-6.252,7.1-10.809-.159.795.689,2.385.848,3.232.212.954-.371,4.292.953,3.709.848-.371,1.8-2.6,2.12-3.444a14.082,14.082,0,0,0,.741-5.139,34.184,34.184,0,0,0-2.6-10.968c1.007-6.305,1.484-12.716-.742-18.809-2.6-7.1-9.219-12.027-15.047-16.16-4.874-3.5-9.961-5.987-15.524-6.252-8.583-7.1-21.67-5.881-31.578-2.278A21.746,21.746,0,0,0,185.7,5.4c-1.8,1.272-3.285,3.179-5.352,4.027-2.649,1.113-4.874,1.431-7.258,3.338a25.059,25.059,0,0,0-4.663,5.033,34.066,34.066,0,0,0-6.2,11.074A52.264,52.264,0,0,0,159.049,42.387Z" fill="#69b8b3"/>
                </g>
            </g>
            <g id="Сгруппировать_6" data-name="Сгруппировать 6">
                <g id="Сгруппировать_5" data-name="Сгруппировать 5" clip-path="url(#clip-path-2)">
                    <path id="Контур_3" data-name="Контур 3" d="M172.772,84.773c.953,9.219,3.391,16.8,9.325,23.525,6.411,7.365,14.729,12.875,21.988,13.034,5.245.106,17.219-6.411,22.995-12.61a38.789,38.789,0,0,0,5.775-8.107c4.185-8,7.682-24.425,9.166-37.088.954-7.842,2.172-16.637-3.338-21.988-9.166-8.848-19.6-5.987-30.465-12.5a.4.4,0,0,0-.212-.106c-1.537-.477-33.7,7.206-33.7,7.206-.53.212-1.112,3.92-1.271,4.556-.371,1.59-.742,3.232-1.06,4.875-1.007,5.563-.954,11.5-1.219,17.113C170.493,69.514,172.03,77.779,172.772,84.773Z" fill="#fff"/>
                </g>
            </g>
            <g id="Сгруппировать_8" data-name="Сгруппировать 8">
                <g id="Сгруппировать_7" data-name="Сгруппировать 7" clip-path="url(#clip-path-2)">
                    <path id="Контур_4" data-name="Контур 4" d="M229.845,136.8a2.929,2.929,0,0,0-.273-.814c-.336-.2-1.279-1.072-5-5.187-2.179-2.426-2.359-4.09-2.364-4.529-.72-2.88.329-13.391.375-13.841l.02-.2.15-.136c6.581-5.982,7.457-7.627,8.566-9.71.257-.483.523-.982.874-1.564,2.1-3.473,4.844-13.619,5.928-17.82,1.617-6.466,3.31-17.741,3.327-17.854l1.048.157c-.017.113-1.718,11.439-3.348,17.958-1.1,4.25-3.879,14.514-6.048,18.107-.336.557-.595,1.044-.846,1.515-1.148,2.156-2.058,3.863-8.637,9.857-.145,1.5-1.021,10.946-.367,13.328l.023.086,0,.088c0,.007-.023,1.5,2.091,3.851,2.008,2.218,4.285,4.647,4.7,4.956.379.161.659.681.832,1.546Zm-.238-.794a.263.263,0,0,0,.05.023A.424.424,0,0,1,229.607,136.007Z"/>
                </g>
            </g>
            <g id="Сгруппировать_10" data-name="Сгруппировать 10">
                <g id="Сгруппировать_9" data-name="Сгруппировать 9" clip-path="url(#clip-path-2)">
                    <path id="Контур_5" data-name="Контур 5" d="M348.146,201.442l-47.9-12.769,4.927-37.194,37.141,9.537Z" fill="#fff"/>
                </g>
            </g>
            <g id="Сгруппировать_12" data-name="Сгруппировать 12">
                <g id="Сгруппировать_11" data-name="Сгруппировать 11" clip-path="url(#clip-path-2)">
                    <path id="Контур_6" data-name="Контур 6" d="M134.147,268.519c.212-3.867.477-7.735.848-11.6-.318-4.874-.583-9.749-.742-14.623-.53-14.677-.53-29.353-.424-43.977.053-7.258.106-14.464.265-21.723.159-5.4.477-10.914,2.331-16.054,3.232-8.954,11.762-14.57,19.922-18.6,3.762-1.854,8.318-4.4,12.451-5.192,5.192-1.007,9.8,2.172,14.941,2.172,3.232,0,6.411-1.059,9.7-1.112a32.776,32.776,0,0,1,8.742,1.43c3.5.954,7.1,2.278,10.809,2.172,3.6-.106,6.835-1.7,10.067-3.179a43.934,43.934,0,0,1,7.1-2.808c.053-.106,23.9,1.166,34.651,3.762,9.749,2.384,19.392,4.875,28.929,8a39.839,39.839,0,0,0,2.331,9.219c.8,28.346,1.165,56.745,1.7,85.144.159,7.629-4.927,15.259-4.556,22.836s-1.325,14.782.159,22.253c2.755,14.146-.689,27.392-2.12,41.327-1.165,11.656,2.491,24.266-1.165,35.6a.961.961,0,0,1-1.378.583c-12.663-7.364-25.538-13.4-40.426-14.093-6.411-.265-12.875-.106-19.233-1.06a70.039,70.039,0,0,1-17.591-5.192,123.933,123.933,0,0,1-17.325-9.325c-5.669-3.6-10.756-6.676-17.643-7.312a5.141,5.141,0,0,0-.9-.053c-3.762.212-7.471.371-11.233.371-5.775.053-11.338-.371-17.06-.636-2.332-.106-3.285-1.484-5.087-2.755a17.541,17.541,0,0,1-4.344-4.716,28.647,28.647,0,0,1-3.974-12.61C132.663,294.163,133.4,281.076,134.147,268.519Z" fill="#565656"/>
                </g>
            </g>
            <g id="Сгруппировать_14" data-name="Сгруппировать 14">
                <g id="Сгруппировать_13" data-name="Сгруппировать 13" clip-path="url(#clip-path-2)">
                    <path id="Контур_7" data-name="Контур 7" d="M320.065,123.4l-13.087-15.206-17.114-1.854-2.331,12.186,12.08,21.564Z" fill="#fff"/>
                </g>
            </g>
            <g id="Сгруппировать_16" data-name="Сгруппировать 16">
                <g id="Сгруппировать_15" data-name="Сгруппировать 15" clip-path="url(#clip-path-2)">
                    <path id="Контур_8" data-name="Контур 8" d="M265.122,90.231a13.732,13.732,0,0,0,3.391,6.569c2.755,3.338,5.457,5.988,7.417,9.908,3.709,7.471,11.709,18.809,21.511,16.478,4.5-1.059,6.835-6.835,10.915-8.954a.875.875,0,0,0,.424-1.166c.9-5.192,1.483-10.437,2.172-15.63.583-4.4,1.537-9.007.583-13.4-.424-2.014-1.378-5.3-3.974-5.14a2.719,2.719,0,0,0-1.8.795c-1.113-2.543-3.073-4.822-6.093-4.4-1.166.159-3.444,2.332-3.444,2.332s.953-13.935.742-18.757c-.053-1.748.317-8.159-3.5-7.2-1.272.318-2.385,2.49-2.65,3.656-.688,3.073-.635,6.622-.953,9.748-.371,3.815-1.378,15.048-1.378,15.048s-3.55-13.246-3.815-14.412c-.688-3.073-1.218-6.57-2.7-9.431a2.639,2.639,0,0,0-5.033.742c-.477,2.384.053,5.51.424,7.736.636,3.708,1.271,7.417,2.013,11.073.742,3.5,1.484,7.206,1.06,10.809-.371,3.285-.159,11.285-.159,11.285s-.265.053-.265.159c-3.815-2.755-5.775-7.63-9.855-10.332C267.241,85.886,264.539,86.151,265.122,90.231Z" fill="#fff"/>
                </g>
            </g>
            <g id="Сгруппировать_19" data-name="Сгруппировать 19">
                <g id="Сгруппировать_18" data-name="Сгруппировать 18" clip-path="url(#clip-path-2)">
                    <g id="Сгруппировать_17" data-name="Сгруппировать 17">
                        <path id="Контур_9" data-name="Контур 9" d="M297.388,94.84a2.58,2.58,0,0,0,.636-.053c1.643-.371,2.384-2.172,2.914-3.285l.053-.159c1.272-2.967,2.914-8.689,3.02-8.954a.855.855,0,1,0-1.642-.477c0,.053-1.7,5.881-2.914,8.742l-.053.159c-.371.9-.9,2.12-1.749,2.332a2.843,2.843,0,0,1-2.331-1.06c-1.166-1.484-.689-3.921-.318-5.934l.106-.477a40.741,40.741,0,0,1,1.537-5.934.838.838,0,1,0-1.59-.53,55.25,55.25,0,0,0-1.589,6.146l-.106.477c-.424,2.172-1.007,5.192.688,7.259A4.456,4.456,0,0,0,297.388,94.84Z" fill="#aaa"/>
                    </g>
                </g>
            </g>
            <g id="Сгруппировать_22" data-name="Сгруппировать 22">
                <g id="Сгруппировать_21" data-name="Сгруппировать 21" clip-path="url(#clip-path-2)">
                    <g id="Сгруппировать_20" data-name="Сгруппировать 20">
                        <path id="Контур_10" data-name="Контур 10" d="M303.64,96.218c3.444,0,6.676-6.835,7.312-8.319a.842.842,0,0,0-1.536-.689c-1.431,3.179-4.292,7.736-5.987,7.259-2.173-.583-2.332-3.55-2.332-3.6a.849.849,0,0,0-1.695.106c0,.159.212,4.239,3.6,5.14A2.277,2.277,0,0,0,303.64,96.218Z" fill="#aaa"/>
                    </g>
                </g>
            </g>
            <g id="Сгруппировать_25" data-name="Сгруппировать 25">
                <g id="Сгруппировать_24" data-name="Сгруппировать 24" clip-path="url(#clip-path-2)">
                    <g id="Сгруппировать_23" data-name="Сгруппировать 23">
                        <path id="Контур_11" data-name="Контур 11" d="M296.541,107.98a.9.9,0,0,0,.371-.053.879.879,0,0,0,.423-1.113c-.053-.106-1.324-2.808-5.775-5.722a19.764,19.764,0,0,0-9.855-2.967h0a.848.848,0,0,0,0,1.7h0a18.666,18.666,0,0,1,8.955,2.7c4.026,2.649,5.192,5.033,5.192,5.033A.736.736,0,0,0,296.541,107.98Z" fill="#aaa"/>
                    </g>
                </g>
            </g>
            <g id="Сгруппировать_27" data-name="Сгруппировать 27">
                <g id="Сгруппировать_26" data-name="Сгруппировать 26" clip-path="url(#clip-path-2)">
                    <path id="Контур_12" data-name="Контур 12" d="M151.79,251.247a40.209,40.209,0,0,0-11.073-2.12c-3.921-.211-8.054-.264-11.657-2.172a20.61,20.61,0,0,1-6.305-5.987c-2.119-2.808-4.026-5.775-6.887-7.894a87.374,87.374,0,0,0-9.06-5.458c-2.915-1.642-6.517-2.808-7.1-6.729-.583-4.132,2.755-9.537,4.079-13.3,5.246-14.836,6.623-30.678,15.1-42.758S156.4,141.942,156.4,141.942s2.49,81.171,0,93.092C155.6,238.9,153.8,244.889,151.79,251.247Z" fill="#565656"/>
                </g>
            </g>
            <g id="Сгруппировать_30" data-name="Сгруппировать 30">
                <g id="Сгруппировать_29" data-name="Сгруппировать 29" clip-path="url(#clip-path-2)">
                    <g id="Сгруппировать_28" data-name="Сгруппировать 28">
                        <path id="Контур_13" data-name="Контур 13" d="M133.246,246.531h0a.849.849,0,0,0,.848-.9c0-.318-1.537-32.744.053-44.771,1.642-12.345-7.63-33.38-8-34.228a.842.842,0,0,0-1.536.689c.106.212,9.431,21.458,7.894,33.327-1.589,12.186-.159,43.764-.053,45.089A.815.815,0,0,0,133.246,246.531Z" fill="#69b8b3"/>
                    </g>
                </g>
            </g>
            <g id="Сгруппировать_33" data-name="Сгруппировать 33">
                <g id="Сгруппировать_32" data-name="Сгруппировать 32" clip-path="url(#clip-path-2)">
                    <g id="Сгруппировать_31" data-name="Сгруппировать 31">
                        <path id="Контур_14" data-name="Контур 14" d="M129.855,196.091a.4.4,0,0,0,.265-.053.851.851,0,0,0,.53-1.059l-7.577-21.618a.838.838,0,0,0-1.589.53l7.576,21.564A.788.788,0,0,0,129.855,196.091Z" fill="#69b8b3"/>
                    </g>
                </g>
            </g>
            <g id="Сгруппировать_35" data-name="Сгруппировать 35">
                <g id="Сгруппировать_34" data-name="Сгруппировать 34" clip-path="url(#clip-path-2)">
                    <path id="Контур_15" data-name="Контур 15" d="M99.34,222.131c-1.661-3.322,3.013-12.715,3.551-13.776l.043-.069c.652-.906,3.577-11.617,5.268-18.156.039-.14.083-.362.147-.677.408-2.022,1.5-7.4,5.549-16.779,4.586-10.614,11.17-14.813,11.83-15.214,4.687-4.078,16.584-9.868,17.089-10.113,2.4-1.43,12.372-5.457,13.281-5.823.965-.625,6.677-3.256,7.339-3.56a16.394,16.394,0,0,1,12.88-1.031c5.846-5.243,7.732-8.665,7.75-8.7l.051-.093.082-.067c.553-.77.854-8.613.813-15.825a37.576,37.576,0,0,1-12.08-22.608c-3.148-19.451-2.723-27.3-2.7-27.628l1.058.063c-.005.079-.432,8.09,2.7,27.435a36.461,36.461,0,0,0,11.9,22.1l.181.157,0,.239c.038,5.7-.056,15.261-1.086,16.761-.207.374-2.227,3.862-8.205,9.177l-.252.223-.309-.132a15.5,15.5,0,0,0-12.316.883c-2.646,1.217-6.734,3.144-7.248,3.511l-.11.061c-.108.043-10.8,4.346-13.226,5.792-.163.081-12.374,6.024-16.93,10.01l-.08.058c-.068.04-6.856,4.141-11.439,14.748-4.01,9.281-5.08,14.575-5.483,16.568-.07.35-.121.6-.162.742-.446,1.725-4.373,16.846-5.4,18.458-1.4,2.772-4.736,10.391-3.534,12.794Z"/>
                </g>
            </g>
            <g id="Сгруппировать_38" data-name="Сгруппировать 38">
                <g id="Сгруппировать_37" data-name="Сгруппировать 37" clip-path="url(#clip-path-2)">
                    <g id="Сгруппировать_36" data-name="Сгруппировать 36">
                        <path id="Контур_16" data-name="Контур 16" d="M182.1,38.89a.8.8,0,0,0,.742-.477c.053-.106,4.45-8.53,13.086-8.636,5.193-.106,10.067,2.013,14.677,6.2a3.386,3.386,0,0,0,.689.53.852.852,0,0,0,1.059-.53.933.933,0,0,0-.371-1.007,1.194,1.194,0,0,1-.265-.265c-4.874-4.5-10.278-6.729-15.842-6.676-9.7.106-14.358,9.166-14.57,9.537a.81.81,0,0,0,.371,1.113A.463.463,0,0,0,182.1,38.89Z" fill="#362c2c"/>
                    </g>
                </g>
            </g>
            <g id="Сгруппировать_41" data-name="Сгруппировать 41">
                <g id="Сгруппировать_40" data-name="Сгруппировать 40" clip-path="url(#clip-path-2)">
                    <g id="Сгруппировать_39" data-name="Сгруппировать 39">
                        <path id="Контур_17" data-name="Контур 17" d="M169.858,38.89a.837.837,0,0,0,.847-.848c0-.053.159-7.471,3.02-11.126,2.862-3.709,8-5.458,8.054-5.511a.838.838,0,1,0-.53-1.589c-.212.053-5.669,1.96-8.848,6.04-3.179,4.133-3.338,11.815-3.391,12.133a.851.851,0,0,0,.848.9Z" fill="#362c2c"/>
                    </g>
                </g>
            </g>
            <g id="Сгруппировать_44" data-name="Сгруппировать 44">
                <g id="Сгруппировать_43" data-name="Сгруппировать 43" clip-path="url(#clip-path-2)">
                    <g id="Сгруппировать_42" data-name="Сгруппировать 42">
                        <path id="Контур_18" data-name="Контур 18" d="M222.152,31.631h.106a.845.845,0,0,0,.742-.954c0-.106-.318-2.331-2.066-9.8A26.8,26.8,0,0,1,221.94,6.782a.856.856,0,1,0-1.589-.636,28,28,0,0,0-1.06,15.047c1.7,7.365,2.013,9.643,2.066,9.643A.781.781,0,0,0,222.152,31.631Z" fill="#362c2c"/>
                    </g>
                </g>
            </g>
            <g id="Сгруппировать_47" data-name="Сгруппировать 47">
                <g id="Сгруппировать_46" data-name="Сгруппировать 46" clip-path="url(#clip-path-2)">
                    <g id="Сгруппировать_45" data-name="Сгруппировать 45">
                        <path id="Контур_19" data-name="Контур 19" d="M251.823,43.87a1.247,1.247,0,0,0,.424-.106.853.853,0,0,0,.318-1.165c-.159-.265-3.921-6.888-8.16-9.8a14.717,14.717,0,0,0-8.424-2.861.791.791,0,0,0-.795.847.837.837,0,0,0,.848.848h.053a14.009,14.009,0,0,1,7.417,2.6c3.921,2.7,7.63,9.166,7.683,9.219A.6.6,0,0,0,251.823,43.87Z" fill="#362c2c"/>
                    </g>
                </g>
            </g>
            <g id="Сгруппировать_50" data-name="Сгруппировать 50">
                <g id="Сгруппировать_49" data-name="Сгруппировать 49" clip-path="url(#clip-path-2)">
                    <g id="Сгруппировать_48" data-name="Сгруппировать 48">
                        <path id="Контур_20" data-name="Контур 20" d="M192.27,10.809a.772.772,0,0,0,.688-.371.4.4,0,0,0,.106-.212c.636-.636,4.292-3.179,10.544-3.762a26.181,26.181,0,0,1,13.246,2.755.917.917,0,0,0,1.165-.318.918.918,0,0,0-.317-1.165,27.56,27.56,0,0,0-14.2-2.968c-6.888.583-11.762,3.709-12.08,4.928l-.159.583.53.371A.855.855,0,0,0,192.27,10.809Z" fill="#362c2c"/>
                    </g>
                </g>
            </g>
            <g id="Сгруппировать_52" data-name="Сгруппировать 52">
                <g id="Сгруппировать_51" data-name="Сгруппировать 51" clip-path="url(#clip-path-2)">
                    <path id="Контур_21" data-name="Контур 21" d="M229.411,65.435a.8.8,0,0,1-.278-.051c-9.384-3.5-14.155-2.371-14.2-2.359a.794.794,0,0,1-.4-1.538c.209-.056,5.231-1.293,15.155,2.408a.8.8,0,0,1-.278,1.54Z"/>
                </g>
            </g>
            <g id="Сгруппировать_54" data-name="Сгруппировать 54">
                <g id="Сгруппировать_53" data-name="Сгруппировать 53" clip-path="url(#clip-path-2)">
                    <path id="Контур_22" data-name="Контур 22" d="M179.554,63.156a.795.795,0,0,1-.278-1.539c9.924-3.7,14.946-2.464,15.154-2.409a.795.795,0,0,1-.4,1.539c-.072-.018-4.843-1.132-14.2,2.359A.791.791,0,0,1,179.554,63.156Z"/>
                </g>
            </g>
            <g id="Сгруппировать_56" data-name="Сгруппировать 56">
                <g id="Сгруппировать_55" data-name="Сгруппировать 55" clip-path="url(#clip-path-2)">
                    <path id="Контур_23" data-name="Контур 23" d="M204.009,105.809c-5.039,0-11.142-1.6-18.029-6.507a.795.795,0,0,1,.922-1.295c18.686,13.3,30.735,1.45,31.239.939a.795.795,0,0,1,1.135,1.113A22.82,22.82,0,0,1,204.009,105.809Z"/>
                </g>
            </g>
            <g id="Сгруппировать_59" data-name="Сгруппировать 59">
                <g id="Сгруппировать_58" data-name="Сгруппировать 58" clip-path="url(#clip-path-2)">
                    <g id="Сгруппировать_57" data-name="Сгруппировать 57">
                        <ellipse id="Эллипс_1" data-name="Эллипс 1" cx="2.384" cy="4.08" rx="2.384" ry="4.08" transform="translate(216.907 68.772)" fill="#2a2b33"/>
                        <path id="Контур_24" data-name="Контур 24" d="M219.291,77.2c-1.486,0-2.649-1.909-2.649-4.345s1.163-4.345,2.649-4.345,2.649,1.909,2.649,4.345S220.776,77.2,219.291,77.2Zm0-8.16c-1.149,0-2.119,1.747-2.119,3.815s.97,3.815,2.119,3.815,2.119-1.747,2.119-3.815S220.44,69.037,219.291,69.037Z" fill="#2a2b33"/>
                    </g>
                </g>
            </g>
            <g id="Сгруппировать_62" data-name="Сгруппировать 62">
                <g id="Сгруппировать_61" data-name="Сгруппировать 61" clip-path="url(#clip-path-2)">
                    <g id="Сгруппировать_60" data-name="Сгруппировать 60">
                        <ellipse id="Эллипс_2" data-name="Эллипс 2" cx="2.384" cy="4.08" rx="2.384" ry="4.08" transform="translate(186.918 68.772)" fill="#2a2b33"/>
                        <path id="Контур_25" data-name="Контур 25" d="M189.3,77.2c-1.485,0-2.649-1.909-2.649-4.345s1.164-4.345,2.649-4.345,2.65,1.909,2.65,4.345S190.788,77.2,189.3,77.2Zm0-8.16c-1.149,0-2.119,1.747-2.119,3.815s.97,3.815,2.119,3.815,2.12-1.747,2.12-3.815S190.451,69.037,189.3,69.037Z" fill="#2a2b33"/>
                    </g>
                </g>
            </g>
            <g id="Сгруппировать_64" data-name="Сгруппировать 64">
                <g id="Сгруппировать_63" data-name="Сгруппировать 63" clip-path="url(#clip-path-2)">
                    <path id="Контур_26" data-name="Контур 26" d="M169.964,63.156a3.844,3.844,0,0,0,.794,1.325s2.544-9.06,4.345-13.564a14.4,14.4,0,0,1,.583-1.325c-.371.9,2.384,4.345,3.02,4.981.53.53,2.278,2.384,3.126,2.013.53-.265-.583-2.49-.742-3.126a25.225,25.225,0,0,1-.689-7.206,12.6,12.6,0,0,1,1.06-4.715,4.736,4.736,0,0,0,2.437-.106c1.378-.424,2.437-1.7,3.868-2.172a19.959,19.959,0,0,1,7.471-1.06c2.861.212,5.351,1.748,8.212.689a11.7,11.7,0,0,1,1.907-.689c2.173-.477,4.716.583,6.941.53a52.35,52.35,0,0,0,7.047-.954,9.47,9.47,0,0,1,3.232-.106c2.49.477,3.6,3.232,6.2,3.6,2.49.318,6.994-1.431,8.8,1.483.583.954.318,2.226.477,3.391a34.409,34.409,0,0,0,1.06,15.048,1.158,1.158,0,0,0,.159.265c-.742,2.914-1.06,5.669.106,8.583a.781.781,0,0,0,1.483,0c1.855-4.981,4.4-10.332,4.61-15.736,3.921-6.57-2.067-16-6.835-20.664C230.418,25.591,217.6,26.28,207,26.439c-6.729.106-13.511.476-20.187,1.112-4.5.424-9.378.954-12.769,4.239-3.232,3.179-2.914,7.63-2.967,11.815C170.97,50.6,169.381,56.215,169.964,63.156Z" fill="#69b8b3"/>
                </g>
            </g>
            <g id="Сгруппировать_66" data-name="Сгруппировать 66">
                <g id="Сгруппировать_65" data-name="Сгруппировать 65" clip-path="url(#clip-path-2)">
                    <path id="Контур_27" data-name="Контур 27" d="M203.925,90.761a.8.8,0,0,1-.191-1.567c3.073-.763,5.956-1.846,6.523-2.435-.445-1.255-3.346-6.353-5.161-9.423a.795.795,0,0,1,1.368-.809c.843,1.425,5.06,8.6,5.389,10.028.122.529.494,2.139-7.736,4.182A.789.789,0,0,1,203.925,90.761Zm6.379-3.849h0Z"/>
                </g>
            </g>
            <g id="Сгруппировать_68" data-name="Сгруппировать 68">
                <g id="Сгруппировать_67" data-name="Сгруппировать 67" clip-path="url(#clip-path-2)">
                    <path id="Контур_28" data-name="Контур 28" d="M203.767,121.968c7.365,0,17.484-7.683,17.908-8.054a.795.795,0,0,0-.953-1.272c-.106.106-11.127,8.478-17.856,7.63-6.835-.848-14.729-6.888-14.835-6.941a.774.774,0,0,0-1.113.159.844.844,0,0,0,.159,1.166c.318.265,8.319,6.358,15.63,7.259A6.757,6.757,0,0,0,203.767,121.968Z" fill="#aaa"/>
                </g>
            </g>
            <g id="Сгруппировать_71" data-name="Сгруппировать 71">
                <g id="Сгруппировать_70" data-name="Сгруппировать 70" clip-path="url(#clip-path-2)">
                    <g id="Сгруппировать_69" data-name="Сгруппировать 69">
                        <path id="Контур_29" data-name="Контур 29" d="M174.732,48.9a.319.319,0,0,0,.212-.053.878.878,0,0,0,.583-1.06,36.018,36.018,0,0,1-1.007-10.279c.318-5.245,1.7-6.994,1.7-6.994a.828.828,0,0,0-1.272-1.059c-.159.212-1.8,2.172-2.119,8a37.659,37.659,0,0,0,1.059,10.862A.86.86,0,0,0,174.732,48.9Z" fill="#362c2c"/>
                    </g>
                </g>
            </g>
            <g id="Сгруппировать_74" data-name="Сгруппировать 74">
                <g id="Сгруппировать_73" data-name="Сгруппировать 73" clip-path="url(#clip-path-2)">
                    <g id="Сгруппировать_72" data-name="Сгруппировать 72">
                        <path id="Контур_30" data-name="Контур 30" d="M246.313,50.175h.211a.837.837,0,0,0,.636-1.007c-.106-.317-2.172-8.477-8.742-13.351-6.623-4.875-11.762-4.4-11.974-4.4a.845.845,0,0,0-.742.954.825.825,0,0,0,.9.742h0c.053,0,4.768-.424,10.808,4.079,6.093,4.5,8.107,12.345,8.107,12.4A.811.811,0,0,0,246.313,50.175Z" fill="#362c2c"/>
                    </g>
                </g>
            </g>
            <g id="Сгруппировать_76" data-name="Сгруппировать 76">
                <g id="Сгруппировать_75" data-name="Сгруппировать 75" clip-path="url(#clip-path-2)">
                    <path id="Контур_31" data-name="Контур 31" d="M293.786,147.188s18.915,5.563,23.1,9.484,15.312,6.252,16.69,5.934c1.431-.265-9.272,74.918-13.511,77.726s-13.934-2.225-19.551,1.378-24.478,9.219-27.6,3.762c-3.073-5.511-11.55-22.836-11.55-36.294C261.36,195.773,293.786,147.188,293.786,147.188Z" fill="#565656"/>
                </g>
            </g>
            <g id="Сгруппировать_79" data-name="Сгруппировать 79">
                <g id="Сгруппировать_78" data-name="Сгруппировать 78" clip-path="url(#clip-path-2)">
                    <g id="Сгруппировать_77" data-name="Сгруппировать 77">
                        <path id="Контур_32" data-name="Контур 32" d="M296.541,240.279h.106a.844.844,0,0,0,.741-.953c-.053-.318-4.238-33.645-2.808-49.964,1.431-16.53-.847-35.763-.9-35.922a.855.855,0,1,0-1.7.212c0,.211,2.278,19.232.848,35.6-1.431,16.531,2.755,50.017,2.808,50.334A.97.97,0,0,0,296.541,240.279Z" fill="#69b8b3"/>
                    </g>
                </g>
            </g>
            <g id="Сгруппировать_81" data-name="Сгруппировать 81">
                <g id="Сгруппировать_80" data-name="Сгруппировать 80" clip-path="url(#clip-path-2)">
                    <path id="Контур_33" data-name="Контур 33" d="M313.336,115.61s46.626,49.062,50.917,56.056c5.934,9.7,1.961,34.492-16.054,29.776S294.315,130.5,294.315,130.5s-2.6-12.928-.794-12.928C295.216,117.623,313.336,115.61,313.336,115.61Z" fill="#fff"/>
                </g>
            </g>
            <g id="Сгруппировать_83" data-name="Сгруппировать 83">
                <g id="Сгруппировать_82" data-name="Сгруппировать 82" clip-path="url(#clip-path-2)">
                    <path id="Контур_34" data-name="Контур 34" d="M352.516,202.65a11.677,11.677,0,0,1-2.55-.259c-2.2-.229-19.806-5.155-20.56-5.366a.53.53,0,1,1,.286-1.02c6.4,1.791,18.894,5.211,20.4,5.333a.511.511,0,0,1,.1.017c.4.106,9.728,2.468,14.257-8.956.05-.1,3.239-6.788.931-16.531a17.2,17.2,0,0,0-3.071-5.877c-.218-.257-22.256-26.16-25.931-29.007a.547.547,0,0,1-.062-.056c-1.083-1.15-26.539-28.191-27.665-29.962a.528.528,0,0,1-.078-.355c.951-7.025,2.75-20.613,2.75-21.758,0-.082.173-6.634-2.115-8.77a2.208,2.208,0,0,0-1.807-.611.4.4,0,0,1-.085,0,1.943,1.943,0,0,0-1.287.641.531.531,0,0,1-.878-.209c-.012-.035-1.219-3.568-4.242-4.04a.636.636,0,0,1-.086-.021c-.073-.022-1.951-.555-4.3,2.174a.53.53,0,0,1-.931-.38c.009-.121.794-12.187.794-18.3.107-1.489.1-5.533-1.176-6.8a1.139,1.139,0,0,0-.954-.353.548.548,0,0,1-.151-.009c-.7-.117-2.235.621-2.975,4.249h0s-.415,3.923-.467,4.9c-.02.271-.479,6.38-.532,6.961-.108,1.194-1.062,11.68-1.115,12.053a.531.531,0,0,1-.495.455.546.546,0,0,1-.543-.4l-4.132-16c-.354-2.022-1.555-7.415-2.951-8.573a2.021,2.021,0,0,0-2.844.185.506.506,0,0,1-.122.088h0c.005,0-1.586,1.2-.1,8.109l2.281,12.521a67.266,67.266,0,0,1,1.015,7.478c-.031.77-.105,2.53-.16,2.945-.162,3.759-.338,9.971-.125,10.72a.528.528,0,0,1-.237.6l-.265.159a.528.528,0,0,1-.6-.04,19.453,19.453,0,0,1-3.515-3.532c-1.4-2.054-5.714-7.515-8.553-7.8a.56.56,0,0,1-.1-.02,1.794,1.794,0,0,0-1.453.216A2.584,2.584,0,0,0,265.6,89.7a9.241,9.241,0,0,0,1.659,4.467,27.424,27.424,0,0,0,2.655,3.507.616.616,0,0,1,.119.1,77.132,77.132,0,0,1,4.893,6.148c1.993,3.7,4.327,7.834,4.766,8.286a.539.539,0,0,1,.12.123c.04.058,4.043,5.753,6.3,7.109a27.521,27.521,0,0,0,3.8,2.4.533.533,0,0,1,.257.23c5.722,10.279,14.483,25.856,15.168,26.638a.3.3,0,0,1,.083.1l1.8,3.02a.53.53,0,1,1-.909.544l-1.8-3.021h0c-1.362-1.844-11.779-20.5-15.182-26.615a29.191,29.191,0,0,1-3.808-2.425c-2.394-1.433-6.363-7.068-6.577-7.375a77.275,77.275,0,0,1-4.964-8.534c-.01-.02-.02-.041-.028-.062-.188-.426-2.526-3.3-4.691-5.841a27.774,27.774,0,0,1-2.883-3.748,10.1,10.1,0,0,1-1.839-5,3.425,3.425,0,0,1,.9-3.131,2.8,2.8,0,0,1,2.371-.424c3.9.444,9.075,7.957,9.295,8.277a14.813,14.813,0,0,0,2.6,2.71c-.123-2.539.131-8.716.191-10.116a.557.557,0,0,1,.01-.082c.03-.181.1-1.582.149-2.831a69.519,69.519,0,0,0-1-7.248l-2.278-12.5c-1.551-7.2.052-8.87.567-9.207a3.062,3.062,0,0,1,4.224-.187c1.937,1.6,3.165,8.387,3.3,9.155l3.369,13.039c.263-2.843.64-6.98.826-9.022.052-.573.525-6.87.529-6.933.053-1,.461-4.834.479-5,.479-2.363,1.3-3.921,2.457-4.68a2.572,2.572,0,0,1,1.694-.459,2.2,2.2,0,0,1,1.722.663c1.852,1.838,1.53,7.008,1.487,7.591,0,4.863-.5,13.527-.706,16.916,2.218-1.935,4.038-1.563,4.372-1.472,2.762.449,4.207,2.848,4.768,4.057a2.706,2.706,0,0,1,1.457-.466,3.238,3.238,0,0,1,2.6.894c2.638,2.463,2.46,9.272,2.451,9.56,0,1.422-2.424,19.4-2.731,21.676,1.777,2.311,20.222,21.994,27.409,29.627,3.854,3.036,25.153,28.07,26.06,29.138a17.991,17.991,0,0,1,3.289,6.3c2.4,10.146-.852,16.932-.991,17.215C362.05,201.324,355.977,202.65,352.516,202.65Zm-72.869-90.462h0Z"/>
                </g>
            </g>
        </g>
    </g>
</svg>
