<svg xmlns="http://www.w3.org/2000/svg" xmlns:xlink="http://www.w3.org/1999/xlink" width="222" height="222" viewBox="0 0 222 222">
    <defs>
        <clipPath id="clip-path">
            <rect id="Прямоугольник_1" data-name="Прямоугольник 1" width="222" height="222" transform="translate(145)" fill="none"/>
        </clipPath>
    </defs>
    <g id="Сгруппировать_31" data-name="Сгруппировать 31" transform="translate(-145)">
        <g id="Сгруппировать_26" data-name="Сгруппировать 26">
            <g id="Сгруппировать_25" data-name="Сгруппировать 25">
                <g id="Сгруппировать_24" data-name="Сгруппировать 24">
                    <g id="Сгруппировать_23" data-name="Сгруппировать 23" clip-path="url(#clip-path)">
                        <g id="Сгруппировать_22" data-name="Сгруппировать 22">
                            <path id="Контур_1" data-name="Контур 1" d="M191.659,300.055s-22.545-.523-23.46-2.921c-1.178-3.1-.48-7.98-.567-11.207-.262-8.372-.393-16.7-.567-25.074q-.263-14.259-.436-28.518a111.288,111.288,0,0,1,2.485-27.385c1.047-5.189-.959-12.908-.3-18.184.654-4.927,1.134-9.724,2.137-14.608,2.442-12.079,5.494-26.949,8.067-30.7,7.413-10.727,25.466-13.736,25.466-13.736s19.056,26.774,19.667,28.3C224.756,157.506,191.659,300.055,191.659,300.055Z" fill="#69b8b3"/>
                            <path id="Контур_2" data-name="Контур 2" d="M289.73,56.732c.087-4.056.566-8.547-.829-12.472-2.224-6.322-9.637-10.029-15.437-12.427-15.872-6.629-34.928-5.713-49.536,3.619a.29.29,0,0,0-.175.218c-3.532,1.221-7.98,2.442-10.509,5.233-2.965,3.227-2.878,9.07-3.445,13.125-.785,5.669-1.439,11.338-1.919,17.05a327.533,327.533,0,0,0-1.177,35.234c.175,8.9.218,18.838,5.407,26.426a22.17,22.17,0,0,0,1.963,5.32.359.359,0,0,0,.654-.218c-.131-1.4-.349-2.747-.611-4.143a.4.4,0,0,0-.043-.218c-.524-2.922-1.134-5.843-1.4-8.808-.087-1.047-.174-2.05-.218-3.1.262.915.523,1.831.829,2.747.7,2.093,1.526,4.142,2.4,6.192.611,1.439,1.134,3.576,2.18,4.753,1.788,2.006,5.495,1.526,7.98,1.613,5.1.175,10.2-.13,15.306-.348q15.633-.655,31.266-1.352c4.186-.175,9.114.392,13.169-.7,2.442-.654,3.445-2.7,4.23-4.927C292.738,121.1,289.6,62.052,289.73,56.732Z"/>
                            <path id="Контур_3" data-name="Контур 3" d="M281.052,81.195c-.829,7.98-2.965,14.521-8.024,20.364-5.538,6.367-12.733,11.12-19.012,11.294-4.535.087-14.87-5.538-19.885-10.9a31.966,31.966,0,0,1-4.971-7.021c-3.619-6.933-6.628-21.105-7.936-32.051-.829-6.8-1.875-7.674,2.878-12.253,7.936-7.675,16.919-11.9,26.295-17.573a.325.325,0,0,1,.174-.088C251.923,32.574,279.7,39.2,279.7,39.2c.436.175.959,3.4,1.09,3.968q.523,2.094.916,4.186c.872,4.8.829,9.943,1.09,14.827C283.014,67.982,281.662,75.134,281.052,81.195Z" fill="#fff"/>
                            <path id="Контур_4" data-name="Контур 4" d="M271.284,68.636c-.087-2.485-1.7-3.968-3.009-2.572-.916.959-.916,3.008-.654,4.229.218,1,.959,2.4,2.224,2.05C271.2,71.907,271.328,70.206,271.284,68.636Z"/>
                            <path id="Контур_5" data-name="Контур 5" d="M238.754,69.77c-.088-2.485-1.7-3.968-3.009-2.573-.916.96-.916,3.009-.654,4.23.218,1,.959,2.4,2.224,2.05C238.666,73.041,238.8,71.34,238.754,69.77Z"/>
                            <path id="Контур_6" data-name="Контур 6" d="M236.922,100.382s2.268,14.957.436,18.315-10.683,11.032-10.683,11.032L255.15,143.16l26.469-13.039s-9.506-8.11-10.771-11.163-.785-20.975-.785-20.975Z" fill="#fff"/>
                            <g id="Сгруппировать_1" data-name="Сгруппировать 1">
                                <path id="Контур_7" data-name="Контур 7" d="M253.493,87.213a.718.718,0,0,1-.654-.393,23.811,23.811,0,0,1-2.05-4.36c-.131-.916.872-7.675,1.177-9.725a.728.728,0,0,1,1.439.218,92.115,92.115,0,0,0-1.177,9.289,23.5,23.5,0,0,0,1.875,3.881.726.726,0,0,1-.261,1A.838.838,0,0,1,253.493,87.213Z"/>
                            </g>
                            <g id="Сгруппировать_2" data-name="Сгруппировать 2">
                                <path id="Контур_8" data-name="Контур 8" d="M254.06,113.507c-6.629,0-15.742-6.933-16.135-7.238a.715.715,0,0,1,.872-1.134c.087.087,10.03,7.631,16.091,6.89,6.192-.742,13.256-6.192,13.344-6.236a.745.745,0,1,1,.915,1.177c-.3.218-7.5,5.756-14.041,6.541A8.488,8.488,0,0,0,254.06,113.507Z" fill="#b3b3b3"/>
                            </g>
                            <path id="Контур_9" data-name="Контур 9" d="M275.819,65.628s7.413-3.969,10.727-.7c3.925,3.837,2.7,9.942-.523,13.779a12.035,12.035,0,0,1-6.061,3.969,45.274,45.274,0,0,1-5.713.654C274.249,83.375,275.819,65.628,275.819,65.628Z" fill="#fff"/>
                            <g id="Сгруппировать_3" data-name="Сгруппировать 3">
                                <path id="Контур_10" data-name="Контур 10" d="M284.235,76.7H284.1a.721.721,0,0,1-.567-.873l.349-1.918a13.416,13.416,0,0,0-.174-4.274.735.735,0,1,1,1.439-.305,15.6,15.6,0,0,1,.174,4.84l-.349,1.919A.742.742,0,0,1,284.235,76.7Z" fill="#575757"/>
                            </g>
                            <path id="Контур_11" data-name="Контур 11" d="M228.506,67.328s-7.675-3.445-10.771.087c-3.619,4.143-1.962,10.074,1.527,13.736a12.075,12.075,0,0,0,6.323,3.533,45.987,45.987,0,0,0,5.712.261C231.341,84.9,228.506,67.328,228.506,67.328Z" fill="#fff"/>
                            <g id="Сгруппировать_4" data-name="Сгруппировать 4">
                                <path id="Контур_12" data-name="Контур 12" d="M222.14,79.146a.735.735,0,0,1-.7-.567l-.48-1.875a15.818,15.818,0,0,1-.174-4.841.747.747,0,0,1,1.483.175,14.535,14.535,0,0,0,.13,4.273l.48,1.875a.713.713,0,0,1-.523.872A.282.282,0,0,1,222.14,79.146Z" fill="#575757"/>
                            </g>
                            <path id="Контур_13" data-name="Контур 13" d="M253.155,96.645c-7.486,0-9.286-4.845-9.361-5.057a.435.435,0,0,1,.423-.581c.045,0,4.456.13,9.45.13a59.361,59.361,0,0,0,9.338-.864.436.436,0,0,1,.511.5c-.038.227-1.03,5.544-9.659,5.858C253.618,96.641,253.384,96.645,253.155,96.645ZM244.909,91.9c.739,1.274,3.043,4.086,8.915,3.862,6.243-.228,8.115-3.189,8.641-4.51a61.275,61.275,0,0,1-8.794.759C249.846,92.009,246.364,91.934,244.909,91.9Z"/>
                            <path id="Контур_14" data-name="Контур 14" d="M285.369,56.427c-.131-4.71.174-9.768-1.395-14.26-2.835-8.11-11.731-8.808-19.013-10.683-6.846-1.788-14.39-4.4-20.756-.7a3.566,3.566,0,0,0-3.358-.48c-3.925,1.221-8.2,4.492-11.512,6.934-6.149,4.535-11.381,10.814-12.036,18.707-.174,2.18-.3,7.326,1.439,9.07,1.7,1.657,4.056-.436,5.451-1.526a18.35,18.35,0,0,0,4.8-5.8c4.012-1.831,6.628-5.145,8.46-8.983a33.923,33.923,0,0,1-1.832,5.756c-.174.436.262,1,.741.7,5.582-3.794,7.937-11.992,8.547-19.012,2.922,5.1,8.9,9.375,13.126,12.384A82.663,82.663,0,0,0,269.5,55.467c2.137,1.09,4.492,2.311,6.89,3.314l.087.088c1.527,1.526,4.928,4.8,7.326,4.622C286.677,63.186,285.412,58.127,285.369,56.427Z"/>
                            <path id="Контур_15" data-name="Контур 15" d="M292.171,30.437a43.388,43.388,0,0,1-2.878-3.794c-.567-.872-1.133-1.744-1.744-2.616h0c-.218-.305-.436-.654-.654-.959-3.14-4.71-7.936-6.977-11.9-10.727A26.181,26.181,0,0,1,271.328,7.5c-.262-.436-.567-.828-.829-1.264a11.57,11.57,0,0,0-5.233-4.623,23.584,23.584,0,0,0-14.608-.523,21.951,21.951,0,0,0-2.7,1.308c-2.442,1.091-4.318.48-6.759.088a8.026,8.026,0,0,0-5.582.872,24.383,24.383,0,0,0-6.541,5.887c-.349.392-.654.828-.959,1.221-1.134,1.482-2.137,3.008-3.009,4.4a16.375,16.375,0,0,0-.872,1.482c-.262.48-.567.96-.829,1.483a33.847,33.847,0,0,1-2.965,4.4c-1.744,2.093-3.968,3.445-6.018,5.146-3.052,2.529-4.1,5.669-4.622,9.157-.087.523-.131,1.047-.218,1.57-.131,1.134-.175,2.267-.262,3.445-.131,1.788-.872,4.4.349,5.974,1.134,1.483,31-6.367,43.825-6.367,6.889,0,13.343,2.268,19.622,4.928,3.053,1.265,6.062,2.616,9.071,3.968,2.79,1.221,5.843,2.268,7.413,5.058a.922.922,0,0,0,1.7-.436c.131-3.1.349-6.235.741-9.331.175-1.221.393-2.486.655-3.751.13-.523.218-1.046.348-1.613a36.814,36.814,0,0,0,.7-4.84A7.068,7.068,0,0,0,292.171,30.437Z" fill="#383838"/>
                            <path id="Контур_16" data-name="Контур 16" d="M355.052,279.648c-2.878-7.021-6.105-13.3-6.8-21.019-.7-7.587-1.177-15.131-2.442-22.675a166.494,166.494,0,0,0-5.494-22.544c-2.4-7.544-6.149-14.914-6.934-22.894-.654-6.933.262-13.823-.654-20.756a53.793,53.793,0,0,0-5.887-18.577,42.606,42.606,0,0,0-13.954-15.131c-3.75-2.442-15.131-8.329-19.361-4.84,1.047,1.439,7.806,1.657,9.943,2.354-5.844,12.123-11.861,24.9-14.783,38.025-3.1,13.692-.828,27.69,1.221,41.382,2.18,14.739,4.055,29.522,6.585,44.217a62.2,62.2,0,0,0,5.93,18.184c2.791,5.407,6.149,10.509,8.809,16a41.7,41.7,0,0,1,3.575,10.2c.654,3.488.087,7.064.742,10.552a10.7,10.7,0,0,0,7.151,8.373c.61,2.485,1.265,4.971,1.875,7.456a.907.907,0,0,0,1.09.611,164.754,164.754,0,0,0,29.26-7.544.889.889,0,0,0,.523-1.308c-3.139-7.108-.043-14.652,1.352-21.8A29.867,29.867,0,0,0,355.052,279.648Z" fill="#69b8b3"/>
                            <g id="Сгруппировать_5" data-name="Сгруппировать 5">
                                <path id="Контур_17" data-name="Контур 17" d="M218.171,64.058a.673.673,0,0,1-.654-.436.7.7,0,0,1,.393-.96,19.426,19.426,0,0,0,6.323-4.927c3.139-3.489,5.189-11.556,5.233-11.643a.719.719,0,1,1,1.395.349c-.087.349-2.18,8.5-5.538,12.253a20.972,20.972,0,0,1-6.846,5.277A.823.823,0,0,1,218.171,64.058Z" fill="#fff"/>
                            </g>
                            <g id="Сгруппировать_6" data-name="Сгруппировать 6">
                                <path id="Контур_18" data-name="Контур 18" d="M211.979,120.528a.719.719,0,0,1-.741-.654c0-.131-1.352-13.736-1.352-20.059V88.608a.742.742,0,0,1,1.483,0V99.815c0,6.236,1.308,19.754,1.352,19.884a.728.728,0,0,1-.654.785A.136.136,0,0,1,211.979,120.528Z" fill="#fff"/>
                            </g>
                            <g id="Сгруппировать_7" data-name="Сгруппировать 7">
                                <path id="Контур_19" data-name="Контур 19" d="M215.381,103.87a.757.757,0,0,1-.742-.7l-1-20.234a.8.8,0,0,1,.7-.785.738.738,0,0,1,.785.7l1,20.233a.8.8,0,0,1-.741.785Z" fill="#fff"/>
                            </g>
                            <path id="Контур_20" data-name="Контур 20" d="M314.847,252.176c-1.09-5.19.872-10.291.174-15.437-.785-5.712-3.358-10.814-3.706-16.614-.349-5.494-.088-10.989-.655-16.483V203.6c.349-12.559,1.527-61.223-.087-65.322-1.831-4.71-16.788-10.509-22.413-11.948-5.582-1.483-21.411,1.962-34.057,1.962-12.6,0-21.934-3.881-25.9-3.881s-23.766,3.4-23.766,3.4-3.226,4.012-5.581,6.934c-1.962,2.354-2.965,5.32-3.838,8.2-1.351,4.317-2.66,8.023-5.407,11.686a17.433,17.433,0,0,0-4.055,10.684c-.611,10.683-1,21.367-1.439,32.05-.916,21.673-2.268,43.432-2.137,65.148.044,6.454,1.962,12.995,9.506,13.169,4.448.088,8.765-.741,13.257-.3,5.232.523,10.2,2.18,15.523,2.05,6.149-.131,12.3-1.134,18.446-1.352,5.756-.175,11.512-.087,17.224.218,10.6.61,21.891,3.706,32.618,2.573.436-.044.872-.088,1.308-.175,7.5-.915,15.393-2.878,21.367-7.108a12.906,12.906,0,0,0,5.451-7.238C317.768,260.112,315.719,256.187,314.847,252.176Z" fill="#69b8b3"/>
                            <g id="Сгруппировать_8" data-name="Сгруппировать 8">
                                <path id="Контур_21" data-name="Контур 21" d="M289.206,33.184a.842.842,0,0,1-.436-.13c-.087-.088-9.288-6.847-19.274-8.242-10.16-1.439-22.457-1.439-29.216,0-6.846,1.439-24.638,3.794-24.812,3.837a.728.728,0,1,1-.218-1.439c.174-.043,17.922-2.354,24.725-3.793,7.02-1.483,19.23-1.483,29.739,0,10.379,1.482,19.579,8.241,19.972,8.546a.708.708,0,0,1,.131,1A.863.863,0,0,1,289.206,33.184Z" fill="#636363"/>
                            </g>
                            <path id="Контур_22" data-name="Контур 22" d="M284.54,29.173c1.4,3.924-.349,8.11-3.881,9.375-3.532,1.221-7.5-.959-8.895-4.884s.349-8.111,3.881-9.375C279.177,23.068,283.145,25.248,284.54,29.173Z" fill="#69b8b3"/>
                            <g id="Сгруппировать_9" data-name="Сгруппировать 9">
                                <path id="Контур_23" data-name="Контур 23" d="M239.364,11.468a.653.653,0,0,1-.479-.174.754.754,0,0,1-.088-1.047l4.841-5.668a.742.742,0,1,1,1.133.959l-4.84,5.669A.768.768,0,0,1,239.364,11.468Z" fill="#636363"/>
                            </g>
                            <g id="Сгруппировать_10" data-name="Сгруппировать 10">
                                <path id="Контур_24" data-name="Контур 24" d="M302.419,276.159a.756.756,0,0,1-.741-.7.8.8,0,0,1,.7-.785c.044,0,6.541-.392,8.286-4.8,1.875-4.71,1.875-29.26-.044-40.38-1.919-11.207-1.744-47.1,1.526-54.638,3.14-7.283,11.163-19.8,11.512-20.321a.726.726,0,0,1,1.221.785c-.087.131-8.285,12.951-11.381,20.1-3.1,7.2-3.271,43-1.395,53.767,1.962,11.556,1.962,36.15-.044,41.164-2.137,5.32-9.288,5.756-9.637,5.8Z"/>
                            </g>
                            <g id="Сгруппировать_11" data-name="Сгруппировать 11">
                                <path id="Контур_25" data-name="Контур 25" d="M312.318,183.67a.56.56,0,0,1-.436-.174.8.8,0,0,1-.131-1.047L327.1,163.262a.746.746,0,0,1,1.178.916l-15.35,19.187A.9.9,0,0,1,312.318,183.67Z"/>
                            </g>
                            <g id="Сгруппировать_12" data-name="Сгруппировать 12">
                                <path id="Контур_26" data-name="Контур 26" d="M325.225,320.594a.669.669,0,0,1-.7-.567.742.742,0,0,1,.567-.872l25.336-5.843a.735.735,0,1,1,.3,1.439L325.4,320.594Z"/>
                            </g>
                            <g id="Сгруппировать_13" data-name="Сгруппировать 13">
                                <path id="Контур_27" data-name="Контур 27" d="M208.316,273.717a.6.6,0,0,1-.392-.131c-.218-.174-5.451-3.793-7.151-6.8-1.658-2.922-3.794-7.893-3.881-8.111a.7.7,0,0,1,.392-.959.716.716,0,0,1,.959.392c.044.044,2.181,5.1,3.794,7.98,1.526,2.747,6.672,6.279,6.715,6.323a.676.676,0,0,1,.175,1A.836.836,0,0,1,208.316,273.717Z"/>
                            </g>
                            <g id="Сгруппировать_14" data-name="Сгруппировать 14">
                                <path id="Контур_28" data-name="Контур 28" d="M215.424,274.633a.767.767,0,0,1-.567-.262c-2.616-3.1-6.715-7.8-7.064-8.2a.74.74,0,0,1,1.047-1.046c.567.567,6.5,7.456,7.151,8.241a.754.754,0,0,1-.087,1.047A.7.7,0,0,1,215.424,274.633Z"/>
                            </g>
                            <g id="Сгруппировать_15" data-name="Сгруппировать 15">
                                <path id="Контур_29" data-name="Контур 29" d="M272.243,276.159a.745.745,0,0,1-.7-.48.759.759,0,0,1,.436-.959c.087-.044,7.2-2.7,10.509-6.148a14.849,14.849,0,0,0,3.968-6.541.735.735,0,1,1,1.439.3,16.314,16.314,0,0,1-4.317,7.239c-3.532,3.662-10.727,6.41-11.032,6.5A1.128,1.128,0,0,1,272.243,276.159Z"/>
                            </g>
                            <g id="Сгруппировать_16" data-name="Сгруппировать 16">
                                <path id="Контур_30" data-name="Контур 30" d="M259.031,133.348c-1.265,0-2.617,0-3.969-.087A95.976,95.976,0,0,1,225.41,127.2a.7.7,0,0,1-.392-.96.738.738,0,0,1,.959-.392,92.966,92.966,0,0,0,29.129,5.974c15.96.523,26.207-2.355,26.338-2.4a.731.731,0,1,1,.436,1.4C281.75,130.863,272.941,133.348,259.031,133.348Z"/>
                            </g>
                            <path id="Контур_31" data-name="Контур 31" d="M294.962,172.289l-.392,7.326-.087,1.744-.916,16.265s-18.271-.262-30.7,0c-12.428.218-16.091-3.4-27.3-3.4s-30.873,3.4-30.873,3.4V170.108s32.4-3.4,42.865-.959,17.966,1.7,28.955.959A46.665,46.665,0,0,1,294.962,172.289Z" fill="#fff"/>
                            <path id="Контур_32" data-name="Контур 32" d="M235.047,187.682c-1.308.174-1.308-.523-1.7-1.57-.348-.916,0-2.18-.654-2.747s-1.657.087-3.008.654c-1.745.7-3.445,1.4-5.19,2.093-.741.305-1.09-.741-.7-1.221a122.72,122.72,0,0,0,8.241-10.858,64.948,64.948,0,0,0-27.3,11.207V183.5a65.289,65.289,0,0,1,28.6-11.164c.567-.087,1.221.48.829,1.047-2.267,3.4-4.666,6.715-7.239,9.9,2.137-1.047,4.666-2.224,6.28-1.745,1.482.393,1.962,4.623,1.875,4.666C235.963,186.112,235.963,187.551,235.047,187.682Z" fill="#69b8b3"/>
                            <path id="Контур_33" data-name="Контур 33" d="M294.57,179.615l-.087,1.744c-2.66,1.57-5.364,3.14-8.111,4.535-2.617,1.308-5.669,3.1-8.591,3.619-2.66.48-3.052-.523-5.014-1.613-2.355-1.265-7.675,2.18-10.117,3.183a.688.688,0,0,1-.872-.48c-.523-3.837,1.352-7.238,1.57-10.988-4.8,1.831-9.594,3.619-14.434,5.45-2.442.916-4.884,1.875-7.37,2.791a3.932,3.932,0,0,1-2.311.436c-.654-.174-.785-.654-.7-1.264.174-.96,1.831-.785,2.529-1,.654-.175,1.264-.349,1.918-.524,1.178-.348,2.355-.654,3.489-1.046,1.788-.654,3.576-1.352,5.364-2.006,4.011-1.526,8.023-3.052,12.035-4.535.436-.174.872.262.916.7.087,1.875-2.53,9.942-1.265,10.64.741.348,5.494-2.355,6.454-2.7a5.886,5.886,0,0,1,2.7-.654c.306.044.48.436.785.567,2.137.785,2.137,1.918,4.1,1.657,2.4-.3,4.71-1.7,6.89-2.747C287.9,183.539,291.256,181.577,294.57,179.615Z" fill="#69b8b3"/>
                            <path id="Контур_34" data-name="Контур 34" d="M290.863,120.31s-8.111,1.613-9.9,4.8a112.071,112.071,0,0,0-2.355-15.175c-.087-.393-.741-.306-.7.087.959,11.032,3.314,22.2,1.308,33.228a.552.552,0,0,0,.044.262.2.2,0,0,0,.3.13.312.312,0,0,0,.262-.13,11.1,11.1,0,0,0,1.134-2.268,20.928,20.928,0,0,0,1.177-2.878c0,4.273-.087,8.5-.48,12.777-.087.828-.654,2.965,1.308.741,3.663-4.23,5.887-10.073,6.759-15.655A151.393,151.393,0,0,0,290.863,120.31Z"/>
                            <g id="Сгруппировать_17" data-name="Сгруппировать 17">
                                <path id="Контур_35" data-name="Контур 35" d="M279.787,124.583a.735.735,0,0,1-.741-.741V99.989a.742.742,0,0,1,1.483,0v23.853A.764.764,0,0,1,279.787,124.583Z" fill="#fff"/>
                            </g>
                            <g id="Сгруппировать_18" data-name="Сгруппировать 18">
                                <path id="Контур_36" data-name="Контур 36" d="M282.709,136.968h-.131a.764.764,0,0,1-.61-.829c0-.087,1.4-8.111,1.177-11.774a30.644,30.644,0,0,1,.043-5.843.747.747,0,1,1,1.483.175,36.43,36.43,0,0,0,0,5.581c.218,3.794-1.134,11.774-1.177,12.079A.824.824,0,0,1,282.709,136.968Z" fill="#fff"/>
                            </g>
                            <g id="Сгруппировать_19" data-name="Сгруппировать 19">
                                <path id="Контур_37" data-name="Контур 37" d="M282.709,60.264a.659.659,0,0,1-.48-.174,40.109,40.109,0,0,0-10.378-6.323c-6.585-2.791-13.649-8.634-13.954-8.9a.743.743,0,0,1,.959-1.134c.087.044,7.2,5.931,13.562,8.634a42.731,42.731,0,0,1,10.814,6.585A.75.75,0,0,1,283.276,60,.767.767,0,0,1,282.709,60.264Z" fill="#fff"/>
                            </g>
                            <g id="Сгруппировать_20" data-name="Сгруппировать 20">
                                <path id="Контур_38" data-name="Контур 38" d="M191.223,176.737a.882.882,0,0,1-.872-.7c0-.087-2.137-8.678-4.972-13.256-3.1-5.059-3.75-18.184-3.444-19.8a.862.862,0,0,1,1.046-.7.893.893,0,0,1,.7,1.046c-.218,1.09.349,13.823,3.183,18.489,2.965,4.841,5.058,13.431,5.146,13.78a.9.9,0,0,1-.654,1.09C191.354,176.737,191.266,176.737,191.223,176.737Z"/>
                            </g>
                            <g id="Сгруппировать_21" data-name="Сгруппировать 21">
                                <path id="Контур_39" data-name="Контур 39" d="M193.141,274.807a.751.751,0,0,1-.305-.043c-.174-.044-3.924-1.57-6.628-9.419-2.66-7.631,4.884-82.983,5.494-86.908a.907.907,0,0,1,1.788.305c-4.186,26.644-7.631,80.062-5.581,86.036,2.4,6.933,5.538,8.285,5.581,8.285a.94.94,0,0,1,.524,1.177A1,1,0,0,1,193.141,274.807Z"/>
                            </g>
                            <path id="Контур_40" data-name="Контур 40" d="M231.34,64.1a.436.436,0,0,1-.359-.683c.124-.18,3.108-4.4,9.92-3.543a.436.436,0,1,1-.108.865c-6.294-.785-9.066,3.133-9.093,3.172A.436.436,0,0,1,231.34,64.1Z"/>
                            <path id="Контур_41" data-name="Контур 41" d="M274.293,63.709a.436.436,0,0,1-.331-.152h0c-.129-.15-3.237-3.656-9.381-2.214a.436.436,0,0,1-.2-.849c6.678-1.568,10.1,2.329,10.243,2.5a.436.436,0,0,1-.049.614A.429.429,0,0,1,274.293,63.709Z"/>
                        </g>
                    </g>
                </g>
            </g>
        </g>
        <g id="Сгруппировать_30" data-name="Сгруппировать 30">
            <g id="Сгруппировать_29" data-name="Сгруппировать 29">
                <g id="Сгруппировать_28" data-name="Сгруппировать 28">
                    <g id="Сгруппировать_27" data-name="Сгруппировать 27" clip-path="url(#clip-path)">
                        <path id="Контур_42" data-name="Контур 42" d="M166.8,222.48a.436.436,0,0,1-.426-.346c-.493-2.327,2.278-16.949,2.4-17.571,0-.014.007-.028.011-.042.792-2.67-.265-10.335-.276-10.413-.176-2.065-.221-6.119-.222-6.291.433-7.779,3.943-24.005,3.978-24.168a138.441,138.441,0,0,1,5.335-20.331c.007-.018.014-.036.023-.054,7.305-14.127,30.738-17.118,31.732-17.238a.436.436,0,1,1,.1.865c-.239.029-23.941,3.054-31.048,16.748a137.332,137.332,0,0,0-5.291,20.176c-.039.182-3.534,16.34-3.963,24.022,0,.013.046,4.165.217,6.174.043.3,1.086,7.871.252,10.736-.8,4.2-2.774,15.419-2.4,17.206a.436.436,0,0,1-.336.517A.409.409,0,0,1,166.8,222.48Z"/>
                    </g>
                </g>
            </g>
        </g>
    </g>
</svg>
