<?xml version="1.0" encoding="utf-8"?>
<!-- Generator: Adobe Illustrator 23.0.1, SVG Export Plug-In . SVG Version: 6.00 Build 0)  -->
<svg version="1.1" id="Capa_1" xmlns="http://www.w3.org/2000/svg" xmlns:xlink="http://www.w3.org/1999/xlink" x="0px" y="0px"
	 viewBox="0 0 31.7 31.7" style="enable-background:new 0 0 31.7 31.7;" xml:space="preserve">
<style type="text/css">
	.st0{fill:#7D7D7D;}
</style>
<g>
	<path class="st0" d="M31.7,15.4c0,8.5-7,15.4-15.5,15.4c-2.7,0-5.3-0.7-7.5-1.9L0,31.7l2.8-8.3c-1.4-2.3-2.2-5.1-2.2-8
		C0.6,6.9,7.5,0,16.1,0C24.7,0,31.7,6.9,31.7,15.4z M16.1,2.5c-7.2,0-13.1,5.8-13.1,13c0,2.8,0.9,5.5,2.5,7.6l-1.6,4.8l5-1.6
		c2.1,1.4,4.5,2.1,7.2,2.1c7.2,0,13.1-5.8,13.1-13C29.2,8.3,23.3,2.5,16.1,2.5z M24,19c-0.1-0.2-0.4-0.3-0.7-0.4
		c-0.4-0.2-2.3-1.1-2.6-1.2c-0.4-0.1-0.6-0.2-0.9,0.2c-0.3,0.4-1,1.2-1.2,1.5c-0.2,0.3-0.4,0.3-0.8,0.1c-0.4-0.2-1.6-0.6-3.1-1.9
		c-1.1-1-1.9-2.2-2.1-2.6c-0.2-0.4,0-0.6,0.2-0.8c0.2-0.2,0.4-0.4,0.6-0.7c0.2-0.2,0.3-0.4,0.4-0.6c0.1-0.3,0.1-0.5,0-0.7
		c-0.1-0.2-0.9-2-1.2-2.8c-0.3-0.8-0.6-0.6-0.9-0.6c-0.2,0-0.5,0-0.7,0s-0.7,0.1-1,0.5C9.5,9.2,8.5,10.2,8.5,12
		c0,1.9,1.4,3.7,1.6,3.9c0.2,0.3,2.6,4.2,6.5,5.7c3.9,1.5,3.9,1,4.6,0.9c0.7-0.1,2.3-0.9,2.6-1.8C24.1,19.9,24.1,19.1,24,19z"/>
</g>
</svg>
